STARTFONT 2.1
COMMENT
COMMENT Converted from OpenType font "manrope-medium.otf" by "otf2bdf 3.0".
COMMENT
FONT -FreeType-Manrope Medium-Medium-R-Normal--101-730-100-100-P-462-ISO10646-1
SIZE 73 100 100
FONTBOUNDINGBOX 98 128 -3 -26
STARTPROPERTIES 19
FOUNDRY "FreeType"
FAMILY_NAME "Manrope Medium"
WEIGHT_NAME "Medium"
SLANT "R"
SETWIDTH_NAME "Normal"
ADD_STYLE_NAME ""
PIXEL_SIZE 101
POINT_SIZE 730
RESOLUTION_X 100
RESOLUTION_Y 100
SPACING "P"
AVERAGE_WIDTH 462
CHARSET_REGISTRY "ISO10646"
CHARSET_ENCODING "1"
FONT_ASCENT 107
FONT_DESCENT 30
COPYRIGHT "Copyright 2019-2021 The Manrope Project Authors (https://github.com/sharanda/manrope)"
_OTF_FONTFILE "manrope-medium.otf"
_OTF_PSNAME "Manrope-Medium"
ENDPROPERTIES
CHARS 191
STARTCHAR 0020
ENCODING 32
SWIDTH 197 0
DWIDTH 20 0
BBX 0 0 0 0
BITMAP
ENDCHAR
STARTCHAR 0021
ENCODING 33
SWIDTH 325 0
DWIDTH 33 0
BBX 9 73 12 0
BITMAP
FF80
FF80
FF80
FF80
FF80
FF80
FF80
FF80
FF80
FF80
FF80
FF80
FF80
FF80
FF80
FF80
FF80
FF80
FF80
FF80
FF80
FF80
FF80
FF80
FF80
FF80
FF80
FF80
FF80
FF80
FF80
FF80
FF80
FF80
FF80
FF80
FF80
FF80
FF80
FF80
FF80
FF80
FF80
FF80
FF80
FF80
FF80
FF80
FF80
FF80
FF80
FF80
FF80
FF80
FF80
0000
0000
0000
0000
0000
0000
0000
0000
0000
FF80
FF80
FF80
FF80
FF80
FF80
FF80
FF80
FF80
ENDCHAR
STARTCHAR 0022
ENCODING 34
SWIDTH 414 0
DWIDTH 42 0
BBX 26 18 6 55
BITMAP
FF807FC0
FF807FC0
FF807FC0
FF807FC0
FF807FC0
FF807FC0
FF807FC0
FF807FC0
FF807FC0
FF807FC0
FF807FC0
FF807FC0
FF807FC0
FF807FC0
FF807FC0
FF807FC0
FF807FC0
FF807FC0
ENDCHAR
STARTCHAR 0023
ENCODING 35
SWIDTH 927 0
DWIDTH 94 0
BBX 81 73 6 0
BITMAP
000000003FE0003FE00000
000000007FC0003FE00000
000000007FC0007FC00000
000000007FC0007FC00000
000000007FC0007FC00000
00000000FF80007FC00000
00000000FF8000FF800000
00000000FF8000FF800000
00000000FF0000FF800000
00000001FF0000FF800000
00000001FF0001FF000000
00000001FF0001FF000000
00000003FE0001FF000000
00000003FE0001FE000000
00000003FE0003FE000000
00000003FE0003FE000000
00000007FC0003FE000000
00000007FC0007FC000000
00000007FC0007FC000000
00000007FC0007FC000000
00FFFFFFFFFFFFFFFFFF80
00FFFFFFFFFFFFFFFFFF80
00FFFFFFFFFFFFFFFFFF80
00FFFFFFFFFFFFFFFFFF80
01FFFFFFFFFFFFFFFFFF00
01FFFFFFFFFFFFFFFFFF00
01FFFFFFFFFFFFFFFFFF00
01FFFFFFFFFFFFFFFFFF00
03FFFFFFFFFFFFFFFFFE00
0000003FE0003FE0000000
0000003FE0003FE0000000
0000007FC0003FE0000000
0000007FC0007FC0000000
0000007FC0007FC0000000
0000007F80007FC0000000
000000FF80007FC0000000
000000FF8000FF80000000
000000FF8000FF80000000
000001FF0000FF80000000
000001FF0000FF00000000
000001FF0001FF00000000
000001FF0001FF00000000
000003FE0001FF00000000
3FFFFFFFFFFFFFFFFFE000
3FFFFFFFFFFFFFFFFFE000
3FFFFFFFFFFFFFFFFFE000
7FFFFFFFFFFFFFFFFFC000
7FFFFFFFFFFFFFFFFFC000
7FFFFFFFFFFFFFFFFFC000
7FFFFFFFFFFFFFFFFFC000
FFFFFFFFFFFFFFFFFF8000
FFFFFFFFFFFFFFFFFF8000
00000FF8000FF800000000
00001FF0000FF800000000
00001FF0001FF000000000
00001FF0001FF000000000
00001FF0001FF000000000
00003FE0001FF000000000
00003FE0003FE000000000
00003FE0003FE000000000
00003FC0003FE000000000
00007FC0003FE000000000
00007FC0007FC000000000
00007FC0007FC000000000
00007F80007FC000000000
0000FF80007F8000000000
0000FF8000FF8000000000
0000FF8000FF8000000000
0001FF0000FF8000000000
0001FF0000FF0000000000
0001FF0001FF0000000000
0001FF0001FF0000000000
0003FE0001FF0000000000
ENDCHAR
STARTCHAR 0024
ENCODING 36
SWIDTH 601 0
DWIDTH 61 0
BBX 53 93 4 -10
BITMAP
000003FE000000
000003FE000000
000003FE000000
000003FE000000
000003FE000000
000003FE000000
000003FE000000
000003FE000000
000003FE000000
00001FFFC00000
0000FFFFF80000
0007FFFFFF0000
001FFFFFFF8000
003FFFFFFFE000
007FFFFFFFF000
00FFFFFFFFF800
01FFFFFFFFFC00
03FFFE03FFFE00
07FFE0007FFF00
07FF80001FFF80
0FFE000007FFC0
0FFC000003FFC0
1FF8000001FFE0
1FF8000000FFE0
1FF00000007FF0
1FF00000003FF0
3FF00000003FF0
3FE00000001FF0
3FE00000001FF8
3FE00000001FF8
3FE00000000FC0
3FF00000000000
1FF00000000000
1FF80000000000
1FFC0000000000
1FFE0000000000
0FFF0000000000
0FFFC000000000
07FFF000000000
07FFFF00000000
03FFFFE0000000
01FFFFFC000000
00FFFFFFC00000
003FFFFFF80000
001FFFFFFF0000
0007FFFFFFC000
0000FFFFFFF000
00001FFFFFFC00
000003FFFFFE00
0000007FFFFF00
00000007FFFF80
00000000FFFFC0
000000001FFFE0
0000000007FFF0
0000000000FFF0
00000000007FF0
00000000003FF8
00000000001FF8
00000000000FF8
00000000000FF8
00000000000FF8
01000000000FF8
7F8000000007F8
FF8000000007F8
FF8000000007F8
FFC00000000FF8
FFC00000000FF8
7FE00000000FF8
7FF00000001FF8
3FF80000001FF0
3FFC0000003FF0
1FFE0000007FF0
1FFF000000FFE0
0FFFC00003FFC0
07FFF0000FFFC0
03FFFE00FFFF80
01FFFFFFFFFF00
00FFFFFFFFFE00
007FFFFFFFFC00
003FFFFFFFF800
000FFFFFFFE000
0003FFFFFF8000
0000FFFFFE0000
00001FFFE00000
000003FE000000
000003FE000000
000003FE000000
000003FE000000
000003FE000000
000003FE000000
000003FE000000
000003FE000000
000003FE000000
ENDCHAR
STARTCHAR 0025
ENCODING 37
SWIDTH 897 0
DWIDTH 91 0
BBX 79 77 6 -2
BITMAP
0003FE00000000000000
001FFFC0000000000000
007FFFF0000000000200
00FFFFF8000000000700
03FFFFFC000000000F80
07FFFFFE000000001FC0
07FFFFFF000000003FE0
0FFFFFFF800000007FF0
1FFE07FFC0000000FFF0
3FF800FFC0000001FFE0
3FF0007FE0000003FFC0
7FE0003FE0000007FF80
7FC0001FF000000FFF00
7F80001FF000001FFE00
7F80000FF000003FFC00
FF80000FF000007FF800
FF00000FF00000FFF000
FF000007F80001FFE000
FF000007F80003FFC000
FF000007F80007FF8000
FF00000FF0000FFF0000
FF00000FF0001FFE0000
FF80000FF0003FFC0000
7F80001FF0007FF80000
7FC0001FF000FFF00000
7FE0003FE001FFE00000
3FF0007FE003FFC00000
3FF801FFC007FF800000
1FFE07FFC00FFF000000
0FFFFFFF801FFE000000
0FFFFFFF003FFC000000
07FFFFFE007FF8000000
03FFFFFC00FFF0000000
00FFFFF801FFE0000000
007FFFE003FFC0000000
001FFFC007FF80000000
0003FC000FFF00000000
000000001FFE00000000
000000003FFC00000000
000000007FF800000000
00000000FFF0007F8000
00000001FFE003FFF000
00000003FFC00FFFFC00
00000007FF803FFFFF00
0000000FFF007FFFFF80
0000001FFE00FFFFFFC0
0000003FFC01FFFFFFE0
0000007FF803FFFFFFF0
000000FFF003FFC0FFF0
000001FFE007FF003FF8
000003FFC007FC000FF8
000007FF800FF80007FC
00000FFF000FF80007FC
00001FFE001FF00003FE
00003FFC001FF00003FE
00007FF8001FE00001FE
0000FFF0001FE00001FE
0001FFE0001FE00001FE
0003FFC0001FE00001FE
0007FF80001FE00001FE
000FFF00001FE00001FE
001FFE00001FE00001FE
003FFC00001FF00003FE
007FF800001FF00003FE
00FFF000000FF80007FC
01FFE000000FF80007FC
03FFC000000FFC000FF8
07FF80000007FF003FF8
0FFF00000003FFC0FFF0
1FFE00000003FFFFFFF0
0FFC00000001FFFFFFE0
07F800000000FFFFFFC0
03F0000000007FFFFF80
00E0000000003FFFFF00
0040000000000FFFFC00
00000000000003FFF000
000000000000007F8000
ENDCHAR
STARTCHAR 0026
ENCODING 38
SWIDTH 660 0
DWIDTH 67 0
BBX 60 76 5 -2
BITMAP
00000FFE00000000
00007FFFE0000000
0003FFFFFC000000
0007FFFFFE000000
001FFFFFFF800000
003FFFFFFFC00000
007FFFFFFFE00000
00FFFFFFFFF00000
01FFFFFFFFF00000
01FFF000FFF80000
03FFC0003FFC0000
03FF80001FFC0000
07FF00000FFE0000
07FE000007FC0000
07FC000003C00000
0FFC000000000000
0FFC000000000000
0FF8000000000000
0FF8000000000000
0FF8000000000000
0FF8000000000000
0FF8000000000000
0FFC000000000000
0FFC000000000000
07FC000000000000
07FE000000000000
07FE000000000000
03FF000000000000
03FF800000000000
01FFC00000000000
00FFE00000000000
00FFF00000000000
007FF80000000000
003FFC0000000000
001FFE0000000000
003FFF8000000000
00FFFFC000000000
01FFFFE000000000
03FFFFF0000FF000
07FFFFF8000FF000
0FFFFFFC000FF000
1FFFBFFE000FF000
1FFE1FFF000FF000
3FFC0FFF800FF000
3FF803FFC00FF000
7FF001FFE00FF000
7FE000FFF00FF000
7FC0007FFC0FF000
7FC0003FFE0FF000
FFC0001FFF0FF000
FFC0000FFF8FF000
FF800007FFCFF000
FF800003FFEFF000
FF800001FFFFF000
FF800000FFFFF000
FF8000003FFFF000
FFC000001FFFF000
FFC000000FFFF000
7FC0000007FFF000
7FE0000003FFE000
7FE0000001FFF000
7FF0000000FFF800
3FF8000001FFFC00
3FFC000003FFFE00
1FFE000007FFFF00
1FFF80001FFFFF80
0FFFE0007FFFFFC0
07FFFFFFFFFFFFE0
07FFFFFFFFFDFFF0
03FFFFFFFFF87FF0
00FFFFFFFFF03FE0
007FFFFFFFE01FC0
003FFFFFFF800F80
000FFFFFFE000700
0001FFFFF0000200
00000FFF80000000
ENDCHAR
STARTCHAR 0027
ENCODING 39
SWIDTH 226 0
DWIDTH 23 0
BBX 9 18 6 55
BITMAP
FF80
FF80
FF80
FF80
FF80
FF80
FF80
FF80
FF80
FF80
FF80
FF80
FF80
FF80
FF80
FF80
FF80
FF80
ENDCHAR
STARTCHAR 0028
ENCODING 40
SWIDTH 433 0
DWIDTH 44 0
BBX 25 104 14 -19
BITMAP
00001000
00003800
00007C00
0000FF00
0001FF80
0001FF80
0003FF80
0007FF00
0007FE00
000FFC00
001FFC00
001FF800
003FF000
003FF000
007FE000
007FC000
00FFC000
00FF8000
01FF8000
01FF0000
03FF0000
03FE0000
03FE0000
07FC0000
07FC0000
07F80000
0FF80000
0FF80000
0FF00000
1FF00000
1FF00000
1FE00000
1FE00000
3FE00000
3FE00000
3FC00000
3FC00000
7FC00000
7FC00000
7FC00000
7F800000
7F800000
7F800000
7F800000
FF800000
FF800000
FF800000
FF800000
FF800000
FF000000
FF000000
FF000000
FF000000
FF000000
FF000000
FF800000
FF800000
FF800000
FF800000
FF800000
7F800000
7F800000
7F800000
7F800000
7FC00000
7FC00000
7FC00000
3FC00000
3FC00000
3FE00000
3FE00000
1FE00000
1FE00000
1FF00000
1FF00000
0FF00000
0FF80000
0FF80000
07F80000
07FC0000
07FC0000
03FE0000
03FE0000
03FF0000
01FF0000
01FF8000
00FF8000
00FFC000
007FC000
007FE000
003FF000
003FF000
001FF800
001FFC00
000FFC00
0007FE00
0007FF00
0003FF80
0001FF80
0001FF80
0000FF00
00007C00
00003800
00001000
ENDCHAR
STARTCHAR 0029
ENCODING 41
SWIDTH 433 0
DWIDTH 44 0
BBX 25 104 5 -19
BITMAP
04000000
0E000000
1F000000
7F800000
FFC00000
FFC00000
FFE00000
7FF00000
3FF00000
1FF80000
1FFC0000
0FFC0000
07FE0000
07FE0000
03FF0000
01FF0000
01FF8000
00FF8000
00FFC000
007FC000
007FE000
003FE000
003FE000
001FF000
001FF000
000FF000
000FF800
000FF800
0007F800
0007FC00
0007FC00
0003FC00
0003FE00
0003FE00
0003FE00
0001FE00
0001FE00
0001FF00
0001FF00
0000FF00
0000FF00
0000FF00
0000FF00
0000FF00
0000FF80
0000FF80
0000FF80
0000FF80
00007F80
00007F80
00007F80
00007F80
00007F80
00007F80
00007F80
00007F80
0000FF80
0000FF80
0000FF80
0000FF80
0000FF00
0000FF00
0000FF00
0000FF00
0000FF00
0001FF00
0001FF00
0001FE00
0001FE00
0003FE00
0003FE00
0003FE00
0003FC00
0007FC00
0007FC00
0007F800
000FF800
000FF800
000FF000
001FF000
001FF000
003FE000
003FE000
007FE000
007FC000
00FFC000
00FF8000
01FF8000
01FF0000
03FF0000
07FE0000
07FE0000
0FFC0000
1FFC0000
1FF80000
3FF00000
7FF00000
FFE00000
FFC00000
FFC00000
7F800000
1F000000
0E000000
04000000
ENDCHAR
STARTCHAR 002A
ENCODING 42
SWIDTH 443 0
DWIDTH 45 0
BBX 36 34 3 39
BITMAP
0003FC0000
0003FC0000
0003FC0000
0003FC0000
0003FC0000
0003FC0000
0003FC0000
0003FC0000
2003FC0040
3C03FC03C0
3F03FC0FC0
3FE3FC7FE0
7FFFFFFFE0
7FFFFFFFE0
7FFFFFFFF0
FFFFFFFFF0
7FFFFFFFE0
07FFFFFE00
00FFFFF000
000FFF8000
000FFF8000
001FFF8000
003FFFC000
007FFFE000
00FFFFF000
00FF9FF800
01FF0FF800
03FF0FFC00
07FE07FE00
0FFC03FF00
03FC03FE00
01F801F800
00F000F000
0030004000
ENDCHAR
STARTCHAR 002B
ENCODING 43
SWIDTH 572 0
DWIDTH 58 0
BBX 46 46 6 14
BITMAP
00001FE00000
00001FE00000
00001FE00000
00001FE00000
00001FE00000
00001FE00000
00001FE00000
00001FE00000
00001FE00000
00001FE00000
00001FE00000
00001FE00000
00001FE00000
00001FE00000
00001FE00000
00001FE00000
00001FE00000
00001FE00000
00001FE00000
00001FE00000
FFFFFFFFFFFC
FFFFFFFFFFFC
FFFFFFFFFFFC
FFFFFFFFFFFC
FFFFFFFFFFFC
FFFFFFFFFFFC
FFFFFFFFFFFC
00001FE00000
00001FE00000
00001FE00000
00001FE00000
00001FE00000
00001FE00000
00001FE00000
00001FE00000
00001FE00000
00001FE00000
00001FE00000
00001FE00000
00001FE00000
00001FE00000
00001FE00000
00001FE00000
00001FE00000
00001FE00000
00001FE00000
ENDCHAR
STARTCHAR 002C
ENCODING 44
SWIDTH 276 0
DWIDTH 28 0
BBX 10 22 6 -12
BITMAP
FFC0
FFC0
FFC0
FFC0
FFC0
FFC0
FFC0
FFC0
FFC0
FFC0
FFC0
07C0
07C0
07C0
07C0
07C0
0FC0
1F80
7F80
FF00
FE00
FC00
ENDCHAR
STARTCHAR 002D
ENCODING 45
SWIDTH 424 0
DWIDTH 43 0
BBX 30 7 6 28
BITMAP
FFFFFFFC
FFFFFFFC
FFFFFFFC
FFFFFFFC
FFFFFFFC
FFFFFFFC
FFFFFFFC
ENDCHAR
STARTCHAR 002E
ENCODING 46
SWIDTH 266 0
DWIDTH 27 0
BBX 10 10 9 0
BITMAP
FFC0
FFC0
FFC0
FFC0
FFC0
FFC0
FFC0
FFC0
FFC0
FFC0
ENDCHAR
STARTCHAR 002F
ENCODING 47
SWIDTH 404 0
DWIDTH 41 0
BBX 29 73 6 0
BITMAP
00001FF8
00001FF0
00001FF0
00001FF0
00003FF0
00003FE0
00003FE0
00003FE0
00007FC0
00007FC0
00007FC0
0000FFC0
0000FF80
0000FF80
0000FF80
0001FF80
0001FF00
0001FF00
0001FF00
0003FF00
0003FE00
0003FE00
0003FE00
0007FC00
0007FC00
0007FC00
000FFC00
000FF800
000FF800
000FF800
001FF800
001FF000
001FF000
001FF000
003FF000
003FE000
003FE000
003FE000
007FC000
007FC000
007FC000
00FFC000
00FF8000
00FF8000
00FF8000
01FF8000
01FF0000
01FF0000
01FF0000
03FF0000
03FE0000
03FE0000
03FE0000
07FC0000
07FC0000
07FC0000
0FFC0000
0FF80000
0FF80000
0FF80000
1FF80000
1FF00000
1FF00000
1FF00000
3FF00000
3FE00000
3FE00000
3FE00000
7FC00000
7FC00000
7FC00000
FFC00000
FF800000
ENDCHAR
STARTCHAR 0030
ENCODING 48
SWIDTH 621 0
DWIDTH 63 0
BBX 49 77 7 -2
BITMAP
00001FFC000000
0000FFFFC00000
0007FFFFF00000
000FFFFFFC0000
003FFFFFFE0000
007FFFFFFF8000
00FFFFFFFFC000
01FFFFFFFFE000
03FFFFFFFFF000
07FFF003FFF000
0FFF8000FFF800
0FFF00003FFC00
1FFE00001FFC00
1FFC00000FFE00
3FF8000007FE00
3FF0000003FF00
7FE0000003FF00
7FE0000001FF00
7FC0000001FF80
7FC0000001FF80
FFC0000000FF80
FF80000000FF80
FF80000000FF80
FF80000000FF80
FF80000000FF80
FF80000000FF80
FF80000000FF80
FF80000000FF80
FF80000000FF80
FF80000000FF80
FF80000000FF80
FF80000000FF80
FF80000000FF80
FF80000000FF80
FF80000000FF80
FF80000000FF80
FF80000000FF80
FF80000000FF80
FF80000000FF80
FF80000000FF80
FF80000000FF80
FF80000000FF80
FF80000000FF80
FF80000000FF80
FF80000000FF80
FF80000000FF80
FF80000000FF80
FF80000000FF80
FF80000000FF80
FF80000000FF80
FF80000000FF80
FF80000000FF80
FF80000000FF80
FF80000000FF80
FF80000000FF80
FF80000000FF80
FFC0000000FF80
7FC0000001FF80
7FC0000001FF80
7FE0000001FF00
7FE0000003FF00
3FF0000007FF00
3FF8000007FE00
1FFC00000FFE00
1FFE00001FFC00
0FFF00003FFC00
0FFF8000FFF800
07FFF003FFF800
03FFFFFFFFF000
01FFFFFFFFE000
00FFFFFFFFC000
007FFFFFFF8000
003FFFFFFE0000
000FFFFFFC0000
0007FFFFF00000
0000FFFFC00000
00001FFC000000
ENDCHAR
STARTCHAR 0031
ENCODING 49
SWIDTH 404 0
DWIDTH 41 0
BBX 23 73 6 0
BITMAP
0007FE
001FFE
003FFE
00FFFE
03FFFE
07FFFE
1FFFFE
7FFFFE
FFFFFE
FFFFFE
FFFBFE
FFE3FE
FFC3FE
FF03FE
FC03FE
F803FE
E003FE
8003FE
0003FE
0003FE
0003FE
0003FE
0003FE
0003FE
0003FE
0003FE
0003FE
0003FE
0003FE
0003FE
0003FE
0003FE
0003FE
0003FE
0003FE
0003FE
0003FE
0003FE
0003FE
0003FE
0003FE
0003FE
0003FE
0003FE
0003FE
0003FE
0003FE
0003FE
0003FE
0003FE
0003FE
0003FE
0003FE
0003FE
0003FE
0003FE
0003FE
0003FE
0003FE
0003FE
0003FE
0003FE
0003FE
0003FE
0003FE
0003FE
0003FE
0003FE
0003FE
0003FE
0003FE
0003FE
0003FE
ENDCHAR
STARTCHAR 0032
ENCODING 50
SWIDTH 581 0
DWIDTH 59 0
BBX 49 75 5 0
BITMAP
00001FFC000000
0000FFFF800000
0007FFFFF00000
001FFFFFFC0000
003FFFFFFE0000
007FFFFFFF0000
01FFFFFFFF8000
03FFFFFFFFC000
03FFFFFFFFE000
07FFF003FFF000
0FFF8000FFF800
1FFF00007FF800
1FFC00001FFC00
3FFC00000FFC00
3FF800000FFE00
3FF0000007FE00
7FE0000003FF00
7FE0000003FF00
7FC0000003FF00
7FC0000001FF00
7FC0000001FF00
FFC0000001FF00
FFC0000001FF80
FFC0000001FF80
0000000001FF80
0000000001FF80
0000000001FF00
0000000001FF00
0000000001FF00
0000000003FF00
0000000003FF00
0000000007FF00
0000000007FE00
000000000FFE00
000000001FFC00
000000003FFC00
000000003FF800
00000000FFF800
00000001FFF000
00000003FFE000
00000007FFC000
0000000FFF8000
0000001FFF0000
0000003FFE0000
0000007FFC0000
000000FFF80000
000001FFF00000
000007FFE00000
00000FFFC00000
00001FFF800000
00003FFE000000
00007FFC000000
0000FFF8000000
0001FFF0000000
0003FFE0000000
0007FFC0000000
000FFF80000000
003FFF00000000
007FFE00000000
00FFFC00000000
01FFF000000000
03FFE000000000
07FFC000000000
0FFF8000000000
1FFF0000000000
3FFE0000000000
7FFFFFFFFFFF80
FFFFFFFFFFFF80
FFFFFFFFFFFF80
FFFFFFFFFFFF80
FFFFFFFFFFFF80
FFFFFFFFFFFF80
FFFFFFFFFFFF80
FFFFFFFFFFFF80
FFFFFFFFFFFF80
ENDCHAR
STARTCHAR 0033
ENCODING 51
SWIDTH 562 0
DWIDTH 57 0
BBX 47 74 4 -1
BITMAP
1FFFFFFFFFFC
1FFFFFFFFFFC
1FFFFFFFFFFC
1FFFFFFFFFFC
1FFFFFFFFFFC
1FFFFFFFFFFC
1FFFFFFFFFFC
1FFFFFFFFFFC
1FFFFFFFFFFC
000000003FF8
000000007FF0
00000000FFE0
00000003FFC0
00000007FF80
0000000FFF00
0000001FFE00
0000003FFC00
0000007FF800
000000FFF000
000001FFE000
000007FF8000
00000FFF0000
00001FFE0000
00003FFC0000
00007FF80000
0000FFF00000
0001FFE00000
0003FFF00000
000FFFFF8000
001FFFFFE000
001FFFFFF800
000FFFFFFC00
0007FFFFFF00
0007FFFFFF80
0003FFFFFFC0
0001E01FFFC0
00010003FFE0
00000000FFF0
000000007FF0
000000003FF8
000000001FF8
000000001FFC
000000000FFC
000000000FFC
0000000007FC
0000000007FE
0000000007FE
0000000007FE
0000000003FE
0000000003FE
0000000003FE
0000000003FE
0000000007FE
0000000007FE
0000000007FE
0180000007FC
0F80000007FC
FFC000000FFC
FFC000000FFC
7FE000001FF8
7FF000003FF8
3FF800007FF0
3FFC0000FFF0
1FFE0003FFE0
1FFF800FFFE0
0FFFFFFFFFC0
07FFFFFFFF80
03FFFFFFFF00
01FFFFFFFE00
007FFFFFFC00
003FFFFFF000
000FFFFFC000
0003FFFF0000
00003FF00000
ENDCHAR
STARTCHAR 0034
ENCODING 52
SWIDTH 591 0
DWIDTH 60 0
BBX 50 73 5 0
BITMAP
000000FFC00000
000001FFC00000
000001FF800000
000003FF800000
000003FF000000
000003FF000000
000007FE000000
000007FE000000
00000FFC000000
00000FFC000000
00001FF8000000
00001FF8000000
00003FF0000000
00003FF0000000
00007FF0000000
00007FE0000000
0000FFE0000000
0000FFC0000000
0001FFC0000000
0001FF80000000
0003FF80000000
0003FF00000000
0003FF00000000
0007FE00000000
0007FE00000000
000FFC00000000
000FFC00000000
001FF800000000
001FF800000000
003FF000000000
003FF0003FE000
007FF0003FE000
007FE0003FE000
00FFE0003FE000
00FFC0003FE000
01FFC0003FE000
01FF80003FE000
03FF80003FE000
03FF00003FE000
07FF00003FE000
07FE00003FE000
07FE00003FE000
0FFC00003FE000
0FFC00003FE000
1FF800003FE000
1FF800003FE000
3FF000003FE000
3FF000003FE000
7FE000003FE000
7FE000003FE000
FFE000003FE000
FFFFFFFFFFFFC0
FFFFFFFFFFFFC0
FFFFFFFFFFFFC0
FFFFFFFFFFFFC0
FFFFFFFFFFFFC0
FFFFFFFFFFFFC0
FFFFFFFFFFFFC0
FFFFFFFFFFFFC0
FFFFFFFFFFFFC0
000000003FE000
000000003FE000
000000003FE000
000000003FE000
000000003FE000
000000003FE000
000000003FE000
000000003FE000
000000003FE000
000000003FE000
000000003FE000
000000003FE000
000000003FE000
ENDCHAR
STARTCHAR 0035
ENCODING 53
SWIDTH 581 0
DWIDTH 59 0
BBX 49 75 5 -2
BITMAP
0FFFFFFFFFF000
0FFFFFFFFFF000
0FFFFFFFFFF000
0FFFFFFFFFF000
0FFFFFFFFFF000
0FFFFFFFFFF000
0FFFFFFFFFF000
0FFFFFFFFFF000
0FFFFFFFFFF000
0FF80000000000
0FF80000000000
0FF00000000000
0FF00000000000
0FF00000000000
0FF00000000000
0FF00000000000
0FF00000000000
1FF00000000000
1FF00000000000
1FF00000000000
1FF00000000000
1FF00000000000
1FF00000000000
1FF00000000000
1FF00000000000
1FF00000000000
1FF00FFC000000
1FF07FFF800000
1FE1FFFFF00000
1FE7FFFFFC0000
1FEFFFFFFE0000
1FFFFFFFFF0000
1FFFFFFFFF8000
1FFFFFFFFFC000
1FFFFC3FFFE000
3FFFC003FFF000
3FFF0000FFF800
3FFC00007FF800
1FF800001FFC00
03F000000FFC00
00E000000FFE00
0000000007FE00
0000000003FF00
0000000003FF00
0000000001FF00
0000000001FF00
0000000001FF80
0000000001FF80
0000000000FF80
0000000000FF80
0000000000FF80
0000000000FF80
0000000000FF80
0000000001FF80
0080000001FF00
0F80000001FF00
7F80000003FF00
FFC0000003FF00
7FC0000007FE00
7FE0000007FE00
7FF000000FFC00
3FF800001FFC00
3FFC00003FF800
1FFE00007FF800
0FFF8001FFF000
0FFFE007FFE000
07FFFFFFFFE000
03FFFFFFFFC000
01FFFFFFFF8000
00FFFFFFFE0000
007FFFFFFC0000
001FFFFFF00000
0007FFFFE00000
0001FFFF000000
00001FF8000000
ENDCHAR
STARTCHAR 0036
ENCODING 54
SWIDTH 621 0
DWIDTH 63 0
BBX 50 76 7 -2
BITMAP
00000FFE000000
00007FFFE00000
0003FFFFF80000
000FFFFFFE0000
001FFFFFFF0000
007FFFFFFFC000
00FFFFFFFFE000
01FFFFFFFFF000
03FFFFFFFFF800
07FFF001FFFC00
07FFC0007FF800
0FFF00001FF000
1FFE00000FC000
1FFC0000078000
3FF80000030000
3FF00000000000
3FF00000000000
7FE00000000000
7FE00000000000
7FC00000000000
7FC00000000000
FFC00000000000
FF800000000000
FF800000000000
FF800000000000
FF800000000000
FF800000000000
FF800000000000
FF800FFF000000
FF807FFFE00000
FF81FFFFFC0000
FF83FFFFFE0000
FF8FFFFFFF8000
FF9FFFFFFFC000
FFBFFFFFFFE000
FFFFFFFFFFF000
FFFFF807FFF800
FFFFC000FFF800
FFFF80007FFC00
FFFE00001FFE00
FFFC00000FFE00
FFF8000007FF00
FFF0000003FF00
FFF0000003FF80
FFE0000001FF80
FFE0000001FF80
FFC0000000FF80
FFC0000000FFC0
FFC0000000FFC0
FF800000007FC0
FF800000007FC0
FF800000007FC0
FF800000007FC0
FF800000007FC0
FFC0000000FFC0
FFC0000000FFC0
7FC0000000FF80
7FC0000000FF80
7FE0000001FF80
3FE0000001FF80
3FF0000003FF00
3FF8000007FF00
1FFC00000FFE00
1FFE00001FFE00
0FFF00003FFC00
07FFC000FFF800
07FFF003FFF800
03FFFFFFFFF000
01FFFFFFFFE000
00FFFFFFFFC000
007FFFFFFF8000
003FFFFFFE0000
000FFFFFFC0000
0003FFFFF00000
0000FFFFC00000
00000FFC000000
ENDCHAR
STARTCHAR 0037
ENCODING 55
SWIDTH 512 0
DWIDTH 52 0
BBX 43 73 4 0
BITMAP
FFFFFFFFFFE0
FFFFFFFFFFE0
FFFFFFFFFFE0
FFFFFFFFFFE0
FFFFFFFFFFE0
FFFFFFFFFFE0
FFFFFFFFFFE0
FFFFFFFFFFE0
FFFFFFFFFFE0
000000007FE0
00000000FFC0
00000000FFC0
00000000FF80
00000001FF80
00000001FF80
00000003FF00
00000003FF00
00000003FE00
00000007FE00
00000007FC00
0000000FFC00
0000000FFC00
0000000FF800
0000001FF800
0000001FF000
0000003FF000
0000003FF000
0000003FE000
0000007FE000
0000007FC000
000000FFC000
000000FFC000
000001FF8000
000001FF8000
000001FF0000
000003FF0000
000003FF0000
000007FE0000
000007FE0000
000007FC0000
00000FFC0000
00000FFC0000
00001FF80000
00001FF80000
00001FF00000
00003FF00000
00003FE00000
00007FE00000
00007FE00000
00007FC00000
0000FFC00000
0000FF800000
0001FF800000
0001FF800000
0003FF000000
0003FF000000
0003FE000000
0007FE000000
0007FE000000
000FFC000000
000FFC000000
000FF8000000
001FF8000000
001FF8000000
003FF0000000
003FF0000000
003FE0000000
007FE0000000
007FE0000000
00FFC0000000
00FFC0000000
00FF80000000
01FF80000000
ENDCHAR
STARTCHAR 0038
ENCODING 56
SWIDTH 591 0
DWIDTH 60 0
BBX 48 77 6 -2
BITMAP
00003FF80000
0001FFFF8000
000FFFFFE000
001FFFFFF800
007FFFFFFE00
00FFFFFFFF00
01FFFFFFFF80
03FFFFFFFFC0
07FFFFFFFFE0
07FFE007FFE0
0FFF0001FFF0
0FFE00007FF0
1FFC00003FF8
1FF800001FF8
3FF800001FF8
3FF000000FFC
3FF000000FFC
3FF000000FFC
3FE000000FFC
3FE000000FFC
3FE000000FFC
3FE000000FFC
3FF000000FFC
3FF000000FFC
3FF000000FF8
1FF800001FF8
1FF800001FF8
1FFC00003FF8
0FFE00007FF0
0FFF0001FFF0
07FFC007FFE0
07FFFFFFFFC0
03FFFFFFFFC0
01FFFFFFFF80
00FFFFFFFF00
003FFFFFFC00
00FFFFFFFF00
01FFFFFFFF80
03FFFFFFFFC0
07FFFFFFFFE0
0FFFF00FFFF0
0FFF8001FFF0
1FFE00007FF8
3FFC00003FF8
3FF800001FFC
3FF000000FFC
7FE000000FFE
7FE0000007FE
7FE0000007FE
FFC0000003FE
FFC0000003FF
FFC0000003FF
FFC0000003FF
FFC0000003FF
FFC0000003FF
FFC0000003FF
FFC0000003FF
FFC0000003FF
FFC0000003FE
7FC0000007FE
7FE0000007FE
7FE0000007FE
7FF000000FFC
3FF000001FFC
3FF800003FFC
1FFC00007FF8
1FFF0000FFF8
0FFFC003FFF0
07FFFFFFFFE0
07FFFFFFFFC0
03FFFFFFFF80
01FFFFFFFF00
007FFFFFFE00
003FFFFFFC00
000FFFFFF000
0001FFFF8000
00003FF80000
ENDCHAR
STARTCHAR 0039
ENCODING 57
SWIDTH 621 0
DWIDTH 63 0
BBX 50 76 6 -2
BITMAP
00000FFC000000
0000FFFFC00000
0003FFFFF00000
000FFFFFFC0000
001FFFFFFE0000
007FFFFFFF8000
00FFFFFFFFC000
01FFFFFFFFE000
03FFFFFFFFF000
07FFF003FFF800
0FFFC000FFF800
0FFF00003FFC00
1FFE00001FFE00
1FFC00000FFE00
3FF8000007FF00
3FF0000003FF00
7FE0000003FF00
7FE0000001FF80
7FC0000000FF80
7FC0000000FF80
FFC0000000FF80
FF80000000FFC0
FF800000007FC0
FF800000007FC0
FF800000007FC0
FF800000007FC0
FF80000000FFC0
FFC0000000FFC0
FFC0000000FFC0
7FC0000000FFC0
7FC0000001FFC0
7FE0000001FFC0
7FF0000003FFC0
3FF0000003FFC0
3FF8000007FFC0
1FFC00000FFFC0
1FFE00001FFFC0
0FFF00007FFFC0
0FFFC000FFFFC0
07FFF807FFFFC0
03FFFFFFFFFFC0
01FFFFFFFF7FC0
00FFFFFFFE7FC0
007FFFFFFC7FC0
001FFFFFF07FC0
000FFFFFE07FC0
0003FFFF807FC0
00003FFC007FC0
00000000007FC0
00000000007FC0
00000000007FC0
00000000007FC0
00000000007FC0
0000000000FFC0
0000000000FF80
0000000000FF80
0000000000FF80
0000000001FF80
0000000001FF80
0000000003FF00
0000000003FF00
0030000007FE00
007800000FFE00
01FC00001FFC00
03FE00003FFC00
07FF8000FFF800
0FFFE003FFF800
07FFFFFFFFF000
03FFFFFFFFE000
01FFFFFFFFC000
00FFFFFFFF8000
007FFFFFFE0000
001FFFFFFC0000
0007FFFFF00000
0001FFFF800000
00001FFC000000
ENDCHAR
STARTCHAR 003A
ENCODING 58
SWIDTH 315 0
DWIDTH 32 0
BBX 10 39 11 8
BITMAP
FFC0
FFC0
FFC0
FFC0
FFC0
FFC0
FFC0
FFC0
FFC0
FFC0
0000
0000
0000
0000
0000
0000
0000
0000
0000
0000
0000
0000
0000
0000
0000
0000
0000
0000
0000
FFC0
FFC0
FFC0
FFC0
FFC0
FFC0
FFC0
FFC0
FFC0
FFC0
ENDCHAR
STARTCHAR 003B
ENCODING 59
SWIDTH 315 0
DWIDTH 32 0
BBX 10 66 11 -12
BITMAP
FFC0
FFC0
FFC0
FFC0
FFC0
FFC0
FFC0
FFC0
FFC0
FFC0
0000
0000
0000
0000
0000
0000
0000
0000
0000
0000
0000
0000
0000
0000
0000
0000
0000
0000
0000
0000
0000
0000
0000
0000
0000
0000
0000
0000
0000
0000
0000
0000
0000
0000
FFC0
FFC0
FFC0
FFC0
FFC0
FFC0
FFC0
FFC0
FFC0
FFC0
FFC0
07C0
07C0
07C0
07C0
07C0
0FC0
1F80
7F80
7F00
FE00
FC00
ENDCHAR
STARTCHAR 003C
ENCODING 60
SWIDTH 621 0
DWIDTH 63 0
BBX 29 48 15 8
BITMAP
00000100
00000380
000007C0
00000FE0
00001FF0
00003FF8
00007FF0
0000FFE0
0001FFC0
0003FF80
0007FF00
000FFE00
001FFC00
003FF800
007FF000
00FFE000
01FFC000
03FF8000
07FF0000
0FFE0000
1FFC0000
3FF80000
7FF00000
FFE00000
FFE00000
7FF00000
3FF80000
1FFC0000
0FFE0000
07FF0000
03FF8000
01FFC000
00FFE000
007FF000
003FF800
001FFC00
000FFE00
0007FF00
0003FF80
0001FFC0
0000FFE0
00007FF0
00003FF8
00001FF0
00000FE0
000007C0
00000380
00000100
ENDCHAR
STARTCHAR 003D
ENCODING 61
SWIDTH 749 0
DWIDTH 76 0
BBX 52 25 12 24
BITMAP
FFFFFFFFFFFFF0
FFFFFFFFFFFFF0
FFFFFFFFFFFFF0
FFFFFFFFFFFFF0
FFFFFFFFFFFFF0
FFFFFFFFFFFFF0
FFFFFFFFFFFFF0
00000000000000
00000000000000
00000000000000
00000000000000
00000000000000
00000000000000
00000000000000
00000000000000
00000000000000
00000000000000
00000000000000
FFFFFFFFFFFFF0
FFFFFFFFFFFFF0
FFFFFFFFFFFFF0
FFFFFFFFFFFFF0
FFFFFFFFFFFFF0
FFFFFFFFFFFFF0
FFFFFFFFFFFFF0
ENDCHAR
STARTCHAR 003E
ENCODING 62
SWIDTH 621 0
DWIDTH 63 0
BBX 29 48 19 8
BITMAP
04000000
0E000000
1F000000
3F800000
7FC00000
FFE00000
7FF00000
3FF80000
1FFC0000
0FFE0000
07FF0000
03FF8000
01FFC000
00FFE000
007FF000
003FF800
001FFC00
000FFE00
0007FF00
0003FF80
0001FFC0
0000FFE0
00007FF0
00003FF8
00003FF8
00007FF0
0000FFE0
0001FFC0
0003FF80
0007FF00
000FFE00
001FFC00
003FF800
007FF000
00FFE000
01FFC000
03FF8000
07FF0000
0FFE0000
1FFC0000
3FF80000
7FF00000
FFE00000
7FC00000
3F800000
1F000000
0E000000
04000000
ENDCHAR
STARTCHAR 003F
ENCODING 63
SWIDTH 532 0
DWIDTH 54 0
BBX 44 74 5 0
BITMAP
00007FE00000
0007FFFE0000
001FFFFFC000
007FFFFFE000
00FFFFFFF800
03FFFFFFFC00
07FFFFFFFE00
07FFFFFFFF00
0FFFFFFFFF80
1FFF000FFF80
1FFC0003FFC0
3FF80001FFC0
3FF00000FFE0
7FE000007FE0
7FE000007FE0
7FC000003FF0
FFC000003FF0
FFC000003FF0
FFC000003FF0
FF8000003FF0
000000003FF0
000000003FF0
000000003FF0
000000003FF0
000000003FE0
000000007FE0
000000007FE0
00000000FFC0
00000000FFC0
00000001FF80
00000003FF80
00000007FF00
0000001FFF00
0000003FFE00
0000007FFC00
000000FFF800
000003FFF000
000007FFE000
00000FFFC000
00000FFF0000
00001FFE0000
00001FFC0000
00003FF80000
00003FF00000
00007FE00000
00007FE00000
00007FC00000
0000FFC00000
0000FFC00000
0000FFC00000
0000FFC00000
0000FFC00000
0000FFC00000
0000FFC00000
000000000000
000000000000
000000000000
000000000000
000000000000
000000000000
000000000000
000000000000
000000000000
0000FFC00000
0000FFC00000
0000FFC00000
0000FFC00000
0000FFC00000
0000FFC00000
0000FFC00000
0000FFC00000
0000FFC00000
0000FFC00000
0000FFC00000
ENDCHAR
STARTCHAR 0040
ENCODING 64
SWIDTH 907 0
DWIDTH 92 0
BBX 76 75 8 -10
BITMAP
00000007FFFF00000000
0000007FFFFFF0000000
000003FFFFFFFE000000
00000FFFFFFFFF800000
00003FFFFFFFFFE00000
00007FFFFFFFFFF00000
0001FFFFFFFFFFFC0000
0003FFFF800FFFFE0000
000FFFF000007FFF0000
001FFF8000000FFFC000
003FFE00000003FFE000
007FF800000000FFE000
007FF0000000007FF000
00FFE0000000003FF800
01FF80000000000FFC00
03FF000000000007FC00
03FE000000000003FE00
07FE000000000003FF00
07FC000000000001FF00
0FF8000000000000FF80
0FF8000000000000FF80
1FF00000000000007F80
1FE00001FFE000007FC0
3FE00007FFF9F8003FC0
3FE0001FFFFFF8003FC0
3FC0003FFFFFF8003FE0
3FC0007FFFFFF8001FE0
7F8000FFFFFFF8001FE0
7F8001FFFFFFF8001FE0
7F8001FFC07FF8001FE0
7F8003FF001FF8001FF0
7F8003FE000FF8000FF0
FF0007FC0007F8000FF0
FF0007F80007F8000FF0
FF0007F80003F8000FF0
FF0007F80003F8000FF0
FF0007F00003F8000FF0
FF000FF00003F8000FF0
FF000FF00003F8000FF0
FF000FF00003F8000FF0
FF0007F80003F8001FE0
FF0007F80003F8001FE0
FF0007F80007F8001FE0
FF8007F80007FC001FE0
7F8007FC000FFC003FE0
7F8003FE001FFC003FC0
7F8003FF803FFE007FC0
7F8001FFFBFFFF00FFC0
7FC001FFFFFFFFFFFF80
3FC000FFFFFFFFFFFF00
3FE0007FFFFFFFFFFF00
3FE0003FFFFE7FFFFE00
1FE0001FFFFC3FFFFC00
1FF00007FFF01FFFF800
0FF80000FFC007FFE000
0FF80000000000FF0000
0FFC0000000000000000
07FE0000000000000000
03FF0000000000000000
03FF0000000000000000
01FFC000000000000000
00FFE000000000000000
007FF000000000000000
007FFC00000000000000
003FFE00000000000000
001FFF8000001C000000
0007FFF00000FC000000
0003FFFF000FFE000000
0001FFFFFFFFFE000000
00007FFFFFFFFE000000
00003FFFFFFFFF000000
00000FFFFFFFFE000000
000003FFFFFFF8000000
0000007FFFFFE0000000
00000007FFFE00000000
ENDCHAR
STARTCHAR 0041
ENCODING 65
SWIDTH 650 0
DWIDTH 66 0
BBX 61 73 2 0
BITMAP
000000FFF8000000
000000FFFC000000
000000FFFC000000
000001FFFC000000
000001FFFE000000
000001FFFE000000
000003FFFE000000
000003FFFF000000
000003FFFF000000
000007FFFF000000
000007FDFF800000
000007FDFF800000
00000FFCFF800000
00000FF8FFC00000
00000FF8FFC00000
00001FF87FC00000
00001FF07FE00000
00001FF07FE00000
00003FF03FE00000
00003FE03FF00000
00003FE03FF00000
00007FE01FF00000
00007FC01FF80000
00007FC01FF80000
0000FFC00FF80000
0000FF800FFC0000
0000FF800FFC0000
0001FF8007FC0000
0001FF0007FE0000
0001FF0007FE0000
0003FF0003FE0000
0003FE0003FF0000
0003FE0003FF0000
0007FE0001FF0000
0007FC0001FF8000
0007FC0001FF8000
000FFC0000FF8000
000FF80000FFC000
000FF80000FFC000
001FF800007FC000
001FF000007FE000
001FF000007FE000
003FF000003FE000
003FE000003FF000
003FE000003FF000
007FE000001FF000
007FC000001FF800
007FC000001FF800
00FFFFFFFFFFF800
00FFFFFFFFFFFC00
00FFFFFFFFFFFC00
01FFFFFFFFFFFC00
01FFFFFFFFFFFE00
01FFFFFFFFFFFE00
03FFFFFFFFFFFE00
03FFFFFFFFFFFF00
03FE00000003FF00
07FE00000001FF00
07FC00000001FF80
07FC00000001FF80
0FFC00000000FF80
0FF800000000FFC0
0FF800000000FFC0
1FF8000000007FC0
1FF0000000007FE0
1FF0000000003FE0
3FF0000000003FE0
3FE0000000003FF0
3FE0000000001FF0
7FE0000000001FF0
7FC0000000001FF8
7FC0000000000FF8
FFC0000000000FF8
ENDCHAR
STARTCHAR 0042
ENCODING 66
SWIDTH 621 0
DWIDTH 63 0
BBX 53 73 7 0
BITMAP
FFFFFFFFC00000
FFFFFFFFF80000
FFFFFFFFFE0000
FFFFFFFFFF8000
FFFFFFFFFFC000
FFFFFFFFFFE000
FFFFFFFFFFF000
FFFFFFFFFFF800
FFFFFFFFFFFC00
FF8000003FFE00
FF8000001FFE00
FF80000007FF00
FF80000003FF00
FF80000003FF00
FF80000001FF80
FF80000001FF80
FF80000000FF80
FF80000000FF80
FF80000000FF80
FF80000000FF80
FF80000000FF80
FF80000000FF80
FF80000000FF80
FF80000001FF80
FF80000001FF80
FF80000003FF00
FF80000007FF00
FF80000007FE00
FF8000001FFE00
FF8000007FFC00
FFFFFFFFFFFC00
FFFFFFFFFFF800
FFFFFFFFFFF000
FFFFFFFFFFC000
FFFFFFFFFF8000
FFFFFFFFFFE000
FFFFFFFFFFF800
FFFFFFFFFFFC00
FFFFFFFFFFFE00
FF8000003FFF00
FF80000007FF80
FF80000003FFC0
FF80000000FFC0
FF80000000FFE0
FF800000007FE0
FF800000003FF0
FF800000003FF0
FF800000001FF0
FF800000001FF0
FF800000001FF8
FF800000001FF8
FF800000001FF8
FF800000001FF8
FF800000001FF8
FF800000001FF8
FF800000001FF8
FF800000001FF0
FF800000003FF0
FF800000003FF0
FF800000007FF0
FF80000000FFE0
FF80000001FFE0
FF80000007FFC0
FF8000001FFFC0
FFFFFFFFFFFF80
FFFFFFFFFFFF80
FFFFFFFFFFFF00
FFFFFFFFFFFE00
FFFFFFFFFFFC00
FFFFFFFFFFF000
FFFFFFFFFFE000
FFFFFFFFFF0000
FFFFFFFFF80000
ENDCHAR
STARTCHAR 0043
ENCODING 67
SWIDTH 720 0
DWIDTH 73 0
BBX 66 77 3 -2
BITMAP
0000000FFF80000000
000001FFFFF8000000
00000FFFFFFF000000
00003FFFFFFFC00000
0000FFFFFFFFF00000
0001FFFFFFFFFC0000
0007FFFFFFFFFE0000
000FFFFFFFFFFF0000
001FFFFFFFFFFF8000
003FFFE0007FFFC000
007FFF00000FFFE000
00FFFC000003FFF000
01FFF0000000FFF800
01FFE00000007FF800
03FFC00000003FFC00
07FF800000001FFE00
07FF000000000FFE00
0FFE0000000007FF00
0FFE0000000003FF00
1FFC0000000003FF80
1FF80000000001FF80
1FF80000000001FF80
3FF00000000000FFC0
3FF00000000000FFC0
3FF00000000000FF80
7FE000000000007800
7FE000000000000000
7FE000000000000000
7FE000000000000000
7FC000000000000000
7FC000000000000000
FFC000000000000000
FFC000000000000000
FFC000000000000000
FFC000000000000000
FFC000000000000000
FFC000000000000000
FFC000000000000000
FFC000000000000000
FFC000000000000000
FFC000000000000000
FFC000000000000000
FFC000000000000000
FFC000000000000000
FFC000000000000000
FFC000000000000000
7FC000000000000000
7FC000000000000000
7FE000000000000000
7FE000000000000000
7FE000000000000000
7FE000000000007800
3FF00000000000FF00
3FF00000000000FFC0
3FF00000000000FFC0
1FF80000000001FF80
1FF80000000001FF80
1FFC0000000003FF80
0FFC0000000003FF00
0FFE0000000007FF00
07FF000000000FFE00
07FF800000001FFE00
03FFC00000003FFC00
01FFE00000007FF800
01FFF0000000FFF800
00FFFC000003FFF000
007FFF00000FFFE000
003FFFE0007FFFC000
001FFFFFFFFFFF8000
000FFFFFFFFFFF0000
0007FFFFFFFFFE0000
0001FFFFFFFFFC0000
0000FFFFFFFFF00000
00003FFFFFFFC00000
00000FFFFFFF000000
000001FFFFF8000000
0000000FFF80000000
ENDCHAR
STARTCHAR 0044
ENCODING 68
SWIDTH 680 0
DWIDTH 69 0
BBX 57 73 7 0
BITMAP
FFFFFFFF00000000
FFFFFFFFF8000000
FFFFFFFFFE000000
FFFFFFFFFF800000
FFFFFFFFFFE00000
FFFFFFFFFFF80000
FFFFFFFFFFFC0000
FFFFFFFFFFFE0000
FFFFFFFFFFFF0000
FF800000FFFF8000
FF8000001FFFC000
FF80000007FFC000
FF80000001FFE000
FF80000000FFF000
FF800000007FF000
FF800000003FF800
FF800000001FF800
FF800000001FFC00
FF800000000FFC00
FF800000000FFE00
FF8000000007FE00
FF8000000007FE00
FF8000000003FF00
FF8000000003FF00
FF8000000003FF00
FF8000000001FF00
FF8000000001FF80
FF8000000001FF80
FF8000000001FF80
FF8000000001FF80
FF8000000001FF80
FF8000000000FF80
FF8000000000FF80
FF8000000000FF80
FF8000000000FF80
FF8000000000FF80
FF8000000000FF80
FF8000000000FF80
FF8000000000FF80
FF8000000000FF80
FF8000000000FF80
FF8000000000FF80
FF8000000000FF80
FF8000000001FF80
FF8000000001FF80
FF8000000001FF80
FF8000000001FF80
FF8000000001FF00
FF8000000003FF00
FF8000000003FF00
FF8000000003FF00
FF8000000007FE00
FF8000000007FE00
FF800000000FFE00
FF800000000FFC00
FF800000001FFC00
FF800000001FF800
FF800000003FF800
FF800000007FF000
FF80000000FFF000
FF80000001FFE000
FF80000007FFC000
FF8000001FFFC000
FF800000FFFF8000
FFFFFFFFFFFF0000
FFFFFFFFFFFE0000
FFFFFFFFFFFC0000
FFFFFFFFFFF80000
FFFFFFFFFFE00000
FFFFFFFFFF800000
FFFFFFFFFE000000
FFFFFFFFF8000000
FFFFFFFF00000000
ENDCHAR
STARTCHAR 0045
ENCODING 69
SWIDTH 572 0
DWIDTH 58 0
BBX 46 73 7 0
BITMAP
FFFFFFFFFFFC
FFFFFFFFFFFC
FFFFFFFFFFFC
FFFFFFFFFFFC
FFFFFFFFFFFC
FFFFFFFFFFFC
FFFFFFFFFFFC
FFFFFFFFFFFC
FFFFFFFFFFFC
FF8000000000
FF8000000000
FF8000000000
FF8000000000
FF8000000000
FF8000000000
FF8000000000
FF8000000000
FF8000000000
FF8000000000
FF8000000000
FF8000000000
FF8000000000
FF8000000000
FF8000000000
FF8000000000
FF8000000000
FF8000000000
FF8000000000
FF8000000000
FF8000000000
FF8000000000
FFFFFFFFFF00
FFFFFFFFFF00
FFFFFFFFFF00
FFFFFFFFFF00
FFFFFFFFFF00
FFFFFFFFFF00
FFFFFFFFFF00
FFFFFFFFFF00
FFFFFFFFFF00
FF8000000000
FF8000000000
FF8000000000
FF8000000000
FF8000000000
FF8000000000
FF8000000000
FF8000000000
FF8000000000
FF8000000000
FF8000000000
FF8000000000
FF8000000000
FF8000000000
FF8000000000
FF8000000000
FF8000000000
FF8000000000
FF8000000000
FF8000000000
FF8000000000
FF8000000000
FF8000000000
FF8000000000
FFFFFFFFFFFC
FFFFFFFFFFFC
FFFFFFFFFFFC
FFFFFFFFFFFC
FFFFFFFFFFFC
FFFFFFFFFFFC
FFFFFFFFFFFC
FFFFFFFFFFFC
FFFFFFFFFFFC
ENDCHAR
STARTCHAR 0046
ENCODING 70
SWIDTH 512 0
DWIDTH 52 0
BBX 43 73 7 0
BITMAP
FFFFFFFFFFE0
FFFFFFFFFFE0
FFFFFFFFFFE0
FFFFFFFFFFE0
FFFFFFFFFFE0
FFFFFFFFFFE0
FFFFFFFFFFE0
FFFFFFFFFFE0
FFFFFFFFFFE0
FF8000000000
FF8000000000
FF8000000000
FF8000000000
FF8000000000
FF8000000000
FF8000000000
FF8000000000
FF8000000000
FF8000000000
FF8000000000
FF8000000000
FF8000000000
FF8000000000
FF8000000000
FF8000000000
FF8000000000
FF8000000000
FF8000000000
FF8000000000
FF8000000000
FF8000000000
FF8000000000
FFFFFFFFF800
FFFFFFFFF800
FFFFFFFFF800
FFFFFFFFF800
FFFFFFFFF800
FFFFFFFFF800
FFFFFFFFF800
FFFFFFFFF800
FFFFFFFFF800
FF8000000000
FF8000000000
FF8000000000
FF8000000000
FF8000000000
FF8000000000
FF8000000000
FF8000000000
FF8000000000
FF8000000000
FF8000000000
FF8000000000
FF8000000000
FF8000000000
FF8000000000
FF8000000000
FF8000000000
FF8000000000
FF8000000000
FF8000000000
FF8000000000
FF8000000000
FF8000000000
FF8000000000
FF8000000000
FF8000000000
FF8000000000
FF8000000000
FF8000000000
FF8000000000
FF8000000000
FF8000000000
ENDCHAR
STARTCHAR 0047
ENCODING 71
SWIDTH 710 0
DWIDTH 72 0
BBX 66 76 3 -2
BITMAP
0000001FFF00000000
000001FFFFF8000000
00000FFFFFFF000000
00003FFFFFFFC00000
0000FFFFFFFFF00000
0001FFFFFFFFF80000
0007FFFFFFFFFC0000
000FFFFFFFFFFE0000
001FFFFFFFFFFF8000
003FFFE000FFFF8000
007FFF00001FFFC000
00FFFC000007FFE000
01FFF0000001FFF000
01FFE0000000FFF000
03FFC00000007FF800
07FF800000003FF800
07FF000000001FFC00
0FFE000000000FFC00
0FFE000000000FFE00
1FFC0000000007FE00
1FF80000000007FE00
1FF80000000003FE00
3FF00000000003C000
3FF000000000000000
3FF000000000000000
7FE000000000000000
7FE000000000000000
7FE000000000000000
7FE000000000000000
7FC000000000000000
FFC000000000000000
FFC000000000000000
FFC000000000000000
FFC000000000000000
FFC000000000000000
FFC000000000000000
FFC000000000000000
FFC00000007FFFFFC0
FFC00000007FFFFFC0
FFC00000007FFFFFC0
FFC00000007FFFFFC0
FFC00000007FFFFFC0
FFC00000007FFFFFC0
FFC00000007FFFFFC0
FFC000000000007FC0
FFC00000000000FFC0
7FC00000000000FFC0
7FC00000000000FFC0
7FE00000000000FFC0
7FE00000000000FFC0
7FE00000000000FF80
3FF00000000001FF80
3FF00000000001FF80
3FF00000000001FF80
1FF80000000003FF00
1FF80000000003FF00
1FFC0000000003FF00
0FFC0000000007FE00
0FFE000000000FFE00
07FF000000000FFC00
07FF800000001FFC00
03FFC00000003FF800
01FFE00000007FF800
01FFF0000000FFF000
00FFFC000003FFE000
007FFF00000FFFE000
003FFFE0007FFFC000
001FFFFFFFFFFF8000
000FFFFFFFFFFF0000
0007FFFFFFFFFC0000
0001FFFFFFFFF80000
0000FFFFFFFFF00000
00003FFFFFFFC00000
00000FFFFFFF000000
000001FFFFF8000000
0000001FFF00000000
ENDCHAR
STARTCHAR 0048
ENCODING 72
SWIDTH 700 0
DWIDTH 71 0
BBX 57 73 7 0
BITMAP
FF8000000000FF80
FF8000000000FF80
FF8000000000FF80
FF8000000000FF80
FF8000000000FF80
FF8000000000FF80
FF8000000000FF80
FF8000000000FF80
FF8000000000FF80
FF8000000000FF80
FF8000000000FF80
FF8000000000FF80
FF8000000000FF80
FF8000000000FF80
FF8000000000FF80
FF8000000000FF80
FF8000000000FF80
FF8000000000FF80
FF8000000000FF80
FF8000000000FF80
FF8000000000FF80
FF8000000000FF80
FF8000000000FF80
FF8000000000FF80
FF8000000000FF80
FF8000000000FF80
FF8000000000FF80
FF8000000000FF80
FF8000000000FF80
FF8000000000FF80
FF8000000000FF80
FF8000000000FF80
FFFFFFFFFFFFFF80
FFFFFFFFFFFFFF80
FFFFFFFFFFFFFF80
FFFFFFFFFFFFFF80
FFFFFFFFFFFFFF80
FFFFFFFFFFFFFF80
FFFFFFFFFFFFFF80
FFFFFFFFFFFFFF80
FFFFFFFFFFFFFF80
FF8000000000FF80
FF8000000000FF80
FF8000000000FF80
FF8000000000FF80
FF8000000000FF80
FF8000000000FF80
FF8000000000FF80
FF8000000000FF80
FF8000000000FF80
FF8000000000FF80
FF8000000000FF80
FF8000000000FF80
FF8000000000FF80
FF8000000000FF80
FF8000000000FF80
FF8000000000FF80
FF8000000000FF80
FF8000000000FF80
FF8000000000FF80
FF8000000000FF80
FF8000000000FF80
FF8000000000FF80
FF8000000000FF80
FF8000000000FF80
FF8000000000FF80
FF8000000000FF80
FF8000000000FF80
FF8000000000FF80
FF8000000000FF80
FF8000000000FF80
FF8000000000FF80
FF8000000000FF80
ENDCHAR
STARTCHAR 0049
ENCODING 73
SWIDTH 246 0
DWIDTH 25 0
BBX 9 73 8 0
BITMAP
FF80
FF80
FF80
FF80
FF80
FF80
FF80
FF80
FF80
FF80
FF80
FF80
FF80
FF80
FF80
FF80
FF80
FF80
FF80
FF80
FF80
FF80
FF80
FF80
FF80
FF80
FF80
FF80
FF80
FF80
FF80
FF80
FF80
FF80
FF80
FF80
FF80
FF80
FF80
FF80
FF80
FF80
FF80
FF80
FF80
FF80
FF80
FF80
FF80
FF80
FF80
FF80
FF80
FF80
FF80
FF80
FF80
FF80
FF80
FF80
FF80
FF80
FF80
FF80
FF80
FF80
FF80
FF80
FF80
FF80
FF80
FF80
FF80
ENDCHAR
STARTCHAR 004A
ENCODING 74
SWIDTH 473 0
DWIDTH 48 0
BBX 40 74 0 -1
BITMAP
00000001FF
00000001FF
00000001FF
00000001FF
00000001FF
00000001FF
00000001FF
00000001FF
00000001FF
00000001FF
00000001FF
00000001FF
00000001FF
00000001FF
00000001FF
00000001FF
00000001FF
00000001FF
00000001FF
00000001FF
00000001FF
00000001FF
00000001FF
00000001FF
00000001FF
00000001FF
00000001FF
00000001FF
00000001FF
00000001FF
00000001FF
00000001FF
00000001FF
00000001FF
00000001FF
00000001FF
00000001FF
00000001FF
00000001FF
00000001FF
00000001FF
00000001FF
00000001FF
00000001FF
00000001FF
00000001FF
00000001FF
00000001FF
00000001FF
00000001FF
00000001FF
00000001FF
00000001FF
00000001FF
00000001FF
00000001FF
00000001FF
07800003FF
7FC00003FF
FFC00003FF
7FE00007FE
7FE00007FE
7FF0000FFE
3FFC003FFC
3FFF007FFC
1FFFFFFFF8
0FFFFFFFF0
07FFFFFFF0
03FFFFFFE0
01FFFFFFC0
00FFFFFF00
003FFFFE00
000FFFF800
0001FF8000
ENDCHAR
STARTCHAR 004B
ENCODING 75
SWIDTH 611 0
DWIDTH 62 0
BBX 55 73 7 0
BITMAP
FF800000007FF0
FF80000000FFE0
FF80000001FFC0
FF80000003FF80
FF80000007FF00
FF8000000FFE00
FF8000001FFC00
FF8000003FF800
FF8000007FF000
FF800000FFF000
FF800001FFE000
FF800003FFC000
FF800007FF8000
FF80000FFF0000
FF80000FFE0000
FF80001FFC0000
FF80003FF80000
FF80007FF00000
FF8000FFE00000
FF8001FFC00000
FF8003FF800000
FF8007FF000000
FF800FFE000000
FF801FFC000000
FF803FFC000000
FF807FF8000000
FF80FFF0000000
FF81FFE0000000
FF83FFC0000000
FF83FF80000000
FF87FF00000000
FF8FFE00000000
FF9FFC00000000
FFBFF800000000
FFFFF000000000
FFFFE000000000
FFFFF000000000
FFFFF800000000
FFBFFC00000000
FF9FFE00000000
FF8FFF00000000
FF87FF80000000
FF83FFC0000000
FF81FFE0000000
FF80FFF0000000
FF807FF8000000
FF803FFC000000
FF801FFE000000
FF800FFF000000
FF8007FF800000
FF8003FFC00000
FF8001FFE00000
FF8000FFE00000
FF80007FF00000
FF80003FF80000
FF80001FFC0000
FF80001FFE0000
FF80000FFF0000
FF800007FF8000
FF800003FFC000
FF800001FFE000
FF800000FFF000
FF8000007FF800
FF8000003FFC00
FF8000001FFE00
FF8000000FFF00
FF80000007FF80
FF80000003FFC0
FF80000001FFE0
FF80000000FFF0
FF800000007FF8
FF800000003FFC
FF800000001FFE
ENDCHAR
STARTCHAR 004C
ENCODING 76
SWIDTH 522 0
DWIDTH 53 0
BBX 43 73 8 0
BITMAP
FF8000000000
FF8000000000
FF8000000000
FF8000000000
FF8000000000
FF8000000000
FF8000000000
FF8000000000
FF8000000000
FF8000000000
FF8000000000
FF8000000000
FF8000000000
FF8000000000
FF8000000000
FF8000000000
FF8000000000
FF8000000000
FF8000000000
FF8000000000
FF8000000000
FF8000000000
FF8000000000
FF8000000000
FF8000000000
FF8000000000
FF8000000000
FF8000000000
FF8000000000
FF8000000000
FF8000000000
FF8000000000
FF8000000000
FF8000000000
FF8000000000
FF8000000000
FF8000000000
FF8000000000
FF8000000000
FF8000000000
FF8000000000
FF8000000000
FF8000000000
FF8000000000
FF8000000000
FF8000000000
FF8000000000
FF8000000000
FF8000000000
FF8000000000
FF8000000000
FF8000000000
FF8000000000
FF8000000000
FF8000000000
FF8000000000
FF8000000000
FF8000000000
FF8000000000
FF8000000000
FF8000000000
FF8000000000
FF8000000000
FF8000000000
FFFFFFFFFFE0
FFFFFFFFFFE0
FFFFFFFFFFE0
FFFFFFFFFFE0
FFFFFFFFFFE0
FFFFFFFFFFE0
FFFFFFFFFFE0
FFFFFFFFFFE0
FFFFFFFFFFE0
ENDCHAR
STARTCHAR 004D
ENCODING 77
SWIDTH 848 0
DWIDTH 86 0
BBX 72 73 7 0
BITMAP
FF80000000000001FF
FF80000000000001FF
FF80000000000003FF
FFC0000000000003FF
FFC0000000000007FF
FFE0000000000007FF
FFE000000000000FFF
FFF000000000000FFF
FFF000000000001FFF
FFF800000000001FFF
FFF800000000003FFF
FFFC00000000003FFF
FFFC00000000007FFF
FFFE00000000007FFF
FFFE0000000000FFFF
FFFF0000000000FFFF
FFFF0000000000FFFF
FFFF8000000001FFFF
FFFF8000000001FFFF
FFFFC000000003FFFF
FFFFC000000003FFFF
FFFFE000000007FDFF
FFBFE000000007FDFF
FFBFE00000000FF9FF
FF9FF00000000FF9FF
FF9FF00000001FF1FF
FF8FF80000001FF1FF
FF8FF80000003FE1FF
FF87FC0000003FE1FF
FF87FC0000007FE1FF
FF83FE0000007FC1FF
FF83FE000000FFC1FF
FF81FF000000FF81FF
FF81FF000000FF81FF
FF81FF800001FF01FF
FF80FF800001FF01FF
FF80FFC00003FE01FF
FF807FC00003FE01FF
FF807FE00007FC01FF
FF803FE00007FC01FF
FF803FF0000FF801FF
FF801FF0000FF801FF
FF801FF0001FF001FF
FF800FF8001FF001FF
FF800FF8003FF001FF
FF8007FC003FE001FF
FF8007FC007FE001FF
FF8003FE007FC001FF
FF8003FE00FFC001FF
FF8003FF00FF8001FF
FF8001FF01FF8001FF
FF8001FF81FF0001FF
FF8000FF81FF0001FF
FF8000FFC3FE0001FF
FF80007FC3FE0001FF
FF80007FE7FC0001FF
FF80003FE7FC0001FF
FF80003FFFF80001FF
FF80001FFFF80001FF
FF80001FFFF80001FF
FF80000FFFF00001FF
FF80000FFFF00001FF
FF800007FFE00001FF
FF800007FFE00001FF
FF800007FFC00001FF
FF800003FFC00001FF
FF800003FF800001FF
FF800001FF800001FF
FF800001FF000001FF
FF800000FF000001FF
FF800000FE000001FF
FF8000007E000001FF
FF8000007E000001FF
ENDCHAR
STARTCHAR 004E
ENCODING 78
SWIDTH 700 0
DWIDTH 71 0
BBX 56 73 7 0
BITMAP
FFC000000001FF
FFC000000001FF
FFE000000001FF
FFF000000001FF
FFF000000001FF
FFF800000001FF
FFFC00000001FF
FFFC00000001FF
FFFE00000001FF
FFFF00000001FF
FFFF00000001FF
FFFF80000001FF
FFFFC0000001FF
FFFFC0000001FF
FFFFE0000001FF
FFFFF0000001FF
FFBFF0000001FF
FFBFF8000001FF
FF9FFC000001FF
FF8FFC000001FF
FF8FFE000001FF
FF87FF000001FF
FF83FF000001FF
FF83FF800001FF
FF81FFC00001FF
FF80FFC00001FF
FF80FFE00001FF
FF807FF00001FF
FF803FF00001FF
FF803FF80001FF
FF801FFC0001FF
FF800FFC0001FF
FF800FFE0001FF
FF8007FF0001FF
FF8003FF0001FF
FF8003FF8001FF
FF8001FFC001FF
FF8000FFC001FF
FF8000FFE001FF
FF80007FF001FF
FF80003FF001FF
FF80003FF801FF
FF80001FFC01FF
FF80000FFC01FF
FF80000FFE01FF
FF800007FF01FF
FF800003FF01FF
FF800003FF81FF
FF800001FFC1FF
FF800000FFC1FF
FF800000FFE1FF
FF8000007FF1FF
FF8000003FF1FF
FF8000003FF9FF
FF8000001FFDFF
FF8000000FFDFF
FF8000000FFFFF
FF80000007FFFF
FF80000003FFFF
FF80000003FFFF
FF80000001FFFF
FF80000000FFFF
FF80000000FFFF
FF800000007FFF
FF800000003FFF
FF800000003FFF
FF800000001FFF
FF800000000FFF
FF800000000FFF
FF8000000007FF
FF8000000003FF
FF8000000003FF
FF8000000001FF
ENDCHAR
STARTCHAR 004F
ENCODING 79
SWIDTH 729 0
DWIDTH 74 0
BBX 68 77 3 -2
BITMAP
0000000FFF00000000
000001FFFFF8000000
00000FFFFFFF000000
00003FFFFFFFC00000
0000FFFFFFFFF00000
0001FFFFFFFFFC0000
0007FFFFFFFFFE0000
000FFFFFFFFFFF0000
001FFFFFFFFFFF8000
003FFFE0007FFFC000
007FFF00000FFFE000
00FFFC000003FFF000
01FFF0000000FFF800
01FFE00000007FF800
03FFC00000003FFC00
07FF800000001FFE00
07FF000000000FFE00
0FFE0000000007FF00
0FFE0000000003FF00
1FFC0000000003FF80
1FF80000000001FF80
1FF80000000001FF80
3FF80000000000FFC0
3FF00000000000FFC0
3FF00000000000FFC0
7FE000000000007FE0
7FE000000000007FE0
7FE000000000007FE0
7FE000000000003FE0
7FC000000000003FE0
7FC000000000003FF0
FFC000000000003FF0
FFC000000000003FF0
FFC000000000003FF0
FFC000000000003FF0
FFC000000000003FF0
FFC000000000001FF0
FFC000000000001FF0
FFC000000000001FF0
FFC000000000001FF0
FFC000000000001FF0
FFC000000000003FF0
FFC000000000003FF0
FFC000000000003FF0
FFC000000000003FF0
FFC000000000003FF0
7FC000000000003FF0
7FC000000000003FE0
7FE000000000003FE0
7FE000000000007FE0
7FE000000000007FE0
7FE000000000007FE0
3FF00000000000FFC0
3FF00000000000FFC0
3FF00000000000FFC0
1FF80000000001FF80
1FF80000000001FF80
1FFC0000000003FF80
0FFE0000000003FF00
0FFE0000000007FF00
07FF000000000FFE00
07FF800000001FFE00
03FFC00000003FFC00
01FFE00000007FF800
01FFF0000000FFF800
00FFFC000003FFF000
007FFF00000FFFE000
003FFFE0007FFFC000
001FFFFFFFFFFF8000
000FFFFFFFFFFF0000
0007FFFFFFFFFE0000
0001FFFFFFFFFC0000
0000FFFFFFFFF00000
00003FFFFFFFC00000
00000FFFFFFF000000
000001FFFFF8000000
0000000FFF80000000
ENDCHAR
STARTCHAR 0050
ENCODING 80
SWIDTH 611 0
DWIDTH 62 0
BBX 52 73 7 0
BITMAP
FFFFFFFFE00000
FFFFFFFFFE0000
FFFFFFFFFF8000
FFFFFFFFFFE000
FFFFFFFFFFF000
FFFFFFFFFFF800
FFFFFFFFFFFC00
FFFFFFFFFFFE00
FFFFFFFFFFFF00
FF8000001FFF80
FF80000007FF80
FF80000003FFC0
FF80000001FFC0
FF80000000FFE0
FF800000007FE0
FF800000007FE0
FF800000003FF0
FF800000003FF0
FF800000001FF0
FF800000001FF0
FF800000001FF0
FF800000001FF0
FF800000001FF0
FF800000001FF0
FF800000001FF0
FF800000001FF0
FF800000001FF0
FF800000001FF0
FF800000003FF0
FF800000003FF0
FF800000007FE0
FF800000007FE0
FF80000000FFE0
FF80000001FFC0
FF80000003FFC0
FF80000007FF80
FF8000001FFF80
FFFFFFFFFFFF00
FFFFFFFFFFFE00
FFFFFFFFFFFC00
FFFFFFFFFFF800
FFFFFFFFFFF000
FFFFFFFFFFE000
FFFFFFFFFF8000
FFFFFFFFFE0000
FFFFFFFFE00000
FF800000000000
FF800000000000
FF800000000000
FF800000000000
FF800000000000
FF800000000000
FF800000000000
FF800000000000
FF800000000000
FF800000000000
FF800000000000
FF800000000000
FF800000000000
FF800000000000
FF800000000000
FF800000000000
FF800000000000
FF800000000000
FF800000000000
FF800000000000
FF800000000000
FF800000000000
FF800000000000
FF800000000000
FF800000000000
FF800000000000
FF800000000000
ENDCHAR
STARTCHAR 0051
ENCODING 81
SWIDTH 729 0
DWIDTH 74 0
BBX 68 77 3 -2
BITMAP
0000000FFF00000000
000001FFFFF8000000
00000FFFFFFF000000
00003FFFFFFFC00000
0000FFFFFFFFF00000
0001FFFFFFFFFC0000
0007FFFFFFFFFE0000
000FFFFFFFFFFF0000
001FFFFFFFFFFF8000
003FFFE0007FFFC000
007FFF00000FFFE000
00FFFC000003FFF000
01FFF0000000FFF800
01FFE00000007FF800
03FFC00000003FFC00
07FF800000001FFE00
07FF000000000FFE00
0FFE0000000007FF00
0FFE0000000003FF00
1FFC0000000003FF80
1FF80000000001FF80
1FF80000000001FF80
3FF80000000000FFC0
3FF00000000000FFC0
3FF00000000000FFC0
7FE000000000007FE0
7FE000000000007FE0
7FE000000000007FE0
7FE000000000003FE0
7FC000000000003FE0
7FC000000000003FF0
FFC000000000003FF0
FFC000000000003FF0
FFC000000000003FF0
FFC000000000003FF0
FFC000000000003FF0
FFC000000000001FF0
FFC000000000001FF0
FFC000000000001FF0
FFC000000000001FF0
FFC000000000001FF0
FFC000000000003FF0
FFC000000000003FF0
FFC000000000003FF0
FFC000000000003FF0
FFC000000000003FF0
7FC000000000003FF0
7FC000000000003FE0
7FE000000000003FE0
7FE000000000007FE0
7FE000000000007FE0
7FE000000001007FE0
3FF00000000380FFC0
3FF000000007C0FFC0
3FF00000000FE0FFC0
1FF80000001FF1FF80
1FF80000003FF9FF80
1FFC0000003FFFFF80
0FFE0000001FFFFF00
0FFE0000000FFFFF00
07FF00000007FFFE00
07FF80000003FFFE00
03FFC0000001FFFC00
01FFE0000000FFF800
01FFF0000000FFF800
00FFFC000003FFFC00
007FFF00000FFFFE00
003FFFE0007FFFFF00
001FFFFFFFFFFFFF80
000FFFFFFFFFFFFFC0
0007FFFFFFFFFFFFE0
0001FFFFFFFFFCFFE0
0000FFFFFFFFF07FC0
00003FFFFFFFC03F80
00000FFFFFFF001F00
000001FFFFF8000E00
0000000FFF80000400
ENDCHAR
STARTCHAR 0052
ENCODING 82
SWIDTH 641 0
DWIDTH 65 0
BBX 54 73 7 0
BITMAP
FFFFFFFFE00000
FFFFFFFFFE0000
FFFFFFFFFF8000
FFFFFFFFFFE000
FFFFFFFFFFF000
FFFFFFFFFFF800
FFFFFFFFFFFC00
FFFFFFFFFFFE00
FFFFFFFFFFFF00
FF8000001FFF80
FF80000007FF80
FF80000003FFC0
FF80000001FFC0
FF80000000FFE0
FF800000007FE0
FF800000007FE0
FF800000003FF0
FF800000003FF0
FF800000001FF0
FF800000001FF0
FF800000001FF0
FF800000001FF0
FF800000001FF0
FF800000001FF0
FF800000001FF0
FF800000001FF0
FF800000001FF0
FF800000001FF0
FF800000003FF0
FF800000003FF0
FF800000007FE0
FF800000007FE0
FF80000000FFE0
FF80000001FFC0
FF80000003FFC0
FF80000007FF80
FF8000001FFF80
FFFFFFFFFFFF00
FFFFFFFFFFFE00
FFFFFFFFFFFC00
FFFFFFFFFFF800
FFFFFFFFFFF000
FFFFFFFFFFE000
FFFFFFFFFF8000
FFFFFFFFFF0000
FFFFFFFFFF8000
FF800001FF8000
FF800001FF8000
FF800000FFC000
FF800000FFC000
FF8000007FE000
FF8000007FE000
FF8000003FF000
FF8000003FF000
FF8000001FF800
FF8000001FF800
FF8000000FFC00
FF8000000FFC00
FF80000007FE00
FF80000007FE00
FF80000007FF00
FF80000003FF00
FF80000003FF80
FF80000001FF80
FF80000001FFC0
FF80000000FFC0
FF80000000FFE0
FF800000007FE0
FF800000007FF0
FF800000003FF0
FF800000003FF8
FF800000001FF8
FF800000001FFC
ENDCHAR
STARTCHAR 0053
ENCODING 83
SWIDTH 631 0
DWIDTH 64 0
BBX 56 76 4 -2
BITMAP
000003FFC00000
00007FFFFC0000
0001FFFFFF8000
0007FFFFFFE000
001FFFFFFFF800
003FFFFFFFFC00
00FFFFFFFFFE00
01FFFFFFFFFF00
03FFFFFFFFFF80
03FFF8003FFFC0
07FFE0000FFFE0
0FFF800003FFF0
0FFF000000FFF0
0FFE0000007FF8
1FFC0000003FFC
1FF80000001FFC
1FF80000000FFC
1FF00000000FFE
3FF000000007FE
3FF000000007FE
3FF000000003FF
3FF000000003FE
3FF00000000380
1FF80000000000
1FF80000000000
1FFC0000000000
1FFE0000000000
0FFF0000000000
0FFFC000000000
07FFF000000000
07FFFE00000000
03FFFFE0000000
01FFFFFC000000
00FFFFFFC00000
003FFFFFF80000
001FFFFFFF8000
0007FFFFFFF000
0000FFFFFFFC00
00001FFFFFFF00
000003FFFFFF80
0000007FFFFFC0
00000007FFFFE0
00000000FFFFF0
000000001FFFF8
0000000003FFFC
00000000007FFC
00000000001FFE
00000000000FFE
000000000007FF
000000000003FF
000000000003FF
000000000003FF
000000000001FF
0F8000000001FF
FF8000000001FF
FFC000000001FF
FFC000000001FF
FFE000000001FF
7FE000000003FF
7FF000000003FF
7FF800000007FE
3FFC00000007FE
3FFE0000000FFE
1FFF0000001FFC
0FFFC000007FFC
0FFFF00001FFF8
07FFFC000FFFF0
03FFFFFFFFFFE0
01FFFFFFFFFFE0
00FFFFFFFFFF80
003FFFFFFFFF00
001FFFFFFFFE00
0007FFFFFFF800
0001FFFFFFE000
00003FFFFF0000
000003FFE00000
ENDCHAR
STARTCHAR 0054
ENCODING 84
SWIDTH 601 0
DWIDTH 61 0
BBX 59 73 1 0
BITMAP
FFFFFFFFFFFFFFE0
FFFFFFFFFFFFFFE0
FFFFFFFFFFFFFFE0
FFFFFFFFFFFFFFE0
FFFFFFFFFFFFFFE0
FFFFFFFFFFFFFFE0
FFFFFFFFFFFFFFE0
FFFFFFFFFFFFFFE0
FFFFFFFFFFFFFFE0
0000007FC0000000
0000007FC0000000
0000007FC0000000
0000007FC0000000
0000007FC0000000
0000007FC0000000
0000007FC0000000
0000007FC0000000
0000007FC0000000
0000007FC0000000
0000007FC0000000
0000007FC0000000
0000007FC0000000
0000007FC0000000
0000007FC0000000
0000007FC0000000
0000007FC0000000
0000007FC0000000
0000007FC0000000
0000007FC0000000
0000007FC0000000
0000007FC0000000
0000007FC0000000
0000007FC0000000
0000007FC0000000
0000007FC0000000
0000007FC0000000
0000007FC0000000
0000007FC0000000
0000007FC0000000
0000007FC0000000
0000007FC0000000
0000007FC0000000
0000007FC0000000
0000007FC0000000
0000007FC0000000
0000007FC0000000
0000007FC0000000
0000007FC0000000
0000007FC0000000
0000007FC0000000
0000007FC0000000
0000007FC0000000
0000007FC0000000
0000007FC0000000
0000007FC0000000
0000007FC0000000
0000007FC0000000
0000007FC0000000
0000007FC0000000
0000007FC0000000
0000007FC0000000
0000007FC0000000
0000007FC0000000
0000007FC0000000
0000007FC0000000
0000007FC0000000
0000007FC0000000
0000007FC0000000
0000007FC0000000
0000007FC0000000
0000007FC0000000
0000007FC0000000
0000007FC0000000
ENDCHAR
STARTCHAR 0055
ENCODING 85
SWIDTH 710 0
DWIDTH 72 0
BBX 58 75 7 -2
BITMAP
FF80000000007FC0
FF80000000007FC0
FF80000000007FC0
FF80000000007FC0
FF80000000007FC0
FF80000000007FC0
FF80000000007FC0
FF80000000007FC0
FF80000000007FC0
FF80000000007FC0
FF80000000007FC0
FF80000000007FC0
FF80000000007FC0
FF80000000007FC0
FF80000000007FC0
FF80000000007FC0
FF80000000007FC0
FF80000000007FC0
FF80000000007FC0
FF80000000007FC0
FF80000000007FC0
FF80000000007FC0
FF80000000007FC0
FF80000000007FC0
FF80000000007FC0
FF80000000007FC0
FF80000000007FC0
FF80000000007FC0
FF80000000007FC0
FF80000000007FC0
FF80000000007FC0
FF80000000007FC0
FF80000000007FC0
FF80000000007FC0
FF80000000007FC0
FF80000000007FC0
FF80000000007FC0
FF80000000007FC0
FF80000000007FC0
FF80000000007FC0
FF80000000007FC0
FF80000000007FC0
FF80000000007FC0
FF80000000007FC0
FF80000000007FC0
FF80000000007FC0
FF80000000007FC0
FF8000000000FFC0
FF8000000000FFC0
FF8000000000FFC0
FFC000000000FF80
FFC000000000FF80
7FC000000000FF80
7FC000000001FF80
7FE000000001FF80
7FE000000001FF80
7FF000000003FF00
3FF000000007FF00
3FF800000007FE00
1FFC0000000FFE00
1FFE0000001FFE00
0FFF0000003FFC00
0FFF8000007FF800
07FFC00001FFF800
03FFF00003FFF000
03FFFE001FFFE000
01FFFFFFFFFFC000
00FFFFFFFFFF8000
007FFFFFFFFF0000
001FFFFFFFFE0000
000FFFFFFFFC0000
0003FFFFFFF00000
0000FFFFFFC00000
00001FFFFE000000
000001FFE0000000
ENDCHAR
STARTCHAR 0056
ENCODING 86
SWIDTH 611 0
DWIDTH 62 0
BBX 61 73 1 0
BITMAP
FF80000000001FF8
FF80000000001FF0
FFC0000000001FF0
7FC0000000003FF0
7FC0000000003FE0
7FE0000000003FE0
3FE0000000007FE0
3FE0000000007FC0
3FF0000000007FC0
1FF000000000FFC0
1FF000000000FF80
1FF800000000FF80
0FF800000001FF80
0FF800000001FF00
0FFC00000001FF00
07FC00000003FF00
07FC00000003FE00
07FE00000003FE00
03FE00000007FE00
03FE00000007FC00
03FF00000007FC00
01FF0000000FFC00
01FF0000000FF800
01FF8000000FF800
00FF8000001FF800
00FF8000001FF000
00FFC000001FF000
007FC000003FF000
007FC000003FE000
007FE000003FE000
003FE000007FE000
003FE000007FC000
003FF000007FC000
001FF00000FFC000
001FF00000FF8000
001FF80000FF8000
000FF80001FF8000
000FF80001FF0000
000FFC0001FF0000
0007FC0003FF0000
0007FC0003FE0000
0007FE0003FE0000
0003FE0007FE0000
0003FE0007FC0000
0003FF0007FC0000
0001FF000FFC0000
0001FF000FF80000
0001FF801FF80000
0000FF801FF80000
0000FF801FF00000
0000FFC03FF00000
00007FC03FF00000
00007FC03FE00000
00007FE07FE00000
00003FE07FE00000
00003FE07FC00000
00003FF0FFC00000
00001FF0FFC00000
00001FF0FF800000
00001FF9FF800000
00000FF9FF800000
00000FF9FF000000
00000FFFFF000000
000007FFFF000000
000007FFFE000000
000007FFFE000000
000003FFFE000000
000003FFFC000000
000003FFFC000000
000001FFFC000000
000001FFF8000000
000001FFF8000000
000000FFF8000000
ENDCHAR
STARTCHAR 0057
ENCODING 87
SWIDTH 946 0
DWIDTH 96 0
BBX 93 73 2 0
BITMAP
FF800000007FE00000001FF8
FF800000007FE00000001FF0
FFC00000007FF00000001FF0
7FC0000000FFF00000003FF0
7FC0000000FFF00000003FE0
7FE0000000FFF00000003FE0
7FE0000000FFF80000007FE0
3FE0000001FFF80000007FE0
3FE0000001FFF80000007FC0
3FF0000001FFFC0000007FC0
1FF0000003FFFC000000FFC0
1FF0000003FFFC000000FF80
1FF0000003FFFC000000FF80
1FF8000003FFFE000001FF80
0FF8000007FFFE000001FF00
0FF8000007FFFE000001FF00
0FFC000007FFFE000001FF00
07FC00000FFDFF000003FF00
07FC00000FF9FF000003FE00
07FC00000FF9FF000003FE00
07FE00000FF9FF800007FE00
03FE00001FF0FF800007FC00
03FE00001FF0FF800007FC00
03FF00001FF0FF800007FC00
01FF00003FF07FC0000FFC00
01FF00003FE07FC0000FF800
01FF00003FE07FC0000FF800
01FF80003FE07FE0001FF800
00FF80007FC03FE0001FF000
00FF80007FC03FE0001FF000
00FFC0007FC03FE0001FF000
007FC0007FC01FF0003FF000
007FC000FF801FF0003FE000
007FC000FF801FF0003FE000
007FE000FF801FF8003FE000
003FE001FF000FF8007FC000
003FE001FF000FF8007FC000
003FE001FF000FF8007FC000
001FF001FF0007FC00FFC000
001FF003FE0007FC00FF8000
001FF003FE0007FC00FF8000
000FF803FE0007FC00FF8000
000FF807FC0003FE01FF0000
000FF807FC0003FE01FF0000
000FF807FC0003FE01FF0000
0007FC07FC0001FF03FF0000
0007FC0FF80001FF03FE0000
0007FC0FF80001FF03FE0000
0003FE0FF80001FF03FE0000
0003FE1FF00000FF87FC0000
0003FE1FF00000FF87FC0000
0003FE1FF00000FF87FC0000
0001FF1FF000007FCFF80000
0001FF3FE000007FCFF80000
0001FF3FE000007FCFF80000
0000FFBFE000007FCFF80000
0000FFBFC000003FFFF00000
0000FFFFC000003FFFF00000
0000FFFFC000003FFFF00000
00007FFFC000001FFFE00000
00007FFF8000001FFFE00000
00007FFF8000001FFFE00000
00003FFF8000001FFFE00000
00003FFF0000000FFFC00000
00003FFF0000000FFFC00000
00003FFF0000000FFFC00000
00001FFF00000007FF800000
00001FFE00000007FF800000
00001FFE00000007FF800000
00000FFE00000007FF800000
00000FFC00000003FF000000
00000FFC00000003FF000000
00000FFC00000003FF000000
ENDCHAR
STARTCHAR 0058
ENCODING 88
SWIDTH 621 0
DWIDTH 63 0
BBX 61 73 1 0
BITMAP
7FF0000000007FF0
3FF800000000FFE0
3FF800000000FFE0
1FFC00000001FFC0
0FFE00000003FF80
0FFE00000003FF80
07FF00000007FF00
03FF8000000FFE00
03FF8000000FFE00
01FFC000001FFC00
00FFE000003FF800
00FFE000003FF800
007FF000007FF000
003FF80000FFE000
003FF80000FFE000
001FFC0001FFC000
000FFE0003FF8000
0007FE0003FF8000
0007FF0007FF0000
0003FF800FFE0000
0001FF800FFE0000
0001FFC01FFC0000
0000FFE01FF80000
00007FE03FF80000
00007FF07FF00000
00003FF87FE00000
00001FF8FFE00000
00001FFDFFC00000
00000FFFFF800000
000007FFFF800000
000007FFFF000000
000003FFFE000000
000001FFFC000000
000001FFFC000000
000000FFF8000000
0000007FF0000000
0000007FF0000000
000000FFF8000000
000001FFFC000000
000001FFFC000000
000003FFFE000000
000007FFFF000000
000007FFFF000000
00000FFFFF800000
00001FFDFFC00000
00001FF8FFC00000
00003FF8FFE00000
00007FF07FF00000
00007FE03FF00000
0000FFE03FF80000
0001FFC01FFC0000
0001FF800FFE0000
0003FF800FFE0000
0007FF0007FF0000
0007FE0003FF8000
000FFE0003FF8000
001FFC0001FFC000
001FF80000FFE000
003FF80000FFE000
007FF000007FF000
00FFE000003FF800
00FFE000003FF800
01FFC000001FFC00
03FF8000000FFE00
03FF8000000FFE00
07FF00000007FF00
0FFE00000003FF80
0FFE00000003FF80
1FFC00000001FFC0
3FF800000000FFE0
3FF800000000FFE0
7FF0000000007FF0
FFE0000000003FF8
ENDCHAR
STARTCHAR 0059
ENCODING 89
SWIDTH 572 0
DWIDTH 58 0
BBX 58 73 0 0
BITMAP
FFE000000001FFC0
7FE000000001FF80
7FF000000003FF80
3FF800000003FF00
1FF800000007FF00
1FFC00000007FE00
0FFC0000000FFE00
0FFE0000001FFC00
07FE0000001FF800
07FF0000003FF800
03FF8000003FF000
01FF8000007FF000
01FFC000007FE000
00FFC00000FFC000
00FFE00001FFC000
007FE00001FF8000
007FF00003FF8000
003FF80003FF0000
001FF80007FF0000
001FFC000FFE0000
000FFC000FFC0000
000FFE001FFC0000
0007FF001FF80000
0003FF003FF80000
0003FF803FF00000
0001FF807FF00000
0001FFC0FFE00000
0000FFC0FFC00000
0000FFE1FFC00000
00007FF1FF800000
00003FF3FF800000
00003FFBFF000000
00001FFFFF000000
00001FFFFE000000
00000FFFFC000000
00000FFFFC000000
000007FFF8000000
000003FFF8000000
000003FFF0000000
000001FFF0000000
000001FFE0000000
000000FFC0000000
000000FFC0000000
0000007FC0000000
0000007FC0000000
0000007FC0000000
0000007FC0000000
0000007FC0000000
0000007FC0000000
0000007FC0000000
0000007FC0000000
0000007FC0000000
0000007FC0000000
0000007FC0000000
0000007FC0000000
0000007FC0000000
0000007FC0000000
0000007FC0000000
0000007FC0000000
0000007FC0000000
0000007FC0000000
0000007FC0000000
0000007FC0000000
0000007FC0000000
0000007FC0000000
0000007FC0000000
0000007FC0000000
0000007FC0000000
0000007FC0000000
0000007FC0000000
0000007FC0000000
0000007FC0000000
0000007FC0000000
ENDCHAR
STARTCHAR 005A
ENCODING 90
SWIDTH 631 0
DWIDTH 64 0
BBX 54 73 5 0
BITMAP
3FFFFFFFFFFFFC
3FFFFFFFFFFFFC
3FFFFFFFFFFFF8
3FFFFFFFFFFFF8
3FFFFFFFFFFFF0
3FFFFFFFFFFFF0
3FFFFFFFFFFFE0
3FFFFFFFFFFFC0
3FFFFFFFFFFFC0
0000000003FF80
0000000007FF00
0000000007FF00
000000000FFE00
000000000FFE00
000000001FFC00
000000003FF800
000000003FF800
000000007FF000
000000007FF000
00000000FFE000
00000001FFC000
00000001FFC000
00000003FF8000
00000007FF8000
00000007FF0000
0000000FFE0000
0000000FFE0000
0000001FFC0000
0000003FF80000
0000003FF80000
0000007FF00000
0000007FF00000
000000FFE00000
000001FFC00000
000001FFC00000
000003FF800000
000007FF800000
000007FF000000
00000FFE000000
00000FFE000000
00001FFC000000
00003FFC000000
00003FF8000000
00007FF0000000
00007FF0000000
0000FFE0000000
0001FFC0000000
0001FFC0000000
0003FF80000000
0003FF80000000
0007FF00000000
000FFE00000000
000FFE00000000
001FFC00000000
003FFC00000000
003FF800000000
007FF000000000
007FF000000000
00FFE000000000
01FFE000000000
01FFC000000000
03FF8000000000
03FF8000000000
07FF0000000000
0FFFFFFFFFFFF8
0FFFFFFFFFFFF8
1FFFFFFFFFFFF8
3FFFFFFFFFFFF8
3FFFFFFFFFFFF8
7FFFFFFFFFFFF8
7FFFFFFFFFFFF8
FFFFFFFFFFFFF8
FFFFFFFFFFFFF8
ENDCHAR
STARTCHAR 005B
ENCODING 91
SWIDTH 414 0
DWIDTH 42 0
BBX 20 112 14 -22
BITMAP
FFFFF0
FFFFF0
FFFFF0
FFFFF0
FFFFF0
FFFFF0
FFFFF0
FFFFF0
FF0000
FF0000
FF0000
FF0000
FF0000
FF0000
FF0000
FF0000
FF0000
FF0000
FF0000
FF0000
FF0000
FF0000
FF0000
FF0000
FF0000
FF0000
FF0000
FF0000
FF0000
FF0000
FF0000
FF0000
FF0000
FF0000
FF0000
FF0000
FF0000
FF0000
FF0000
FF0000
FF0000
FF0000
FF0000
FF0000
FF0000
FF0000
FF0000
FF0000
FF0000
FF0000
FF0000
FF0000
FF0000
FF0000
FF0000
FF0000
FF0000
FF0000
FF0000
FF0000
FF0000
FF0000
FF0000
FF0000
FF0000
FF0000
FF0000
FF0000
FF0000
FF0000
FF0000
FF0000
FF0000
FF0000
FF0000
FF0000
FF0000
FF0000
FF0000
FF0000
FF0000
FF0000
FF0000
FF0000
FF0000
FF0000
FF0000
FF0000
FF0000
FF0000
FF0000
FF0000
FF0000
FF0000
FF0000
FF0000
FF0000
FF0000
FF0000
FF0000
FF0000
FF0000
FF0000
FF0000
FFFFF0
FFFFF0
FFFFF0
FFFFF0
FFFFF0
FFFFF0
FFFFF0
FFFFF0
ENDCHAR
STARTCHAR 005C
ENCODING 92
SWIDTH 404 0
DWIDTH 41 0
BBX 29 73 6 0
BITMAP
FF800000
FFC00000
7FC00000
7FC00000
7FC00000
3FE00000
3FE00000
3FE00000
3FF00000
1FF00000
1FF00000
1FF00000
1FF80000
0FF80000
0FF80000
0FF80000
0FFC0000
07FC0000
07FC0000
07FC0000
03FE0000
03FE0000
03FE0000
03FF0000
01FF0000
01FF0000
01FF0000
01FF8000
00FF8000
00FF8000
00FF8000
00FFC000
007FC000
007FC000
007FC000
003FE000
003FE000
003FE000
003FF000
001FF000
001FF000
001FF000
001FF800
000FF800
000FF800
000FF800
000FFC00
0007FC00
0007FC00
0007FC00
0003FE00
0003FE00
0003FE00
0003FF00
0001FF00
0001FF00
0001FF00
0001FF80
0000FF80
0000FF80
0000FF80
0000FFC0
00007FC0
00007FC0
00007FC0
00003FE0
00003FE0
00003FE0
00003FF0
00001FF0
00001FF0
00001FF0
00001FF8
ENDCHAR
STARTCHAR 005D
ENCODING 93
SWIDTH 414 0
DWIDTH 42 0
BBX 20 112 8 -22
BITMAP
FFFFF0
FFFFF0
FFFFF0
FFFFF0
FFFFF0
FFFFF0
FFFFF0
FFFFF0
001FF0
001FF0
001FF0
001FF0
001FF0
001FF0
001FF0
001FF0
001FF0
001FF0
001FF0
001FF0
001FF0
001FF0
001FF0
001FF0
001FF0
001FF0
001FF0
001FF0
001FF0
001FF0
001FF0
001FF0
001FF0
001FF0
001FF0
001FF0
001FF0
001FF0
001FF0
001FF0
001FF0
001FF0
001FF0
001FF0
001FF0
001FF0
001FF0
001FF0
001FF0
001FF0
001FF0
001FF0
001FF0
001FF0
001FF0
001FF0
001FF0
001FF0
001FF0
001FF0
001FF0
001FF0
001FF0
001FF0
001FF0
001FF0
001FF0
001FF0
001FF0
001FF0
001FF0
001FF0
001FF0
001FF0
001FF0
001FF0
001FF0
001FF0
001FF0
001FF0
001FF0
001FF0
001FF0
001FF0
001FF0
001FF0
001FF0
001FF0
001FF0
001FF0
001FF0
001FF0
001FF0
001FF0
001FF0
001FF0
001FF0
001FF0
001FF0
001FF0
001FF0
001FF0
001FF0
001FF0
FFFFF0
FFFFF0
FFFFF0
FFFFF0
FFFFF0
FFFFF0
FFFFF0
FFFFF0
ENDCHAR
STARTCHAR 005E
ENCODING 94
SWIDTH 670 0
DWIDTH 68 0
BBX 47 30 11 45
BITMAP
000001000000
000003800000
000007C00000
00000FE00000
00001FF00000
00003FF80000
00007FFC0000
0000FFFE0000
0001FFFF0000
0003FFFF8000
0007FFFFC000
000FFEFFE000
001FFC7FF000
003FF83FF800
007FF01FFC00
00FFE00FFE00
01FFE007FF00
03FFC003FF80
07FF8001FFC0
0FFF0000FFE0
1FFE00007FF0
3FFC00003FF8
7FF800001FFC
FFF000000FFE
FFE0000007FE
7FC0000003FC
3F80000001F8
1F00000000F0
0E0000000060
040000000000
ENDCHAR
STARTCHAR 005F
ENCODING 95
SWIDTH 660 0
DWIDTH 67 0
BBX 67 7 0 -11
BITMAP
FFFFFFFFFFFFFFFFE0
FFFFFFFFFFFFFFFFE0
FFFFFFFFFFFFFFFFE0
FFFFFFFFFFFFFFFFE0
FFFFFFFFFFFFFFFFE0
FFFFFFFFFFFFFFFFE0
FFFFFFFFFFFFFFFFE0
ENDCHAR
STARTCHAR 0060
ENCODING 96
SWIDTH 503 0
DWIDTH 51 0
BBX 14 17 17 81
BITMAP
FF00
7F00
7F00
3F80
3F80
3FC0
1FC0
1FC0
1FE0
0FE0
0FF0
07F0
07F0
07F8
03F8
03FC
01FC
ENDCHAR
STARTCHAR 0061
ENCODING 97
SWIDTH 562 0
DWIDTH 57 0
BBX 47 58 4 -2
BITMAP
00001FFE0000
0001FFFFE000
000FFFFFF800
001FFFFFFE00
007FFFFFFF00
00FFFFFFFF80
01FFFFFFFFC0
03FFFFFFFFE0
07FFFE3FFFF0
07FFC001FFF8
0FFF00007FF8
1FFE00001FFC
1FFC00000FFC
1FF800000FFC
3FF0000007FC
3FF0000007FE
03E0000007FE
0060000003FE
0000000003FE
0000000003FE
0000000003FE
0000000007FE
00000007FFFE
000001FFFFFE
00007FFFFFFE
0007FFFFFFFE
003FFFFFFFFE
00FFFFFFFFFE
01FFFFFFFFFE
07FFFFFFC3FE
0FFFFFE003FE
1FFFFC0003FE
1FFF800003FE
3FFE000003FE
7FF8000003FE
7FF0000003FE
7FE0000007FE
FFC0000007FE
FFC0000007FE
FF80000007FE
FF8000000FFE
FF8000000FFE
FF8000001FFE
FF8000001FFE
FF8000003FFE
FFC000007FFE
7FE00000FFFE
7FE00003FFFE
7FF80007FFFE
3FFC003FFDFE
1FFFFFFFF9FE
1FFFFFFFF1FE
0FFFFFFFE1FE
07FFFFFFC1FE
03FFFFFF01FE
00FFFFFE01FE
003FFFF00000
0003FF000000
ENDCHAR
STARTCHAR 0062
ENCODING 98
SWIDTH 601 0
DWIDTH 61 0
BBX 50 75 7 -2
BITMAP
FF800000000000
FF800000000000
FF800000000000
FF800000000000
FF800000000000
FF800000000000
FF800000000000
FF800000000000
FF800000000000
FF800000000000
FF800000000000
FF800000000000
FF800000000000
FF800000000000
FF800000000000
FF800000000000
FF800000000000
FF800FFC000000
FF807FFFC00000
FF83FFFFF00000
FF87FFFFFC0000
FF9FFFFFFE0000
FFBFFFFFFF0000
FFFFFFFFFFC000
FFFFFFFFFFE000
FFFFFC3FFFE000
FFFFC003FFF000
FFFF0000FFF800
FFFC00003FF800
FFF800001FFC00
FFF000000FFC00
FFF000000FFE00
FFE0000007FE00
FFE0000003FF00
FFC0000003FF00
FFC0000003FF00
FF80000001FF80
FF80000001FF80
FF80000001FF80
FF80000000FF80
FF00000000FF80
FF00000000FFC0
FF00000000FFC0
FF00000000FFC0
FF00000000FFC0
FF00000000FFC0
FF00000000FFC0
FF00000000FFC0
FF00000000FFC0
FF00000000FFC0
FF00000000FFC0
FF00000000FF80
FF80000000FF80
FF80000001FF80
FF80000001FF80
FF80000001FF80
FFC0000003FF00
FFC0000003FF00
FFE0000007FF00
FFE0000007FE00
FFF000000FFE00
FFF000000FFC00
FFF800001FFC00
FFFC00003FF800
FFFF0000FFF800
FFFFC003FFF000
FFFFFC3FFFE000
FF7FFFFFFFE000
FF7FFFFFFFC000
FF3FFFFFFF8000
FF0FFFFFFE0000
FF07FFFFFC0000
FF01FFFFF00000
00007FFFC00000
00000FFC000000
ENDCHAR
STARTCHAR 0063
ENCODING 99
SWIDTH 562 0
DWIDTH 57 0
BBX 49 58 4 -2
BITMAP
000007FF000000
00007FFFF00000
0003FFFFFC0000
000FFFFFFF0000
001FFFFFFF8000
003FFFFFFFE000
007FFFFFFFF000
00FFFFFFFFF800
01FFFFFFFFFC00
03FFF000FFFC00
07FFC0003FFE00
0FFF80001FFF00
0FFE000007FF00
1FFC000003FF80
1FFC000003FF80
3FF8000001FF80
3FF0000000FF00
3FF0000000F800
7FE00000000000
7FE00000000000
7FE00000000000
7FC00000000000
7FC00000000000
FFC00000000000
FFC00000000000
FFC00000000000
FFC00000000000
FFC00000000000
FFC00000000000
FFC00000000000
FFC00000000000
FFC00000000000
FFC00000000000
FFC00000000000
FFC00000000000
7FC00000000000
7FC00000000000
7FE00000000000
7FE00000000000
7FE00000000000
3FF0000000E000
3FF0000000FE00
3FF8000001FF80
1FFC000003FF80
1FFC000003FF80
0FFE000007FF00
0FFF00000FFF00
07FFC0003FFE00
03FFF000FFFC00
01FFFFFFFFF800
01FFFFFFFFF800
00FFFFFFFFF000
003FFFFFFFE000
001FFFFFFF8000
000FFFFFFF0000
0003FFFFFC0000
00007FFFF00000
000007FF000000
ENDCHAR
STARTCHAR 0064
ENCODING 100
SWIDTH 601 0
DWIDTH 61 0
BBX 50 75 4 -2
BITMAP
00000000007FC0
00000000007FC0
00000000007FC0
00000000007FC0
00000000007FC0
00000000007FC0
00000000007FC0
00000000007FC0
00000000007FC0
00000000007FC0
00000000007FC0
00000000007FC0
00000000007FC0
00000000007FC0
00000000007FC0
00000000007FC0
00000000007FC0
00001FFC007FC0
0000FFFF807FC0
0003FFFFE07FC0
000FFFFFF87FC0
003FFFFFFC7FC0
007FFFFFFF7FC0
00FFFFFFFFFFC0
01FFFFFFFFFFC0
03FFFF0FFFFFC0
03FFF000FFFFC0
07FFC0003FFFC0
0FFF00000FFFC0
0FFE000007FFC0
1FFC000007FFC0
1FF8000003FFC0
3FF8000001FFC0
3FF0000001FFC0
3FF0000000FFC0
7FE0000000FFC0
7FE0000000FFC0
7FE00000007FC0
7FC00000007FC0
7FC00000007FC0
FFC00000007FC0
FFC00000007FC0
FFC00000003FC0
FFC00000003FC0
FFC00000003FC0
FFC00000003FC0
FFC00000003FC0
FFC00000003FC0
FFC00000003FC0
FFC00000003FC0
FFC00000007FC0
FFC00000007FC0
7FC00000007FC0
7FC00000007FC0
7FE00000007FC0
7FE0000000FFC0
7FE0000000FFC0
3FF0000000FFC0
3FF0000001FFC0
3FF8000001FFC0
1FF8000003FFC0
1FFC000007FFC0
0FFE00000FFFC0
0FFF00001FFFC0
07FFC0003FFFC0
03FFE000FFFFC0
03FFFE0FFFFFC0
01FFFFFFFFFFC0
00FFFFFFFFBFC0
007FFFFFFF3FC0
001FFFFFFC3FC0
000FFFFFF83FC0
0003FFFFE03FC0
0000FFFF800000
00000FFC000000
ENDCHAR
STARTCHAR 0065
ENCODING 101
SWIDTH 591 0
DWIDTH 60 0
BBX 52 58 4 -2
BITMAP
000007FF000000
00007FFFF00000
0003FFFFFC0000
0007FFFFFF0000
001FFFFFFF8000
003FFFFFFFE000
007FFFFFFFF000
00FFFFFFFFF800
01FFFE01FFFC00
03FFE0003FFC00
07FF80000FFE00
0FFF000007FF00
0FFE000003FF00
1FFC000001FF80
1FF8000001FF80
3FF8000000FFC0
3FF0000000FFC0
3FF00000007FC0
7FE00000007FC0
7FE00000007FE0
7FE00000003FE0
7FC00000003FE0
7FC00000003FE0
FFC00000003FE0
FFFFFFFFFFFFF0
FFFFFFFFFFFFF0
FFFFFFFFFFFFF0
FFFFFFFFFFFFF0
FFFFFFFFFFFFF0
FFFFFFFFFFFFF0
FFFFFFFFFFFFF0
FFC00000000000
FFC00000000000
FFC00000000000
FFC00000000000
7FC00000000000
7FC00000000000
7FE00000000000
7FE00000000000
7FE00000000000
3FF00000003800
3FF00000007F00
1FF8000000FFC0
1FFC000000FFC0
1FFC000001FFC0
0FFE000003FF80
07FF80000FFF80
07FFC0001FFF00
03FFF000FFFE00
01FFFFFFFFFC00
00FFFFFFFFFC00
007FFFFFFFF800
003FFFFFFFE000
001FFFFFFFC000
0007FFFFFF0000
0001FFFFFC0000
00007FFFF00000
000007FF000000
ENDCHAR
STARTCHAR 0066
ENCODING 102
SWIDTH 364 0
DWIDTH 37 0
BBX 33 75 3 0
BITMAP
00000FFF80
0000FFFF80
0001FFFF80
0007FFFF80
0007FFFF80
000FFFFF80
001FFFFF80
001FFFFF80
003FFC0000
003FF00000
003FF00000
003FE00000
007FE00000
007FC00000
007FC00000
007FC00000
007FC00000
007FC00000
007FC00000
007FC00000
FFFFFFFF80
FFFFFFFF80
FFFFFFFF80
FFFFFFFF80
FFFFFFFF80
FFFFFFFF80
FFFFFFFF80
007FC00000
007FC00000
007FC00000
007FC00000
007FC00000
007FC00000
007FC00000
007FC00000
007FC00000
007FC00000
007FC00000
007FC00000
007FC00000
007FC00000
007FC00000
007FC00000
007FC00000
007FC00000
007FC00000
007FC00000
007FC00000
007FC00000
007FC00000
007FC00000
007FC00000
007FC00000
007FC00000
007FC00000
007FC00000
007FC00000
007FC00000
007FC00000
007FC00000
007FC00000
007FC00000
007FC00000
007FC00000
007FC00000
007FC00000
007FC00000
007FC00000
007FC00000
007FC00000
007FC00000
007FC00000
007FC00000
007FC00000
007FC00000
ENDCHAR
STARTCHAR 0067
ENCODING 103
SWIDTH 601 0
DWIDTH 61 0
BBX 50 82 4 -26
BITMAP
00001FFC000000
0000FFFF803FC0
0003FFFFF03FC0
000FFFFFF83FC0
003FFFFFFE3FC0
007FFFFFFF3FC0
00FFFFFFFFBFC0
01FFFFFFFFFFC0
03FFFF0FFFFFC0
03FFF000FFFFC0
07FFC0003FFFC0
0FFF00000FFFC0
0FFE000007FFC0
1FFC000007FFC0
1FF8000003FFC0
3FF8000001FFC0
3FF0000001FFC0
3FF0000000FFC0
7FE0000000FFC0
7FE0000000FFC0
7FE00000007FC0
7FC00000007FC0
7FC00000007FC0
FFC00000007FC0
FFC00000007FC0
FFC00000003FC0
FFC00000003FC0
FFC00000003FC0
FFC00000003FC0
FFC00000003FC0
FFC00000003FC0
FFC00000003FC0
FFC00000003FC0
FFC00000007FC0
FFC00000007FC0
7FC00000007FC0
7FC00000007FC0
7FE00000007FC0
7FE0000000FFC0
7FE0000000FFC0
3FF0000000FFC0
3FF0000001FFC0
3FF8000001FFC0
1FF8000003FFC0
1FFC000007FFC0
0FFE00000FFFC0
0FFF00001FFFC0
07FFC0003FFFC0
03FFE000FFFFC0
03FFFE0FFFFFC0
01FFFFFFFFFFC0
00FFFFFFFFFFC0
007FFFFFFF7FC0
001FFFFFFC7FC0
000FFFFFF87FC0
0003FFFFE07FC0
0000FFFF807FC0
00000FFC007FC0
00000000007FC0
0000000000FFC0
0000000000FFC0
0000000000FFC0
0000000000FF80
0000000000FF80
0000000000FF80
0000000001FF80
0030000001FF80
0078000003FF00
01FC000007FF00
07FE000007FF00
0FFF00001FFE00
0FFFC0003FFE00
07FFF001FFFC00
03FFFFFFFFFC00
01FFFFFFFFF800
00FFFFFFFFF000
007FFFFFFFE000
003FFFFFFFC000
000FFFFFFF0000
0003FFFFFC0000
0000FFFFF00000
00000FFF000000
ENDCHAR
STARTCHAR 0068
ENCODING 104
SWIDTH 601 0
DWIDTH 61 0
BBX 48 73 7 0
BITMAP
FF0000000000
FF0000000000
FF0000000000
FF0000000000
FF0000000000
FF0000000000
FF0000000000
FF0000000000
FF0000000000
FF0000000000
FF0000000000
FF0000000000
FF0000000000
FF0000000000
FF0000000000
FF0000000000
FF0000000000
FF0007FE0000
FF007FFFE000
FF01FFFFF800
FF07FFFFFE00
FF0FFFFFFF00
FF1FFFFFFF80
FF3FFFFFFFC0
FF7FFFFFFFE0
FFFFFFFFFFF0
FFFFE003FFF0
FFFF8000FFF8
FFFE00007FF8
FFFC00003FFC
FFF800001FFC
FFF000000FFC
FFF000000FFE
FFE0000007FE
FFE0000007FE
FFC0000003FE
FFC0000003FF
FFC0000003FF
FFC0000003FF
FF80000001FF
FF80000001FF
FF80000001FF
FF80000001FF
FF80000001FF
FF80000001FF
FF80000001FF
FF80000001FF
FF80000001FF
FF80000001FF
FF80000001FF
FF80000001FF
FF80000001FF
FF80000001FF
FF80000001FF
FF80000001FF
FF80000001FF
FF80000001FF
FF80000001FF
FF80000001FF
FF80000001FF
FF80000001FF
FF80000001FF
FF80000001FF
FF80000001FF
FF80000001FF
FF80000001FF
FF80000001FF
FF80000001FF
FF80000001FF
FF80000001FF
FF80000001FF
FF80000001FF
FF80000001FF
ENDCHAR
STARTCHAR 0069
ENCODING 105
SWIDTH 246 0
DWIDTH 25 0
BBX 9 74 8 0
BITMAP
FF80
FF80
FF80
FF80
FF80
FF80
FF80
FF80
FF80
0000
0000
0000
0000
0000
0000
0000
0000
0000
0000
FF80
FF80
FF80
FF80
FF80
FF80
FF80
FF80
FF80
FF80
FF80
FF80
FF80
FF80
FF80
FF80
FF80
FF80
FF80
FF80
FF80
FF80
FF80
FF80
FF80
FF80
FF80
FF80
FF80
FF80
FF80
FF80
FF80
FF80
FF80
FF80
FF80
FF80
FF80
FF80
FF80
FF80
FF80
FF80
FF80
FF80
FF80
FF80
FF80
FF80
FF80
FF80
FF80
FF80
FF80
ENDCHAR
STARTCHAR 006A
ENCODING 106
SWIDTH 266 0
DWIDTH 27 0
BBX 20 99 -1 -25
BITMAP
001FF0
001FF0
001FF0
001FF0
001FF0
001FF0
001FF0
001FF0
001FF0
000000
000000
000000
000000
000000
000000
000000
000000
000000
000000
001FF0
001FF0
001FF0
001FF0
001FF0
001FF0
001FF0
001FF0
001FF0
001FF0
001FF0
001FF0
001FF0
001FF0
001FF0
001FF0
001FF0
001FF0
001FF0
001FF0
001FF0
001FF0
001FF0
001FF0
001FF0
001FF0
001FF0
001FF0
001FF0
001FF0
001FF0
001FF0
001FF0
001FF0
001FF0
001FF0
001FF0
001FF0
001FF0
001FF0
001FF0
001FF0
001FF0
001FF0
001FF0
001FF0
001FF0
001FF0
001FF0
001FF0
001FF0
001FF0
001FF0
001FF0
001FF0
001FF0
001FF0
001FF0
001FF0
001FF0
001FF0
001FF0
001FF0
001FF0
001FF0
001FF0
003FF0
003FF0
007FF0
00FFF0
03FFF0
FFFFE0
FFFFE0
FFFFC0
FFFFC0
FFFF80
FFFF00
FFFE00
FFF800
FF0000
ENDCHAR
STARTCHAR 006B
ENCODING 107
SWIDTH 512 0
DWIDTH 52 0
BBX 46 73 7 0
BITMAP
FF8000000000
FF8000000000
FF8000000000
FF8000000000
FF8000000000
FF8000000000
FF8000000000
FF8000000000
FF8000000000
FF8000000000
FF8000000000
FF8000000000
FF8000000000
FF8000000000
FF8000000000
FF8000000000
FF8000000000
FF8000000000
FF800000FFE0
FF800001FFE0
FF800003FFC0
FF800007FF80
FF80000FFF00
FF80001FFE00
FF80001FFC00
FF80003FF800
FF80007FF000
FF8000FFF000
FF8001FFE000
FF8003FFC000
FF8007FF8000
FF800FFF0000
FF800FFE0000
FF801FFC0000
FF803FF80000
FF807FF80000
FF80FFF00000
FF81FFE00000
FF83FFC00000
FF83FF800000
FF87FF000000
FF8FFE000000
FF9FFC000000
FFBFF8000000
FFFFF8000000
FFFFF0000000
FFFFF8000000
FFBFFC000000
FF9FFE000000
FF8FFF000000
FF87FF800000
FF83FFC00000
FF81FFE00000
FF80FFF00000
FF807FF80000
FF803FFC0000
FF801FFE0000
FF800FFF0000
FF800FFF0000
FF8007FF8000
FF8003FFC000
FF8001FFE000
FF8000FFF000
FF80007FF800
FF80003FFC00
FF80001FFE00
FF80000FFF00
FF800007FF80
FF800003FFC0
FF800001FFE0
FF800000FFF0
FF8000007FF8
FF8000003FFC
ENDCHAR
STARTCHAR 006C
ENCODING 108
SWIDTH 246 0
DWIDTH 25 0
BBX 9 73 8 0
BITMAP
FF80
FF80
FF80
FF80
FF80
FF80
FF80
FF80
FF80
FF80
FF80
FF80
FF80
FF80
FF80
FF80
FF80
FF80
FF80
FF80
FF80
FF80
FF80
FF80
FF80
FF80
FF80
FF80
FF80
FF80
FF80
FF80
FF80
FF80
FF80
FF80
FF80
FF80
FF80
FF80
FF80
FF80
FF80
FF80
FF80
FF80
FF80
FF80
FF80
FF80
FF80
FF80
FF80
FF80
FF80
FF80
FF80
FF80
FF80
FF80
FF80
FF80
FF80
FF80
FF80
FF80
FF80
FF80
FF80
FF80
FF80
FF80
FF80
ENDCHAR
STARTCHAR 006D
ENCODING 109
SWIDTH 867 0
DWIDTH 88 0
BBX 75 56 7 0
BITMAP
00001FF000000FF80000
FF00FFFF0000FFFF0000
FF03FFFFC003FFFFC000
FF0FFFFFE007FFFFF000
FF1FFFFFF01FFFFFF800
FF3FFFFFF83FFFFFFC00
FF7FFFFFFC7FFFFFFE00
FFFFFFFFFE7FFFFFFE00
FFFFC0FFFEFFE07FFF00
FFFE001FFFFF000FFF80
FFFC000FFFFC0007FF80
FFF80007FFF80003FF80
FFF00003FFF00001FFC0
FFE00001FFF00000FFC0
FFC00001FFE00000FFC0
FFC00000FFE000007FC0
FFC00000FFE000007FC0
FF800000FFC000007FE0
FF8000007FC000007FE0
FF8000007FC000007FE0
FF8000007FC000003FE0
FF8000007FC000003FE0
FF8000007FC000003FE0
FF8000007FC000003FE0
FF8000007FC000003FE0
FF8000007FC000003FE0
FF8000007FC000003FE0
FF8000007FC000003FE0
FF8000007FC000003FE0
FF8000007FC000003FE0
FF8000007FC000003FE0
FF8000007FC000003FE0
FF8000007FC000003FE0
FF8000007FC000003FE0
FF8000007FC000003FE0
FF8000007FC000003FE0
FF8000007FC000003FE0
FF8000007FC000003FE0
FF8000007FC000003FE0
FF8000007FC000003FE0
FF8000007FC000003FE0
FF8000007FC000003FE0
FF8000007FC000003FE0
FF8000007FC000003FE0
FF8000007FC000003FE0
FF8000007FC000003FE0
FF8000007FC000003FE0
FF8000007FC000003FE0
FF8000007FC000003FE0
FF8000007FC000003FE0
FF8000007FC000003FE0
FF8000007FC000003FE0
FF8000007FC000003FE0
FF8000007FC000003FE0
FF8000007FC000003FE0
FF8000007FC000003FE0
ENDCHAR
STARTCHAR 006E
ENCODING 110
SWIDTH 601 0
DWIDTH 61 0
BBX 48 56 7 0
BITMAP
000007FE0000
FF007FFFE000
FF01FFFFF800
FF07FFFFFE00
FF0FFFFFFF00
FF1FFFFFFF80
FF3FFFFFFFC0
FF7FFFFFFFE0
FFFFFFFFFFF0
FFFFE003FFF0
FFFF0000FFF8
FFFE00007FF8
FFFC00003FFC
FFF800001FFC
FFF000000FFC
FFF000000FFE
FFE0000007FE
FFE0000007FE
FFC0000003FE
FFC0000003FF
FFC0000003FF
FFC0000003FF
FF80000001FF
FF80000001FF
FF80000001FF
FF80000001FF
FF80000001FF
FF80000001FF
FF80000001FF
FF80000001FF
FF80000001FF
FF80000001FF
FF80000001FF
FF80000001FF
FF80000001FF
FF80000001FF
FF80000001FF
FF80000001FF
FF80000001FF
FF80000001FF
FF80000001FF
FF80000001FF
FF80000001FF
FF80000001FF
FF80000001FF
FF80000001FF
FF80000001FF
FF80000001FF
FF80000001FF
FF80000001FF
FF80000001FF
FF80000001FF
FF80000001FF
FF80000001FF
FF80000001FF
FF80000001FF
ENDCHAR
STARTCHAR 006F
ENCODING 111
SWIDTH 601 0
DWIDTH 61 0
BBX 53 58 4 -2
BITMAP
000007FF000000
00007FFFF00000
0001FFFFFC0000
0007FFFFFF0000
001FFFFFFFC000
003FFFFFFFE000
007FFFFFFFF000
00FFFFFFFFF800
01FFFFFFFFFC00
03FFF000FFFE00
07FFC0001FFF00
07FF80000FFF00
0FFE000003FF80
1FFC000003FF80
1FFC000001FFC0
3FF8000000FFC0
3FF00000007FE0
3FF00000007FE0
7FE00000007FE0
7FE00000003FF0
7FE00000003FF0
7FC00000003FF0
7FC00000001FF0
FFC00000001FF0
FFC00000001FF8
FFC00000001FF8
FFC00000001FF8
FFC00000001FF8
FFC00000001FF8
FFC00000001FF8
FFC00000001FF8
FFC00000001FF8
FFC00000001FF8
FFC00000001FF8
FFC00000001FF0
7FC00000001FF0
7FC00000003FF0
7FE00000003FF0
7FE00000003FF0
7FE00000007FE0
3FF00000007FE0
3FF0000000FFE0
3FF8000000FFC0
1FFC000001FFC0
1FFC000003FF80
0FFE000007FF80
07FF80000FFF00
07FFC0001FFF00
03FFF000FFFE00
01FFFFFFFFFC00
00FFFFFFFFF800
007FFFFFFFF000
003FFFFFFFE000
001FFFFFFFC000
0007FFFFFF0000
0003FFFFFC0000
00007FFFF00000
000007FF000000
ENDCHAR
STARTCHAR 0070
ENCODING 112
SWIDTH 601 0
DWIDTH 61 0
BBX 50 81 7 -25
BITMAP
00000FFC000000
FF007FFFC00000
FF03FFFFF00000
FF07FFFFFC0000
FF1FFFFFFE0000
FF3FFFFFFF0000
FF7FFFFFFFC000
FFFFFFFFFFE000
FFFFFC3FFFE000
FFFFC003FFF000
FFFF0000FFF800
FFFC00003FF800
FFF800001FFC00
FFF000000FFC00
FFF000000FFE00
FFE0000007FE00
FFE0000003FF00
FFC0000003FF00
FFC0000003FF00
FF80000001FF80
FF80000001FF80
FF80000001FF80
FF80000000FF80
FF00000000FF80
FF00000000FFC0
FF00000000FFC0
FF00000000FFC0
FF00000000FFC0
FF00000000FFC0
FF00000000FFC0
FF00000000FFC0
FF00000000FFC0
FF00000000FFC0
FF00000000FFC0
FF00000000FF80
FF80000000FF80
FF80000001FF80
FF80000001FF80
FF80000001FF80
FFC0000003FF00
FFC0000003FF00
FFE0000007FF00
FFE0000007FE00
FFF000000FFE00
FFF000000FFC00
FFF800001FFC00
FFFC00003FF800
FFFF0000FFF800
FFFFC003FFF000
FFFFFC3FFFE000
FFFFFFFFFFE000
FFFFFFFFFFC000
FFBFFFFFFF8000
FF9FFFFFFE0000
FF87FFFFFC0000
FF83FFFFF00000
FF807FFFC00000
FF800FFC000000
FF800000000000
FF800000000000
FF800000000000
FF800000000000
FF800000000000
FF800000000000
FF800000000000
FF800000000000
FF800000000000
FF800000000000
FF800000000000
FF800000000000
FF800000000000
FF800000000000
FF800000000000
FF800000000000
FF800000000000
FF800000000000
FF800000000000
FF800000000000
FF800000000000
FF800000000000
FF800000000000
ENDCHAR
STARTCHAR 0071
ENCODING 113
SWIDTH 601 0
DWIDTH 61 0
BBX 50 81 4 -25
BITMAP
00001FFC000000
0000FFFF803FC0
0003FFFFF03FC0
000FFFFFF83FC0
003FFFFFFE3FC0
007FFFFFFF3FC0
00FFFFFFFFBFC0
01FFFFFFFFFFC0
03FFFF0FFFFFC0
03FFF000FFFFC0
07FFC0003FFFC0
0FFF00000FFFC0
0FFE000007FFC0
1FFC000007FFC0
1FF8000003FFC0
3FF8000001FFC0
3FF0000001FFC0
3FF0000000FFC0
7FE0000000FFC0
7FE0000000FFC0
7FE00000007FC0
7FC00000007FC0
7FC00000007FC0
FFC00000007FC0
FFC00000007FC0
FFC00000003FC0
FFC00000003FC0
FFC00000003FC0
FFC00000003FC0
FFC00000003FC0
FFC00000003FC0
FFC00000003FC0
FFC00000003FC0
FFC00000007FC0
FFC00000007FC0
7FC00000007FC0
7FC00000007FC0
7FE00000007FC0
7FE0000000FFC0
7FE0000000FFC0
3FF0000000FFC0
3FF0000001FFC0
3FF8000001FFC0
1FF8000003FFC0
1FFC000007FFC0
0FFE00000FFFC0
0FFF00001FFFC0
07FFC0003FFFC0
03FFE000FFFFC0
03FFFE0FFFFFC0
01FFFFFFFFFFC0
00FFFFFFFFFFC0
007FFFFFFF7FC0
001FFFFFFC7FC0
000FFFFFF87FC0
0003FFFFE07FC0
0000FFFF807FC0
00000FFC007FC0
00000000007FC0
00000000007FC0
00000000007FC0
00000000007FC0
00000000007FC0
00000000007FC0
00000000007FC0
00000000007FC0
00000000007FC0
00000000007FC0
00000000007FC0
00000000007FC0
00000000007FC0
00000000007FC0
00000000007FC0
00000000007FC0
00000000007FC0
00000000007FC0
00000000007FC0
00000000007FC0
00000000007FC0
00000000007FC0
00000000007FC0
ENDCHAR
STARTCHAR 0072
ENCODING 114
SWIDTH 374 0
DWIDTH 38 0
BBX 28 55 7 1
BITMAP
FF000FF0
FF007FF0
FF01FFF0
FF07FFF0
FF0FFFF0
FF1FFFF0
FF3FFFF0
FF7FFFF0
FFFFFC30
FFFFC000
FFFF8000
FFFE0000
FFFC0000
FFF80000
FFF00000
FFF00000
FFE00000
FFE00000
FFC00000
FFC00000
FFC00000
FFC00000
FF800000
FF800000
FF800000
FF800000
FF800000
FF800000
FF800000
FF800000
FF800000
FF800000
FF800000
FF800000
FF800000
FF800000
FF800000
FF800000
FF800000
FF800000
FF800000
FF800000
FF800000
FF800000
FF800000
FF800000
FF800000
FF800000
FF800000
FF800000
FF800000
FF800000
FF800000
FF800000
FF800000
ENDCHAR
STARTCHAR 0073
ENCODING 115
SWIDTH 532 0
DWIDTH 54 0
BBX 46 57 4 -1
BITMAP
00007FF80000
0007FFFF8000
001FFFFFE000
007FFFFFF800
01FFFFFFFE00
03FFFFFFFF00
07FFFFFFFF80
0FFFFFFFFFC0
0FFFC03FFFE0
1FFE0003FFE0
1FF80000FFF0
3FF000007FF0
3FF000003FF8
3FE000001FF8
3FE000001FF8
3FE000000FF8
3FE000000FC0
3FE000000000
3FF000000000
3FF800000000
3FFE00000000
1FFF80000000
0FFFF0000000
0FFFFE000000
07FFFFE00000
01FFFFFE0000
00FFFFFFC000
003FFFFFF000
0007FFFFFE00
0001FFFFFF00
00001FFFFFC0
000003FFFFE0
0000003FFFE0
00000007FFF0
00000000FFF8
000000003FF8
000000001FF8
000000000FF8
000000000FFC
000000000FFC
3FC000000FFC
FFC000000FFC
FFE000000FFC
7FE000000FF8
7FF000001FF8
7FF800003FF8
3FFE00007FF0
1FFF0000FFF0
1FFFF007FFE0
0FFFFFFFFFE0
07FFFFFFFFC0
03FFFFFFFF80
01FFFFFFFF00
007FFFFFFC00
001FFFFFF800
0007FFFFC000
00003FFC0000
ENDCHAR
STARTCHAR 0074
ENCODING 116
SWIDTH 414 0
DWIDTH 42 0
BBX 37 71 1 -2
BITMAP
001FF00000
001FF00000
001FF00000
001FF00000
001FF00000
001FF00000
001FF00000
001FF00000
001FF00000
001FF00000
001FF00000
001FF00000
001FF00000
001FF00000
001FF00000
FFFFFFFFF8
FFFFFFFFF8
FFFFFFFFF8
FFFFFFFFF8
FFFFFFFFF8
FFFFFFFFF8
FFFFFFFFF8
001FF00000
001FF00000
001FF00000
001FF00000
001FF00000
001FF00000
001FF00000
001FF00000
001FF00000
001FF00000
001FF00000
001FF00000
001FF00000
001FF00000
001FF00000
001FF00000
001FF00000
001FF00000
001FF00000
001FF00000
001FF00000
001FF00000
001FF00000
001FF00000
001FF00000
001FF00000
001FF00000
001FF00000
001FF00000
001FF00000
001FF00000
001FF00000
001FF00000
001FF00000
001FF00000
001FF80000
001FF80000
000FFC0000
000FFC0000
000FFF0000
000FFFC008
0007FFFFF8
0007FFFFF8
0003FFFFF8
0001FFFFF8
0000FFFFF8
00003FFFF8
00000FFFF8
000001FFE0
ENDCHAR
STARTCHAR 0075
ENCODING 117
SWIDTH 601 0
DWIDTH 61 0
BBX 48 56 6 -1
BITMAP
FF80000001FF
FF80000001FF
FF80000001FF
FF80000001FF
FF80000001FF
FF80000001FF
FF80000001FF
FF80000001FF
FF80000001FF
FF80000001FF
FF80000001FF
FF80000001FF
FF80000001FF
FF80000001FF
FF80000001FF
FF80000001FF
FF80000001FF
FF80000001FF
FF80000001FF
FF80000001FF
FF80000001FF
FF80000001FF
FF80000001FF
FF80000001FF
FF80000001FF
FF80000001FF
FF80000001FF
FF80000001FF
FF80000001FF
FF80000001FF
FF80000001FF
FF80000001FF
FFC0000001FF
FFC0000001FF
FFC0000001FF
FFC0000003FF
7FC0000003FF
7FE0000003FF
7FE0000007FF
7FE0000007FF
7FF0000007FF
3FF000000FFF
3FF800001FFF
1FFC00003FFF
1FFE00007FFF
1FFF0000FFFF
0FFFC003FFFF
07FFFFFFFFFF
07FFFFFFFEFF
03FFFFFFFCFF
01FFFFFFF8FF
00FFFFFFF0FF
003FFFFFE0FF
001FFFFF80FF
0007FFFE00FF
00007FE00000
ENDCHAR
STARTCHAR 0076
ENCODING 118
SWIDTH 522 0
DWIDTH 53 0
BBX 49 55 2 0
BITMAP
FF80000000FF80
7FC0000001FF00
7FC0000001FF00
7FC0000001FF00
3FE0000003FE00
3FE0000003FE00
3FE0000003FE00
1FF0000007FC00
1FF0000007FC00
1FF800000FFC00
0FF800000FF800
0FF800000FF800
07FC00001FF000
07FC00001FF000
07FC00001FF000
03FE00003FE000
03FE00003FE000
03FE00003FE000
01FF00007FC000
01FF00007FC000
01FF00007FC000
00FF8000FF8000
00FF8000FF8000
00FF8000FF0000
007FC001FF0000
007FC001FF0000
003FE003FE0000
003FE003FE0000
003FE003FE0000
001FF007FC0000
001FF007FC0000
001FF007FC0000
000FF80FF80000
000FF80FF80000
000FF80FF80000
0007FC1FF00000
0007FC1FF00000
0003FC1FE00000
0003FE3FE00000
0003FE3FE00000
0001FE3FC00000
0001FF7FC00000
0001FF7FC00000
0000FFFF800000
0000FFFF800000
0000FFFF800000
00007FFF000000
00007FFF000000
00003FFE000000
00003FFE000000
00003FFE000000
00001FFC000000
00001FFC000000
00001FFC000000
00000FF8000000
ENDCHAR
STARTCHAR 0077
ENCODING 119
SWIDTH 779 0
DWIDTH 79 0
BBX 75 55 2 0
BITMAP
FF8000007FC000003FE0
FF8000007FC000003FC0
7FC000007FC000007FC0
7FC00000FFE000007FC0
7FC00000FFE000007FC0
3FE00000FFE00000FF80
3FE00000FFE00000FF80
3FE00001FFF00000FF80
1FF00001FFF00001FF00
1FF00001FFF00001FF00
1FF00003FFF80001FF00
0FF00003FFF80001FE00
0FF80003FFF80003FE00
0FF80007FBFC0003FE00
0FF80007FBFC0003FE00
07FC0007FBFC0007FC00
07FC000FF3FE0007FC00
07FC000FF1FE0007FC00
03FE000FF1FE000FF800
03FE000FE1FE000FF800
03FE001FE0FF000FF800
01FF001FE0FF001FF000
01FF001FE0FF001FF000
01FF003FC07F801FF000
01FF003FC07F801FE000
00FF803FC07F803FE000
00FF807F803FC03FE000
00FF807F803FC03FE000
007FC07F803FC07FC000
007FC0FF001FC07FC000
007FC0FF001FE07FC000
003FE0FF001FE0FF8000
003FE0FE000FE0FF8000
003FE1FE000FF0FF8000
001FE1FE000FF1FF0000
001FF1FC0007F1FF0000
001FF3FC0007F9FF0000
001FF3FC0007F9FF0000
000FFBF80007FBFE0000
000FFFF80003FFFE0000
000FFFF80003FFFE0000
0007FFF80003FFFC0000
0007FFF00001FFFC0000
0007FFF00001FFFC0000
0003FFF00001FFF80000
0003FFE00000FFF80000
0003FFE00000FFF80000
0003FFE00000FFF80000
0001FFC000007FF00000
0001FFC000007FF00000
0001FFC000007FF00000
0000FF8000003FE00000
0000FF8000003FE00000
0000FF8000003FE00000
00007F0000001FC00000
ENDCHAR
STARTCHAR 0078
ENCODING 120
SWIDTH 532 0
DWIDTH 54 0
BBX 52 55 1 0
BITMAP
7FF00000007FE0
3FF0000000FFE0
3FF8000001FFC0
1FFC000003FF80
0FFE000003FF00
07FE000007FF00
07FF00000FFE00
03FF80000FFC00
01FFC0001FF800
00FFC0003FF800
00FFE0007FF000
007FF0007FE000
003FF800FFC000
001FF801FFC000
001FFC03FF8000
000FFE03FF0000
0007FF07FE0000
0003FF0FFE0000
0003FF9FFC0000
0001FFDFF80000
0000FFFFF00000
00007FFFF00000
00007FFFE00000
00003FFFC00000
00001FFF800000
00000FFF800000
00000FFF000000
000007FF000000
00000FFF000000
00001FFF800000
00003FFFC00000
00003FFFE00000
00007FFFE00000
0000FFFFF00000
0001FFFFF80000
0001FF9FFC0000
0003FF8FFC0000
0007FF07FE0000
000FFE07FF0000
000FFC03FF8000
001FFC01FF8000
003FF800FFC000
007FF000FFE000
007FE0007FF000
00FFE0003FF000
01FFC0001FF800
03FF80001FFC00
03FF00000FFE00
07FF000007FE00
0FFE000007FF00
1FFC000003FF80
1FF8000001FFC0
3FF8000000FFC0
7FF0000000FFE0
FFE00000007FF0
ENDCHAR
STARTCHAR 0079
ENCODING 121
SWIDTH 542 0
DWIDTH 55 0
BBX 51 79 2 -24
BITMAP
FF800000003FE0
FFC00000003FE0
7FC00000007FC0
7FC00000007FC0
7FE0000000FFC0
3FE0000000FF80
3FF0000000FF80
1FF0000001FF00
1FF0000001FF00
1FF8000001FF00
0FF8000003FE00
0FFC000003FE00
07FC000007FE00
07FC000007FC00
07FE000007FC00
03FE00000FF800
03FF00000FF800
01FF00000FF800
01FF00001FF000
01FF80001FF000
00FF80003FF000
00FFC0003FE000
007FC0003FE000
007FC0007FC000
007FE0007FC000
003FE0007FC000
003FF000FF8000
001FF000FF8000
001FF001FF8000
000FF801FF0000
000FF801FF0000
000FF803FE0000
0007FC03FE0000
0007FC03FE0000
0003FE07FC0000
0003FE07FC0000
0003FE07FC0000
0001FF0FF80000
0001FF0FF80000
0000FF9FF00000
0000FF9FF00000
0000FF9FF00000
00007FFFE00000
00007FFFE00000
00003FFFE00000
00003FFFC00000
00003FFFC00000
00001FFF800000
00001FFF800000
00000FFF800000
00000FFF000000
00000FFF000000
000007FE000000
000007FE000000
000003FE000000
000007FC000000
000007FC000000
000007FC000000
00000FF8000000
00000FF8000000
00000FF0000000
00001FF0000000
00001FF0000000
00003FE0000000
00003FE0000000
00003FE0000000
00007FC0000000
00007FC0000000
00007F80000000
0000FF80000000
0000FF80000000
0001FF00000000
0001FF00000000
0001FF00000000
0003FE00000000
0003FE00000000
0003FC00000000
0007FC00000000
0007FC00000000
ENDCHAR
STARTCHAR 007A
ENCODING 122
SWIDTH 532 0
DWIDTH 54 0
BBX 48 55 2 0
BITMAP
1FFFFFFFFFFF
1FFFFFFFFFFF
1FFFFFFFFFFE
1FFFFFFFFFFC
1FFFFFFFFFFC
1FFFFFFFFFF8
1FFFFFFFFFF0
1FFFFFFFFFF0
000000007FE0
00000000FFC0
00000000FF80
00000001FF80
00000003FF00
00000007FE00
00000007FC00
0000000FFC00
0000001FF800
0000003FF000
0000003FE000
0000007FE000
000000FFC000
000001FF8000
000001FF8000
000003FF0000
000007FE0000
000007FC0000
00000FFC0000
00001FF80000
00003FF00000
00003FE00000
00007FE00000
0000FFC00000
0001FF800000
0001FF000000
0003FF000000
0007FE000000
000FFC000000
000FF8000000
001FF8000000
003FF0000000
007FE0000000
007FE0000000
00FFC0000000
01FF80000000
01FF00000000
03FF00000000
07FE00000000
0FFFFFFFFFFC
0FFFFFFFFFFC
1FFFFFFFFFFC
3FFFFFFFFFFC
7FFFFFFFFFFC
7FFFFFFFFFFC
FFFFFFFFFFFC
FFFFFFFFFFFC
ENDCHAR
STARTCHAR 007B
ENCODING 123
SWIDTH 433 0
DWIDTH 44 0
BBX 25 113 14 -22
BITMAP
00003F80
0007FF80
001FFF80
003FFF80
007FFF80
00FFFF80
00FFFF80
01FFFF80
01FFFF80
01FF8000
03FF0000
03FE0000
03FE0000
03FE0000
03FE0000
03FE0000
03FE0000
03FE0000
03FE0000
03FE0000
03FE0000
03FE0000
03FE0000
03FE0000
03FE0000
03FE0000
03FE0000
03FE0000
03FE0000
03FE0000
03FE0000
03FE0000
03FE0000
03FE0000
03FE0000
03FE0000
03FE0000
03FE0000
03FE0000
03FE0000
03FE0000
03FE0000
03FE0000
03FE0000
03FE0000
03FE0000
03FE0000
03FE0000
07FC0000
0FFC0000
0FFC0000
1FF80000
3FF80000
7FF00000
7FE00000
FFE00000
FFC00000
FFC00000
7FE00000
7FF00000
3FF00000
1FF80000
1FFC0000
0FFC0000
07FC0000
07FC0000
03FE0000
03FE0000
03FE0000
03FE0000
03FE0000
03FE0000
03FE0000
03FE0000
03FE0000
03FE0000
03FE0000
03FE0000
03FE0000
03FE0000
03FE0000
03FE0000
03FE0000
03FE0000
03FE0000
03FE0000
03FE0000
03FE0000
03FE0000
03FE0000
03FE0000
03FE0000
03FE0000
03FE0000
03FE0000
03FE0000
03FE0000
03FE0000
03FE0000
03FE0000
03FE0000
03FE0000
03FF0000
03FF8000
01FFFF80
01FFFF80
01FFFF80
00FFFF80
007FFF80
003FFF80
001FFF80
000FFF80
0001FF80
ENDCHAR
STARTCHAR 007C
ENCODING 124
SWIDTH 266 0
DWIDTH 27 0
BBX 9 73 9 0
BITMAP
FF80
FF80
FF80
FF80
FF80
FF80
FF80
FF80
FF80
FF80
FF80
FF80
FF80
FF80
FF80
FF80
FF80
FF80
FF80
FF80
FF80
FF80
FF80
FF80
FF80
FF80
FF80
FF80
FF80
FF80
FF80
FF80
FF80
FF80
FF80
FF80
FF80
FF80
FF80
FF80
FF80
FF80
FF80
FF80
FF80
FF80
FF80
FF80
FF80
FF80
FF80
FF80
FF80
FF80
FF80
FF80
FF80
FF80
FF80
FF80
FF80
FF80
FF80
FF80
FF80
FF80
FF80
FF80
FF80
FF80
FF80
FF80
FF80
ENDCHAR
STARTCHAR 007D
ENCODING 125
SWIDTH 433 0
DWIDTH 44 0
BBX 25 113 4 -22
BITMAP
FF000000
FFF00000
FFFC0000
FFFE0000
FFFF0000
FFFF8000
FFFFC000
FFFFC000
FFFFE000
00FFE000
003FE000
003FE000
001FE000
001FE000
001FE000
001FE000
001FE000
001FE000
001FE000
001FE000
001FE000
001FE000
001FE000
001FE000
001FE000
001FE000
001FE000
001FE000
001FE000
001FE000
001FE000
001FE000
001FE000
001FE000
001FE000
001FE000
001FE000
001FE000
001FE000
001FE000
001FE000
001FE000
001FE000
001FE000
001FE000
001FE000
001FF000
001FF000
001FF800
001FF800
000FFC00
000FFE00
0007FE00
0003FF00
0003FF80
0001FF80
0000FF80
0001FF80
0001FF80
0003FF00
0007FF00
000FFE00
000FFC00
000FFC00
001FF800
001FF000
001FF000
001FE000
001FE000
001FE000
001FE000
001FE000
001FE000
001FE000
001FE000
001FE000
001FE000
001FE000
001FE000
001FE000
001FE000
001FE000
001FE000
001FE000
001FE000
001FE000
001FE000
001FE000
001FE000
001FE000
001FE000
001FE000
001FE000
001FE000
001FE000
001FE000
001FE000
001FE000
001FE000
001FE000
001FE000
003FE000
003FE000
007FE000
FFFFE000
FFFFC000
FFFFC000
FFFF8000
FFFF8000
FFFF0000
FFFE0000
FFF80000
FFE00000
ENDCHAR
STARTCHAR 007E
ENCODING 126
SWIDTH 680 0
DWIDTH 69 0
BBX 45 18 12 23
BITMAP
01FE00000000
07FFC0000FF8
1FFFF0000FF8
3FFFFC0007F8
3FFFFE000FF8
7FFFFF800FF8
7FFFFFE00FF8
FFFFFFF81FF8
FFFFFFFFFFF8
FFFFFFFFFFF8
FFC0FFFFFFF8
FF803FFFFFF0
FF800FFFFFF0
FF0007FFFFE0
FF0001FFFFC0
FF00007FFF80
FF80001FFF00
00000003FC00
ENDCHAR
STARTCHAR 00A0
ENCODING 160
SWIDTH 197 0
DWIDTH 20 0
BBX 0 0 0 0
BITMAP
ENDCHAR
STARTCHAR 00A1
ENCODING 161
SWIDTH 325 0
DWIDTH 33 0
BBX 9 73 12 -18
BITMAP
FF80
FF80
FF80
FF80
FF80
FF80
FF80
FF80
FF80
0000
0000
0000
0000
0000
0000
0000
0000
0000
FF80
FF80
FF80
FF80
FF80
FF80
FF80
FF80
FF80
FF80
FF80
FF80
FF80
FF80
FF80
FF80
FF80
FF80
FF80
FF80
FF80
FF80
FF80
FF80
FF80
FF80
FF80
FF80
FF80
FF80
FF80
FF80
FF80
FF80
FF80
FF80
FF80
FF80
FF80
FF80
FF80
FF80
FF80
FF80
FF80
FF80
FF80
FF80
FF80
FF80
FF80
FF80
FF80
FF80
FF80
ENDCHAR
STARTCHAR 00A2
ENCODING 162
SWIDTH 562 0
DWIDTH 57 0
BBX 49 76 4 -3
BITMAP
000001FC000000
000001FC000000
000001FC000000
000001FC000000
000001FC000000
000001FC000000
000001FC000000
000001FC000000
000001FC000000
000003FE000000
00007FFFE00000
0001FFFFFC0000
0007FFFFFF0000
001FFFFFFF8000
003FFFFFFFE000
007FFFFFFFF000
00FFFFFFFFF800
01FFFFFFFFFC00
03FFF801FFFC00
07FFC0003FFE00
07FF80001FFF00
0FFE00000FFF00
1FFC000007FF80
1FFC000003FF80
1FF8000001FF80
3FF0000000FF00
3FF0000000F800
7FE00000000000
7FE00000000000
7FE00000000000
7FC00000000000
7FC00000000000
FFC00000000000
FFC00000000000
FFC00000000000
FFC00000000000
FFC00000000000
FFC00000000000
FFC00000000000
FFC00000000000
FFC00000000000
FFC00000000000
FFC00000000000
FFC00000000000
7FC00000000000
7FC00000000000
7FE00000000000
7FE00000000000
7FE00000000000
3FF0000000E000
3FF0000000FE00
1FF8000001FF80
1FFC000003FF80
1FFC000003FF80
0FFE000007FF00
0FFF80000FFE00
07FFC0003FFE00
03FFF000FFFC00
01FFFFFFFFF800
00FFFFFFFFF800
007FFFFFFFF000
003FFFFFFFC000
001FFFFFFF8000
0007FFFFFF0000
0001FFFFFC0000
00007FFFE00000
000007FE000000
000001FC000000
000001FC000000
000001FC000000
000001FC000000
000001FC000000
000001FC000000
000001FC000000
000001FC000000
000001FC000000
ENDCHAR
STARTCHAR 00A3
ENCODING 163
SWIDTH 572 0
DWIDTH 58 0
BBX 50 75 4 0
BITMAP
0000003FE00000
000003FFFC0000
00000FFFFF0000
00001FFFFF8000
00007FFFFFC000
0000FFFFFFE000
0001FFFFFFF000
0001FFFFFFF800
0003FFFFFFFC00
0007FFC03FFC00
0007FF000FFE00
000FFE0007FE00
000FFC0003FF00
000FF80001FF00
001FF80001FF80
001FF80000FF80
001FF00000FFC0
001FF000007FC0
001FF000007F80
001FF000003C00
001FF000002000
001FF000000000
001FF000000000
001FF000000000
001FF000000000
001FF000000000
001FF000000000
001FF000000000
001FF000000000
001FF000000000
001FF000000000
001FF000000000
001FF000000000
FFFFFFFFF80000
FFFFFFFFF80000
FFFFFFFFF80000
FFFFFFFFF80000
FFFFFFFFF80000
FFFFFFFFF80000
FFFFFFFFF80000
FFFFFFFFF80000
FFFFFFFFF80000
001FF000000000
001FF000000000
001FF000000000
001FF000000000
001FF000000000
001FF000000000
001FF000000000
001FF000000000
001FF000000000
001FF000000000
001FF000000000
001FF000000000
001FF000000000
001FF000000000
001FF000000000
001FF000000000
001FF000000000
001FF000000000
001FF000000000
003FF000000000
003FF000000000
007FF000000000
00FFF000000000
01FFF000000000
FFFFFFFFFFFE00
FFFFFFFFFFFE00
FFFFFFFFFFFE00
FFFFFFFFFFFE00
FFFFFFFFFFFE00
FFFFFFFFFFFE00
FFFFFFFFFFFE00
FFFFFFFFFFFE00
FFFFFFFFFFFE00
ENDCHAR
STARTCHAR 00A4
ENCODING 164
SWIDTH 650 0
DWIDTH 66 0
BBX 60 59 3 7
BITMAP
0600000000000600
0F00000000000F00
1F80000000001F80
3FC0007FE0003FC0
7FE007FFFE007FE0
FFF01FFFFF80FFF0
7FF87FFFFFE1FFE0
3FFDFFFFFFFBFFC0
1FFFFFFFFFFFFF80
0FFFFFFFFFFFFF00
07FFFFFFFFFFFE00
03FFFFC03FFFFC00
01FFFE0007FFF800
00FFF80001FFF000
00FFE000007FF000
01FFC000003FF800
01FF8000001FF800
03FF0000000FFC00
03FE00000007FC00
07FC00000003FE00
07FC00000003FE00
07F800000001FE00
0FF800000001FF00
0FF000000000FF00
0FF000000000FF00
0FF000000000FF00
0FF000000000FF00
1FE0000000007F80
1FE0000000007F80
1FE0000000007F80
1FE0000000007F80
1FE0000000007F80
0FF000000000FF00
0FF000000000FF00
0FF000000000FF00
0FF000000000FF00
0FF800000001FF00
07F800000001FE00
07FC00000003FE00
07FC00000003FE00
03FE00000007FC00
03FF0000000FFC00
01FF8000001FF800
01FFC000003FF800
00FFE000007FF000
00FFF80001FFF000
01FFFC0007FFF800
03FFFF803FFFFC00
07FFFFFFFFFFFE00
0FFFFFFFFFFFFF00
1FFFFFFFFFFFFF80
3FFDFFFFFFFBFFC0
7FF87FFFFFE1FFE0
FFF01FFFFF80FFF0
7FE007FFFE007FE0
3FC0007FE0003FC0
1F80000000001F80
0F00000000000F00
0600000000000600
ENDCHAR
STARTCHAR 00A5
ENCODING 165
SWIDTH 572 0
DWIDTH 58 0
BBX 58 73 0 0
BITMAP
FFE000000001FFC0
7FE000000001FF80
7FF000000003FF80
3FF800000003FF00
1FF800000007FF00
1FFC00000007FE00
0FFC0000000FFC00
0FFE0000001FFC00
07FE0000001FF800
07FF0000003FF800
03FF8000003FF000
01FF8000007FF000
01FFC00000FFE000
00FFC00000FFC000
00FFE00001FFC000
007FF00001FF8000
003FF00003FF8000
003FF80003FF0000
001FF80007FF0000
001FFC000FFE0000
000FFC000FFC0000
000FFE001FFC0000
0007FF001FF80000
0003FF003FF80000
0003FF803FF00000
0001FF807FE00000
0001FFC0FFE00000
0000FFC0FFC00000
00007FE1FFC00000
00007FF1FF800000
00003FF3FF800000
00003FFFFF000000
00001FFFFE000000
00001FFFFE000000
00000FFFFC000000
000007FFFC000000
000007FFF8000000
000003FFF8000000
000003FFF0000000
007FFFFFFFFF8000
007FFFFFFFFF8000
007FFFFFFFFF8000
007FFFFFFFFF8000
007FFFFFFFFF8000
007FFFFFFFFF8000
007FFFFFFFFF8000
0000007FC0000000
0000007FC0000000
0000007FC0000000
0000007FC0000000
0000007FC0000000
0000007FC0000000
0000007FC0000000
0000007FC0000000
0000007FC0000000
007FFFFFFFFF8000
007FFFFFFFFF8000
007FFFFFFFFF8000
007FFFFFFFFF8000
007FFFFFFFFF8000
007FFFFFFFFF8000
007FFFFFFFFF8000
0000007FC0000000
0000007FC0000000
0000007FC0000000
0000007FC0000000
0000007FC0000000
0000007FC0000000
0000007FC0000000
0000007FC0000000
0000007FC0000000
0000007FC0000000
0000007FC0000000
ENDCHAR
STARTCHAR 00A6
ENCODING 166
SWIDTH 266 0
DWIDTH 27 0
BBX 9 90 9 -17
BITMAP
FF80
FF80
FF80
FF80
FF80
FF80
FF80
FF80
FF80
FF80
FF80
FF80
FF80
FF80
FF80
FF80
FF80
FF80
FF80
FF80
FF80
FF80
FF80
FF80
FF80
FF80
FF80
FF80
FF80
FF80
FF80
FF80
FF80
FF80
FF80
FF80
FF80
FF80
FF80
0000
0000
0000
0000
0000
0000
0000
0000
0000
0000
0000
0000
0000
FF80
FF80
FF80
FF80
FF80
FF80
FF80
FF80
FF80
FF80
FF80
FF80
FF80
FF80
FF80
FF80
FF80
FF80
FF80
FF80
FF80
FF80
FF80
FF80
FF80
FF80
FF80
FF80
FF80
FF80
FF80
FF80
FF80
FF80
FF80
FF80
FF80
FF80
ENDCHAR
STARTCHAR 00A7
ENCODING 167
SWIDTH 532 0
DWIDTH 54 0
BBX 45 82 5 -15
BITMAP
0000FFC00000
000FFFFC0000
003FFFFF0000
00FFFFFFC000
01FFFFFFE000
03FFFFFFF000
07FFFFFFF800
0FFFFFFFFC00
1FFF80FFFE00
1FFC001FFF00
3FF80007FF00
3FF00003FF80
3FE00001FF80
7FE00001FF80
7FC00000FFC0
7FC00000FFC0
7FC00000FE00
7FE000004000
7FE000000000
3FF000000000
3FFC00000000
3FFF00000000
1FFFC0000000
0FFFFC000000
07FFFFC00000
03FFFFF80000
01FFFFFF8000
007FFFFFE000
007FFFFFF800
01FFFFFFFE00
07FFFFFFFF80
0FFF0FFFFFC0
1FFC00FFFFE0
3FF8000FFFE0
7FE00001FFF0
7FC000007FF0
FFC000003FF8
FF8000001FF8
FF8000001FF8
FF8000000FF8
FF8000000FF8
FF8000000FF8
FFC000000FF8
FFC000001FF8
FFE000001FF8
7FF800001FF0
7FFF00003FF0
3FFFE0007FF0
1FFFFE00FFE0
0FFFFFE3FFC0
07FFFFFFFF80
01FFFFFFFF00
007FFFFFFE00
001FFFFFF800
0003FFFFFE00
00003FFFFF00
000007FFFF80
0000007FFFC0
0000000FFFC0
00000003FFE0
00000000FFE0
000000007FE0
000000003FE0
000000003FF0
004000003FF0
3FC000003FF0
7FE000003FF0
7FE000003FE0
7FF000003FE0
3FF800007FE0
3FF80000FFE0
3FFE0001FFC0
1FFF8003FFC0
0FFFE01FFF80
0FFFFFFFFF80
07FFFFFFFF00
03FFFFFFFE00
00FFFFFFFC00
007FFFFFF800
001FFFFFE000
0007FFFF8000
00007FF80000
ENDCHAR
STARTCHAR 00A8
ENCODING 168
SWIDTH 522 0
DWIDTH 53 0
BBX 29 9 12 83
BITMAP
FF800FF8
FF800FF8
FF800FF8
FF800FF8
FF800FF8
FF800FF8
FF800FF8
FF800FF8
FF800FF8
ENDCHAR
STARTCHAR 00A9
ENCODING 169
SWIDTH 828 0
DWIDTH 84 0
BBX 78 78 3 -4
BITMAP
000000007FF800000000
0000000FFFFFC0000000
0000007FFFFFF8000000
000001FFFFFFFE000000
000007FFFFFFFF800000
00001FFFFFFFFFE00000
00007FFFFFFFFFF80000
0000FFFFFFFFFFFC0000
0003FFFFFFFFFFFF0000
0007FFFF0003FFFF8000
000FFFF800003FFFC000
001FFFC000000FFFE000
003FFF00000003FFF000
007FFC00000000FFF800
00FFF8000000007FFC00
00FFF0000000001FFE00
01FFC0000000000FFE00
03FF80000FF00007FF00
03FF0000FFFF0003FF80
07FF0003FFFFC001FF80
0FFE000FFFFFE001FFC0
0FFC001FFFFFF000FFC0
1FF8003FFFFFF8007FE0
1FF8007FFFFFFC007FE0
1FF000FFF01FFE003FF0
3FF000FFC007FF003FF0
3FE001FF0001FF001FF0
3FE003FE0000FF801FF8
7FC003FE0000FF800FF8
7FC003FC00007F000FF8
7FC007F8000038000FF8
7F8007F80000000007FC
FF8007F80000000007FC
FF8007F00000000007FC
FF800FF00000000007FC
FF800FF00000000007FC
FF800FF00000000007FC
FF800FF00000000007FC
FF800FF00000000007FC
FF800FF00000000007FC
FF800FF00000000007FC
FF800FF00000000007FC
FF800FF00000000007FC
FF800FF00000000007FC
FF8007F80000000007FC
7F8007F80000000007FC
7FC007F8000020000FF8
7FC003FC00007E000FF8
7FC003FE00007F800FF8
3FE003FE0000FF801FF8
3FE001FF0001FF001FF0
3FE001FFC003FF001FF0
1FF000FFF01FFE003FF0
1FF8007FFFFFFC003FE0
1FF8003FFFFFF8007FE0
0FFC001FFFFFF000FFC0
0FFC000FFFFFE000FFC0
07FE0007FFFFC001FF80
07FF0001FFFF0003FF80
03FF80003FF80007FF00
01FFC0000000000FFE00
01FFE0000000001FFE00
00FFF0000000003FFC00
007FFC00000000FFF800
003FFE00000001FFF000
001FFF80000007FFE000
000FFFE000001FFFC000
0007FFFC0000FFFF8000
0003FFFFC00FFFFF0000
0001FFFFFFFFFFFE0000
00007FFFFFFFFFFC0000
00003FFFFFFFFFF00000
00000FFFFFFFFFE00000
000003FFFFFFFF800000
000000FFFFFFFE000000
0000003FFFFFF0000000
00000007FFFF80000000
000000000FE000000000
ENDCHAR
STARTCHAR 00AA
ENCODING 170
SWIDTH 315 0
DWIDTH 32 0
BBX 24 29 4 27
BITMAP
00FF80
03FFF0
0FFFF8
1FFFFC
3FFFFE
3FC1FE
7F007F
7E003F
0E003F
00003F
00007F
003FFF
03FFFF
0FFFFF
1FFFFF
3FFE3F
7FC03F
7E003F
FC003F
FC003F
FC007F
FC007F
FC00FF
7E03FF
7FFFDF
3FFFDF
1FFF1F
0FFE1F
038000
ENDCHAR
STARTCHAR 00AB
ENCODING 171
SWIDTH 552 0
DWIDTH 56 0
BBX 41 44 8 5
BITMAP
000060000800
0000F0001E00
0001F8003F00
0001FE007F80
0003FC00FF80
0007F800FF00
000FF801FE00
001FF003FC00
001FE007FC00
003FC00FF800
007F800FF000
00FF801FE000
00FF003FC000
01FE007FC000
03FC00FF8000
07FC00FF0000
0FF801FE0000
0FF003FC0000
1FE007FC0000
3FC00FF80000
7FC00FF00000
FF801FE00000
7F801FF00000
7FC00FF00000
3FE007F80000
1FE003FC0000
0FF003FE0000
07F801FF0000
07FC00FF0000
03FE007F8000
01FE003FC000
00FF003FE000
007F801FF000
007FC00FF000
003FE007F800
001FE007FC00
000FF003FE00
0007F801FE00
0007FC00FF00
0003FE007F80
0001FC007F80
0000F8003E00
000070001C00
000040000800
ENDCHAR
STARTCHAR 00AC
ENCODING 172
SWIDTH 601 0
DWIDTH 61 0
BBX 49 19 6 20
BITMAP
FFFFFFFFFFFF80
FFFFFFFFFFFF80
FFFFFFFFFFFF80
FFFFFFFFFFFF80
FFFFFFFFFFFF80
FFFFFFFFFFFF80
FFFFFFFFFFFF80
00000000007F80
00000000007F80
00000000007F80
00000000007F80
00000000007F80
00000000007F80
00000000007F80
00000000007F80
00000000007F80
00000000007F80
00000000007F80
00000000007F80
ENDCHAR
STARTCHAR 00AD
ENCODING 173
SWIDTH 424 0
DWIDTH 43 0
BBX 30 7 6 28
BITMAP
FFFFFFFC
FFFFFFFC
FFFFFFFC
FFFFFFFC
FFFFFFFC
FFFFFFFC
FFFFFFFC
ENDCHAR
STARTCHAR 00AE
ENCODING 174
SWIDTH 631 0
DWIDTH 64 0
BBX 50 51 7 28
BITMAP
00000FFC000000
00007FFFC00000
0003FFFFF00000
000FFFFFFC0000
001FFFFFFE0000
003FFFFFFF8000
00FFFFFFFFC000
01FFE001FFE000
03FF80007FF000
03FE00001FF800
07FC000007F800
0FF8000003FC00
1FF0000001FE00
1FE07FFC00FE00
3FC07FFF00FF00
3F807FFF807F00
3F807FFFC03F80
7F007807C03F80
7F007803E03F80
7F007801E01FC0
7E007801E01FC0
FE007801E01FC0
FE007801E01FC0
FE007803E00FC0
FE007807C00FC0
FE007FFFC00FC0
FE007FFF800FC0
FE007FFF000FC0
FE007FFE001FC0
FE00781E001FC0
7E00781F001FC0
7F00780F001F80
7F00780F803F80
7F807807803F80
3F807807C07F80
3FC07803C07F00
1FC07803E0FF00
1FE0000001FE00
0FF0000003FE00
0FF8000007FC00
07FC00000FF800
03FF00003FF000
01FFC000FFF000
00FFF807FFE000
007FFFFFFFC000
003FFFFFFF0000
001FFFFFFE0000
0007FFFFF80000
0001FFFFE00000
00003FFF800000
000001E0000000
ENDCHAR
STARTCHAR 00AF
ENCODING 175
SWIDTH 493 0
DWIDTH 50 0
BBX 26 7 12 85
BITMAP
FFFFFFC0
FFFFFFC0
FFFFFFC0
FFFFFFC0
FFFFFFC0
FFFFFFC0
FFFFFFC0
ENDCHAR
STARTCHAR 00B0
ENCODING 176
SWIDTH 453 0
DWIDTH 46 0
BBX 37 37 3 38
BITMAP
0003FC0000
001FFFC000
007FFFE000
00FFFFF800
03FFFFFC00
07FFFFFE00
0FFFFFFF00
0FFFFFFF80
1FFE07FFC0
3FF800FFC0
3FF0007FE0
7FE0003FE0
7FC0001FF0
7F80001FF0
FF80000FF0
FF00000FF0
FF00000FF0
FF000007F8
FF000007F8
FF000007F0
FF00000FF0
FF00000FF0
FF80000FF0
7F80001FF0
7FC0001FF0
7FE0003FE0
3FF0007FE0
3FF801FFC0
1FFE07FFC0
0FFFFFFF80
0FFFFFFF00
07FFFFFE00
03FFFFFC00
00FFFFF800
007FFFE000
001FFFC000
0003FE0000
ENDCHAR
STARTCHAR 00B1
ENCODING 177
SWIDTH 601 0
DWIDTH 61 0
BBX 49 47 6 8
BITMAP
000007F0000000
000007F0000000
000007F0000000
000007F0000000
000007F0000000
000007F0000000
000007F0000000
000007F0000000
000007F0000000
000007F0000000
000007F0000000
000007F0000000
000007F0000000
FFFFFFFFFFFF80
FFFFFFFFFFFF80
FFFFFFFFFFFF80
FFFFFFFFFFFF80
FFFFFFFFFFFF80
FFFFFFFFFFFF80
FFFFFFFFFFFF80
000007F0000000
000007F0000000
000007F0000000
000007F0000000
000007F0000000
000007F0000000
000007F0000000
000007F0000000
000007F0000000
000007F0000000
000007F0000000
000007F0000000
000007F0000000
00000000000000
00000000000000
00000000000000
00000000000000
00000000000000
00000000000000
00000000000000
FFFFFFFFFFFF80
FFFFFFFFFFFF80
FFFFFFFFFFFF80
FFFFFFFFFFFF80
FFFFFFFFFFFF80
FFFFFFFFFFFF80
FFFFFFFFFFFF80
ENDCHAR
STARTCHAR 00B2
ENCODING 178
SWIDTH 404 0
DWIDTH 41 0
BBX 31 47 5 27
BITMAP
001FF000
00FFFE00
01FFFF00
07FFFFC0
0FFFFFE0
1FFFFFF0
1FF83FF0
3FE00FF8
7F8003F8
7F8001FC
7F0001FC
7E0000FC
FE0000FE
FE0000FE
FE0000FE
000000FE
000000FE
000000FE
000000FE
000001FC
000003FC
000003FC
000007F8
00000FF0
00001FF0
00007FE0
0000FFC0
0001FF80
0003FF00
0007FE00
000FF800
001FF000
003FE000
007FC000
00FF8000
01FF0000
07FE0000
0FFC0000
1FF80000
3FF00000
7FC00000
FFFFFFFE
FFFFFFFE
FFFFFFFE
FFFFFFFE
FFFFFFFE
FFFFFFFE
ENDCHAR
STARTCHAR 00B3
ENCODING 179
SWIDTH 394 0
DWIDTH 40 0
BBX 30 46 4 27
BITMAP
3FFFFFF8
3FFFFFF8
3FFFFFF8
3FFFFFF8
3FFFFFF8
3FFFFFF8
000007F8
00000FF0
00001FE0
00007FC0
0000FF80
0001FF00
0003FC00
0007F800
000FF000
001FE000
007FC000
00FFF000
01FFFE00
00FFFF00
00FFFFC0
007FFFE0
00387FE0
00001FF0
000007F0
000003F8
000003F8
000001F8
000001FC
000001FC
000001FC
000001FC
000001FC
000001FC
0C0001FC
FE0003F8
FF0003F8
7F0007F8
7FC00FF0
3FF03FF0
1FFFFFE0
1FFFFFC0
07FFFF80
03FFFF00
00FFFC00
003FE000
ENDCHAR
STARTCHAR 00B4
ENCODING 180
SWIDTH 503 0
DWIDTH 51 0
BBX 14 17 20 81
BITMAP
01FC
03FC
03F8
07F8
07F0
07F0
0FF0
0FE0
1FE0
1FC0
1FC0
3FC0
3F80
7F80
7F00
7F00
FF00
ENDCHAR
STARTCHAR 00B5
ENCODING 181
SWIDTH 611 0
DWIDTH 62 0
BBX 48 79 7 -24
BITMAP
FF80000001FF
FF80000001FF
FF80000001FF
FF80000001FF
FF80000001FF
FF80000001FF
FF80000001FF
FF80000001FF
FF80000001FF
FF80000001FF
FF80000001FF
FF80000001FF
FF80000001FF
FF80000001FF
FF80000001FF
FF80000001FF
FF80000001FF
FF80000001FF
FF80000001FF
FF80000001FF
FF80000001FF
FF80000001FF
FF80000001FF
FF80000001FF
FF80000001FF
FF80000001FF
FF80000001FF
FF80000001FF
FF80000001FF
FF80000001FF
FF80000001FF
FF80000001FF
FF80000001FF
FFC0000001FF
FFC0000001FF
FFC0000003FF
FFC0000003FF
FFE0000003FF
FFE0000007FF
FFE0000007FF
FFF0000007FF
FFF000000FFF
FFF800001FFF
FFFC00003FFF
FFFE00007FFF
FFFF0000FFFF
FFFFC003FFFF
FFFFFFFFFFFF
FFFFFFFFFEFF
FFFFFFFFFCFF
FFFFFFFFF8FF
FF7FFFFFF0FF
FF3FFFFFE0FF
FF0FFFFF80FF
FF03FFFE00FF
FF007FE00000
FF0000000000
FF0000000000
FF0000000000
FF0000000000
FF0000000000
FF0000000000
FF0000000000
FF0000000000
FF0000000000
FF0000000000
FF0000000000
FF0000000000
FF0000000000
FF0000000000
FF0000000000
FF0000000000
FF0000000000
FF0000000000
FF0000000000
FF0000000000
FF0000000000
FF0000000000
FF0000000000
ENDCHAR
STARTCHAR 00B6
ENCODING 182
SWIDTH 660 0
DWIDTH 67 0
BBX 53 87 7 -14
BITMAP
00007FFFF80FF8
0007FFFFF80FF8
001FFFFFF80FF8
007FFFFFF80FF8
00FFFFFFF80FF8
03FFFFFFF80FF8
07FFFFFFF80FF8
07FFFFFFF80FF8
0FFFFFFFF80FF8
1FFFFFFFF80FF8
1FFFFFFFF80FF8
3FFFFFFFF80FF8
3FFFFFFFF80FF8
7FFFFFFFF80FF8
7FFFFFFFF80FF8
7FFFFFFFF80FF8
FFFFFFFFF80FF8
FFFFFFFFF80FF8
FFFFFFFFF80FF8
FFFFFFFFF80FF8
FFFFFFFFF80FF8
FFFFFFFFF80FF8
FFFFFFFFF80FF8
FFFFFFFFF80FF8
FFFFFFFFF80FF8
FFFFFFFFF80FF8
FFFFFFFFF80FF8
FFFFFFFFF80FF8
FFFFFFFFF80FF8
FFFFFFFFF80FF8
7FFFFFFFF80FF8
7FFFFFFFF80FF8
7FFFFFFFF80FF8
3FFFFFFFF80FF8
3FFFFFFFF80FF8
1FFFFFFFF80FF8
1FFFFFFFF80FF8
0FFFFFFFF80FF8
07FFFFFFF80FF8
07FFFFFFF80FF8
03FFFFFFF80FF8
00FFFFFFF80FF8
007FFFFFF80FF8
001FFFFFF80FF8
0007FFFFF80FF8
00007FFFF80FF8
0000000FF80FF8
0000000FF80FF8
0000000FF80FF8
0000000FF80FF8
0000000FF80FF8
0000000FF80FF8
0000000FF80FF8
0000000FF80FF8
0000000FF80FF8
0000000FF80FF8
0000000FF80FF8
0000000FF80FF8
0000000FF80FF8
0000000FF80FF8
0000000FF80FF8
0000000FF80FF8
0000000FF80FF8
0000000FF80FF8
0000000FF80FF8
0000000FF80FF8
0000000FF80FF8
0000000FF80FF8
0000000FF80FF8
0000000FF80FF8
0000000FF80FF8
0000000FF80FF8
0000000FF80FF8
0000000FF80FF8
0000000FF80FF8
0000000FF80FF8
0000000FF80FF8
0000000FF80FF8
0000000FF80FF8
0000000FF80FF8
0000000FF80FF8
0000000FF80FF8
0000000FF80FF8
0000000FF80FF8
0000000FF80FF8
0000000FF80FF8
0000000FF80FF8
ENDCHAR
STARTCHAR 00B7
ENCODING 183
SWIDTH 236 0
DWIDTH 24 0
BBX 12 12 6 26
BITMAP
0F80
3FC0
7FE0
7FF0
FFF0
FFF0
FFF0
FFF0
7FF0
7FE0
3FC0
1F80
ENDCHAR
STARTCHAR 00B8
ENCODING 184
SWIDTH 404 0
DWIDTH 41 0
BBX 17 26 12 -25
BITMAP
01F800
03F000
03F000
03F000
07E000
07E000
07E000
0FF000
0FF800
1FFC00
1FFE00
03FF00
00FF00
007F00
003F80
003F80
003F80
007F80
20FF00
3FFF00
7FFF00
7FFE00
7FFC00
FFF800
7FF000
078000
ENDCHAR
STARTCHAR 00B9
ENCODING 185
SWIDTH 325 0
DWIDTH 33 0
BBX 15 46 6 27
BITMAP
00FE
03FE
0FFE
1FFE
7FFE
FFFE
FFFE
FF7E
FC7E
F87E
E07E
807E
007E
007E
007E
007E
007E
007E
007E
007E
007E
007E
007E
007E
007E
007E
007E
007E
007E
007E
007E
007E
007E
007E
007E
007E
007E
007E
007E
007E
007E
007E
007E
007E
007E
007E
ENDCHAR
STARTCHAR 00BA
ENCODING 186
SWIDTH 345 0
DWIDTH 35 0
BBX 27 29 4 27
BITMAP
003F8000
01FFF000
07FFFC00
0FFFFE00
1FFFFF00
1FF1FF80
3F803F80
7F001FC0
7F000FC0
7E000FC0
FE0007E0
FC0007E0
FC0007E0
FC0007E0
FC0007E0
FC0007E0
FC0007E0
FC0007E0
FE000FE0
7E000FC0
7F000FC0
7F001FC0
3F803F80
1FF1FF80
1FFFFF00
0FFFFE00
07FFFC00
01FFF000
003FC000
ENDCHAR
STARTCHAR 00BB
ENCODING 187
SWIDTH 552 0
DWIDTH 56 0
BBX 41 44 7 5
BITMAP
080003000000
3C0007800000
7E000FC00000
FF003FC00000
FF801FE00000
7F800FF00000
3FC00FF80000
1FE007FC0000
1FF003FC0000
0FF801FE0000
07F801FF0000
03FC00FF8000
01FE007F8000
01FF003FC000
00FF801FE000
007F801FF000
003FC00FF800
001FE007F800
001FF003FC00
000FF801FE00
0007F801FF00
0003FC00FF80
0007FC00FF00
0007F801FF00
000FF003FE00
001FE003FC00
003FE007F800
007FC00FF000
007F801FF000
00FF003FE000
01FF003FC000
03FE007F8000
03FC00FF0000
07F801FF0000
0FF003FE0000
1FF003FC0000
3FE007F80000
3FC00FF00000
7F801FF00000
FF003FE00000
FF001FC00000
3E000F800000
1C0007000000
080001000000
ENDCHAR
STARTCHAR 00BC
ENCODING 188
SWIDTH 996 0
DWIDTH 101 0
BBX 83 73 6 0
BITMAP
00FE000000000002000000
03FE000000000007000000
0FFE00000000000F800000
1FFE00000000001FE00000
7FFE00000000001FF00000
FFFE00000000003FE00000
FFFE00000000007FC00000
FF7E0000000000FF800000
FC7E0000000000FF800000
F87E0000000001FF000000
E07E0000000003FE000000
807E0000000007FC000000
007E0000000007FC000000
007E000000000FF8000000
007E000000001FF0000000
007E000000003FE0000000
007E000000003FE0000000
007E000000007FC0000000
007E00000000FF80000000
007E00000001FF00000000
007E00000001FF00000000
007E00000003FE00000000
007E00000007FC00000000
007E0000000FF800000000
007E0000001FF800000000
007E0000001FF000000000
007E0000003FE000000000
007E0000007FC000000000
007E000000FFC0007F8000
007E000000FF80007F0000
007E000001FF0000FF0000
007E000003FE0000FE0000
007E000007FE0001FE0000
007E000007FC0001FC0000
007E00000FF80003FC0000
007E00001FF00003F80000
007E00003FE00003F80000
007E00003FE00007F00000
007E00007FC00007F00000
007E0000FF80000FE00000
007E0001FF00000FE00000
007E0001FF00001FC00000
007E0003FE00001FC00000
007E0007FC00003FC00000
007E000FF800003F800000
007E000FF800007F800000
0000001FF000007F000000
0000003FE00000FF00FC00
0000007FC00000FE00FC00
000000FFC00001FE00FC00
000000FF800001FC00FC00
000001FF000003FC00FC00
000003FE000003F800FC00
000007FE000007F800FC00
000007FC000007F000FC00
00000FF800000FF000FC00
00001FF000000FE000FC00
00003FF000000FE000FC00
00003FE000001FC000FC00
00007FC000001FFFFFFFE0
0000FF8000001FFFFFFFE0
0001FF0000001FFFFFFFE0
0001FF0000001FFFFFFFE0
0003FE0000001FFFFFFFE0
0007FC0000001FFFFFFFE0
000FF8000000000000FC00
000FF8000000000000FC00
001FF0000000000000FC00
003FE0000000000000FC00
001FC0000000000000FC00
000FC0000000000000FC00
000380000000000000FC00
000100000000000000FC00
ENDCHAR
STARTCHAR 00BD
ENCODING 189
SWIDTH 956 0
DWIDTH 97 0
BBX 86 73 6 0
BITMAP
00FE000000000002000000
03FE000000000007000000
0FFE00000000000F800000
1FFE00000000001FE00000
7FFE00000000001FF00000
FFFE00000000003FE00000
FFFE00000000007FC00000
FF7E0000000000FF800000
FC7E0000000000FF800000
F07E0000000001FF000000
E07E0000000003FE000000
807E0000000007FC000000
007E0000000007FC000000
007E000000000FF8000000
007E000000001FF0000000
007E000000003FE0000000
007E000000003FE0000000
007E000000007FC0000000
007E00000000FF80000000
007E00000001FF00000000
007E00000001FF00000000
007E00000003FE00000000
007E00000007FC00000000
007E0000000FF800000000
007E0000001FF800000000
007E0000001FF000000000
007E0000003FE0001FE000
007E0000007FC000FFFC00
007E000000FF8003FFFF00
007E000000FF8007FFFF80
007E000001FF000FFFFFC0
007E000003FE001FFFFFE0
007E000007FC003FF03FF0
007E000007FC007FC00FF0
007E00000FF8007F8007F8
007E00001FF0007F0003F8
007E00003FE000FE0001FC
007E00003FE000FE0001FC
007E00007FC000FE0001FC
007E0000FF8000FC0000FC
007E0001FF0000FC0000FC
007E0001FF0000000000FC
007E0003FE0000000000FC
007E0007FC0000000001FC
007E000FF80000000001FC
0000000FF80000000001FC
0000001FF00000000003F8
0000003FE00000000007F8
0000007FC0000000000FF8
000000FFC0000000001FF0
000000FF80000000003FE0
000001FF00000000007FC0
000003FE0000000000FF80
000007FE0000000001FF00
000007FC0000000003FE00
00000FF80000000007FC00
00001FF0000000001FF800
00003FE0000000003FF000
00003FE0000000007FE000
00007FC000000000FFC000
0000FF8000000001FF8000
0001FF0000000003FE0000
0001FF0000000007FC0000
0003FE000000000FF80000
0007FC000000001FF00000
000FF8000000003FE00000
000FF800000000FFC00000
001FF000000000FFFFFFFC
003FE000000000FFFFFFFC
001FC000000000FFFFFFFC
000FC000000000FFFFFFFC
00038000000000FFFFFFFC
00010000000000FFFFFFFC
ENDCHAR
STARTCHAR 00BE
ENCODING 190
SWIDTH 996 0
DWIDTH 101 0
BBX 91 73 4 0
BITMAP
3FFFFFF80000000002000000
3FFFFFF80000000003800000
3FFFFFF80000000007C00000
3FFFFFF8000000000FE00000
3FFFFFF8000000001FF00000
3FFFFFF8000000001FF00000
000007F8000000003FE00000
00000FF0000000007FC00000
00001FE000000000FF800000
00007FC000000000FF800000
0000FF8000000001FF000000
0001FF0000000003FE000000
0003FC0000000007FC000000
0007F80000000007F8000000
000FF0000000000FF8000000
001FE0000000001FF0000000
007FC0000000003FE0000000
00FFF0000000007FC0000000
01FFFE000000007FC0000000
00FFFF00000000FF80000000
00FFFFC0000001FF00000000
007FFFE0000003FE00000000
00387FE0000003FE00000000
00001FF0000007FC00000000
000007F000000FF800000000
000003F800001FF000000000
000003F800001FF000000000
000001F800003FE0003F8000
000001FC00007FC0007F8000
000001FC0000FF80007F0000
000001FC0000FF8000FF0000
000001FC0001FF0000FE0000
000001FC0003FE0001FE0000
000001FC0007FC0001FC0000
0C0001FC0007FC0003FC0000
FE0003F8000FF80003F80000
FF0003F8001FF00003F80000
7F0007F8003FE00007F00000
7FC00FF0003FE00007F00000
3FF03FF0007FC0000FE00000
1FFFFFE000FF80000FE00000
1FFFFFC001FF00001FE00000
07FFFF8003FF00001FC00000
03FFFF0003FE00003FC00000
00FFFC0007FC00003F800000
003FE0000FF800007F800000
000000001FF000007F00FC00
000000001FF00000FF00FC00
000000003FE00000FE00FC00
000000007FC00001FE00FC00
00000000FF800001FC00FC00
00000000FF800001FC00FC00
00000001FF000003F800FC00
00000003FE000003F800FC00
00000007FC000007F000FC00
00000007FC000007F000FC00
0000000FF800000FF000FC00
0000001FF000000FE000FC00
0000003FE000001FE000FC00
0000003FE000001FFFFFFFE0
0000007FC000001FFFFFFFE0
000000FF8000001FFFFFFFE0
000001FF0000001FFFFFFFE0
000003FF0000001FFFFFFFE0
000003FE0000001FFFFFFFE0
000007FC000000000000FC00
00000FF8000000000000FC00
00001FF8000000000000FC00
00001FF0000000000000FC00
00000FE0000000000000FC00
000007C0000000000000FC00
000003C0000000000000FC00
00000080000000000000FC00
ENDCHAR
STARTCHAR 00BF
ENCODING 191
SWIDTH 532 0
DWIDTH 54 0
BBX 44 75 5 -20
BITMAP
00003FF00000
00003FF00000
00003FF00000
00003FF00000
00003FF00000
00003FF00000
00003FF00000
00003FF00000
00003FF00000
00003FF00000
00003FF00000
000000000000
000000000000
000000000000
000000000000
000000000000
000000000000
000000000000
000000000000
000000000000
00003FF00000
00003FF00000
00003FF00000
00003FF00000
00003FF00000
00003FF00000
00003FF00000
00003FE00000
00007FE00000
00007FE00000
0000FFE00000
0001FFC00000
0003FFC00000
0007FF800000
000FFF800000
001FFF000000
003FFE000000
007FFC000000
01FFF8000000
01FFF0000000
03FFC0000000
07FF80000000
0FFF00000000
1FFE00000000
1FFC00000000
3FF800000000
3FF000000000
7FE000000000
7FE000000000
7FC000000000
7FC000000000
FFC000000000
FFC000000000
FFC000000000
FFC000000000
FFC000001FF0
FFC000003FF0
FFC000003FF0
FFC000003FE0
7FC000003FE0
7FE000007FE0
7FF000007FE0
7FF00000FFC0
3FF80001FFC0
3FFE0007FF80
1FFFC03FFF80
0FFFFFFFFF00
0FFFFFFFFE00
07FFFFFFFC00
03FFFFFFF800
00FFFFFFF000
007FFFFFC000
001FFFFF8000
0003FFFC0000
000007000000
ENDCHAR
STARTCHAR 00C0
ENCODING 192
SWIDTH 650 0
DWIDTH 66 0
BBX 61 98 2 0
BITMAP
00000FE000000000
00000FF000000000
000007F000000000
000007F000000000
000007F800000000
000003F800000000
000003FC00000000
000001FC00000000
000001FC00000000
000001FE00000000
000000FE00000000
000000FF00000000
0000007F00000000
0000007F00000000
0000007F80000000
0000003F80000000
0000003FC0000000
0000000000000000
0000000000000000
0000000000000000
0000000000000000
0000000000000000
0000000000000000
0000000000000000
0000000000000000
000000FFF8000000
000000FFFC000000
000000FFFC000000
000001FFFC000000
000001FFFE000000
000001FFFE000000
000003FFFE000000
000003FFFF000000
000003FFFF000000
000007FFFF000000
000007FFFF800000
000007FDFF800000
00000FFCFF800000
00000FFCFFC00000
00000FF8FFC00000
00001FF87FC00000
00001FF07FE00000
00001FF07FE00000
00003FF03FE00000
00003FE03FF00000
00003FE03FF00000
00007FE01FF00000
00007FC01FF80000
00007FC01FF80000
0000FFC00FF80000
0000FF800FFC0000
0000FF800FFC0000
0001FF8007FC0000
0001FF0007FE0000
0001FF0007FE0000
0003FF0003FE0000
0003FE0003FF0000
0003FE0003FF0000
0007FE0001FF0000
0007FC0001FF8000
0007FC0001FF8000
000FFC0000FF8000
000FF80000FFC000
000FF80000FFC000
001FF800007FC000
001FF000007FE000
001FF000007FE000
003FF000003FE000
003FE000003FF000
003FE000003FF000
007FE000001FF000
007FC000001FF800
007FC000001FF800
00FFFFFFFFFFF800
00FFFFFFFFFFFC00
00FFFFFFFFFFFC00
01FFFFFFFFFFFC00
01FFFFFFFFFFFE00
01FFFFFFFFFFFE00
03FFFFFFFFFFFE00
03FFFFFFFFFFFF00
03FE00000001FF00
07FE00000001FF00
07FC00000001FF80
07FC00000000FF80
0FFC00000000FF80
0FF800000000FFC0
0FF8000000007FC0
1FF8000000007FC0
1FF0000000007FE0
1FF0000000003FE0
3FF0000000003FE0
3FE0000000003FF0
3FE0000000001FF0
7FE0000000001FF0
7FC0000000001FF8
7FC0000000000FF8
FFC0000000000FF8
ENDCHAR
STARTCHAR 00C1
ENCODING 193
SWIDTH 650 0
DWIDTH 66 0
BBX 61 98 2 0
BITMAP
000000003FC00000
000000003F800000
000000003F800000
000000007F800000
000000007F000000
00000000FF000000
00000000FE000000
00000000FE000000
00000001FE000000
00000001FC000000
00000003FC000000
00000003F8000000
00000003F8000000
00000007F8000000
00000007F0000000
0000000FF0000000
0000000FE0000000
0000000000000000
0000000000000000
0000000000000000
0000000000000000
0000000000000000
0000000000000000
0000000000000000
0000000000000000
000000FFF8000000
000000FFFC000000
000000FFFC000000
000001FFFC000000
000001FFFE000000
000001FFFE000000
000003FFFE000000
000003FFFF000000
000003FFFF000000
000007FFFF000000
000007FDFF800000
000007FDFF800000
00000FFCFF800000
00000FF8FFC00000
00000FF8FFC00000
00001FF87FC00000
00001FF07FE00000
00001FF07FE00000
00003FF03FE00000
00003FE03FF00000
00003FE03FF00000
00007FE01FF00000
00007FC01FF80000
00007FC01FF80000
0000FFC00FF80000
0000FF800FFC0000
0000FF800FFC0000
0001FF8007FC0000
0001FF0007FE0000
0001FF0007FE0000
0003FF0003FE0000
0003FE0003FF0000
0003FE0003FF0000
0007FE0001FF0000
0007FC0001FF8000
0007FC0001FF8000
000FFC0000FF8000
000FF80000FFC000
000FF80000FFC000
001FF800007FC000
001FF000007FE000
001FF000007FE000
003FF000003FE000
003FE000003FF000
003FE000003FF000
007FE000001FF000
007FC000001FF800
007FC000001FF800
00FFFFFFFFFFF800
00FFFFFFFFFFFC00
00FFFFFFFFFFFC00
01FFFFFFFFFFFC00
01FFFFFFFFFFFE00
01FFFFFFFFFFFE00
03FFFFFFFFFFFE00
03FFFFFFFFFFFF00
03FE00000003FF00
07FE00000001FF00
07FC00000001FF80
07FC00000001FF80
0FFC00000000FF80
0FF800000000FFC0
0FF800000000FFC0
1FF8000000007FC0
1FF0000000007FE0
1FF0000000003FE0
3FF0000000003FE0
3FE0000000003FF0
3FE0000000001FF0
7FE0000000001FF0
7FC0000000001FF8
7FC0000000000FF8
FFC0000000000FF8
ENDCHAR
STARTCHAR 00C2
ENCODING 194
SWIDTH 650 0
DWIDTH 66 0
BBX 61 96 2 0
BITMAP
0000003FE0000000
0000007FF0000000
0000007FF8000000
000000FFFC000000
000001FFFE000000
000003FFFE000000
000007FDFF000000
00000FF8FF800000
00001FF07FC00000
00001FE03FE00000
00003FE01FF00000
00007FC00FF80000
0000FF8007F80000
0001FF0007FC0000
0000000000020000
0000000000000000
0000000000000000
0000000000000000
0000000000000000
0000000000000000
0000000000000000
0000000000000000
0000000000000000
000000FFF8000000
000000FFFC000000
000000FFFC000000
000001FFFC000000
000001FFFE000000
000001FFFE000000
000003FFFE000000
000003FFFF000000
000003FFFF000000
000007FFFF000000
000007FDFF800000
000007FDFF800000
00000FFCFF800000
00000FF8FFC00000
00000FF8FFC00000
00001FF87FC00000
00001FF07FE00000
00001FF07FE00000
00003FF03FE00000
00003FE03FF00000
00003FE03FF00000
00007FE01FF00000
00007FC01FF80000
00007FC01FF80000
0000FFC00FF80000
0000FF800FFC0000
0000FF800FFC0000
0001FF8007FC0000
0001FF0007FE0000
0001FF0007FE0000
0003FF0003FE0000
0003FE0003FF0000
0003FE0003FF0000
0007FE0001FF0000
0007FC0001FF8000
0007FC0001FF8000
000FFC0000FF8000
000FF80000FFC000
000FF80000FFC000
001FF800007FC000
001FF000007FE000
001FF000007FE000
003FF000003FE000
003FE000003FF000
003FE000003FF000
007FE000001FF000
007FC000001FF800
007FC000001FF800
00FFFFFFFFFFF800
00FFFFFFFFFFFC00
00FFFFFFFFFFFC00
01FFFFFFFFFFFC00
01FFFFFFFFFFFE00
01FFFFFFFFFFFE00
03FFFFFFFFFFFE00
03FFFFFFFFFFFF00
03FE00000003FF00
07FE00000001FF00
07FC00000001FF80
07FC00000001FF80
0FFC00000000FF80
0FF800000000FFC0
0FF800000000FFC0
1FF8000000007FC0
1FF0000000007FE0
1FF0000000003FE0
3FF0000000003FE0
3FE0000000003FF0
3FE0000000001FF0
7FE0000000001FF0
7FC0000000001FF8
7FC0000000000FF8
FFC0000000000FF8
ENDCHAR
STARTCHAR 00C3
ENCODING 195
SWIDTH 650 0
DWIDTH 66 0
BBX 61 97 2 0
BITMAP
00000FC000000000
00003FF0007E0000
00007FFC007E0000
0000FFFF007E0000
0001FFFFC0FE0000
0001FFFFF0FE0000
0001FFFFFFFE0000
0001FC3FFFFE0000
0003F80FFFFC0000
0001F803FFFC0000
0001F801FFF80000
0001F8007FF00000
000000000FC00000
0000000000000000
0000000000000000
0000000000000000
0000000000000000
0000000000000000
0000000000000000
0000000000000000
0000000000000000
0000000000000000
0000000000000000
0000000000000000
000000FFF8000000
000000FFFC000000
000000FFFC000000
000001FFFC000000
000001FFFE000000
000001FFFE000000
000003FFFE000000
000003FFFF000000
000003FFFF000000
000007FFFF000000
000007FDFF800000
000007FDFF800000
00000FFCFF800000
00000FF8FFC00000
00000FF8FFC00000
00001FF87FC00000
00001FF07FE00000
00001FF07FE00000
00003FF03FE00000
00003FE03FF00000
00003FE03FF00000
00007FE01FF00000
00007FC01FF80000
00007FC01FF80000
0000FFC00FF80000
0000FF800FFC0000
0000FF800FFC0000
0001FF8007FC0000
0001FF0007FE0000
0001FF0007FE0000
0003FF0003FE0000
0003FE0003FF0000
0003FE0003FF0000
0007FE0001FF0000
0007FC0001FF8000
0007FC0001FF8000
000FFC0000FF8000
000FF80000FFC000
000FF80000FFC000
001FF800007FC000
001FF000007FE000
001FF000007FE000
003FF000003FE000
003FE000003FF000
003FE000003FF000
007FE000001FF000
007FC000001FF800
007FC000001FF800
00FFFFFFFFFFF800
00FFFFFFFFFFFC00
00FFFFFFFFFFFC00
01FFFFFFFFFFFC00
01FFFFFFFFFFFE00
01FFFFFFFFFFFE00
03FFFFFFFFFFFE00
03FFFFFFFFFFFF00
03FE00000003FF00
07FE00000001FF00
07FC00000001FF80
07FC00000001FF80
0FFC00000000FF80
0FF800000000FFC0
0FF800000000FFC0
1FF8000000007FC0
1FF0000000007FE0
1FF0000000003FE0
3FF0000000003FE0
3FE0000000003FF0
3FE0000000001FF0
7FE0000000001FF0
7FC0000000001FF8
7FC0000000000FF8
FFC0000000000FF8
ENDCHAR
STARTCHAR 00C4
ENCODING 196
SWIDTH 650 0
DWIDTH 66 0
BBX 61 92 2 0
BITMAP
0000FF800FF80000
0000FF800FF80000
0000FF800FF80000
0000FF800FF80000
0000FF800FF80000
0000FF800FF80000
0000FF800FF80000
0000FF800FF80000
0000FF800FF80000
0000000000000000
0000000000000000
0000000000000000
0000000000000000
0000000000000000
0000000000000000
0000000000000000
0000000000000000
0000000000000000
0000000000000000
000000FFF8000000
000000FFFC000000
000000FFFC000000
000001FFFC000000
000001FFFE000000
000001FFFE000000
000003FFFE000000
000003FFFF000000
000003FFFF000000
000007FFFF000000
000007FDFF800000
000007FDFF800000
00000FFCFF800000
00000FF8FFC00000
00000FF8FFC00000
00001FF87FC00000
00001FF07FE00000
00001FF07FE00000
00003FF03FE00000
00003FE03FF00000
00003FE03FF00000
00007FE01FF00000
00007FC01FF80000
00007FC01FF80000
0000FFC00FF80000
0000FF800FFC0000
0000FF800FFC0000
0001FF8007FC0000
0001FF0007FE0000
0001FF0007FE0000
0003FF0003FE0000
0003FE0003FF0000
0003FE0003FF0000
0007FE0001FF0000
0007FC0001FF8000
0007FC0001FF8000
000FFC0000FF8000
000FF80000FFC000
000FF80000FFC000
001FF800007FC000
001FF000007FE000
001FF000007FE000
003FF000003FE000
003FE000003FF000
003FE000003FF000
007FE000001FF000
007FC000001FF800
007FC000001FF800
00FFFFFFFFFFF800
00FFFFFFFFFFFC00
00FFFFFFFFFFFC00
01FFFFFFFFFFFC00
01FFFFFFFFFFFE00
01FFFFFFFFFFFE00
03FFFFFFFFFFFE00
03FFFFFFFFFFFF00
03FE00000003FF00
07FE00000001FF00
07FC00000001FF80
07FC00000001FF80
0FFC00000000FF80
0FF800000000FFC0
0FF800000000FFC0
1FF8000000007FC0
1FF0000000007FE0
1FF0000000003FE0
3FF0000000003FE0
3FE0000000003FF0
3FE0000000001FF0
7FE0000000001FF0
7FC0000000001FF8
7FC0000000000FF8
FFC0000000000FF8
ENDCHAR
STARTCHAR 00C5
ENCODING 197
SWIDTH 650 0
DWIDTH 66 0
BBX 61 102 2 0
BITMAP
0000001FE0000000
0000007FF8000000
000001FFFC000000
000003FFFE000000
000007FFFF000000
000007FFFF800000
00000FF87F800000
00000FE01FC00000
00001FC01FC00000
00001FC00FC00000
00001F800FC00000
00001F800FE00000
00001F800FC00000
00001FC00FC00000
00001FC01FC00000
00000FE01FC00000
00000FF87F800000
000007FFFF800000
000007FFFF000000
000003FFFE000000
000001FFFC000000
0000007FF8000000
0000001FE0000000
0000000000000000
0000000000000000
0000000000000000
0000000000000000
0000000000000000
0000000000000000
000000FFF8000000
000000FFFC000000
000000FFFC000000
000001FFFC000000
000001FFFE000000
000001FFFE000000
000003FFFE000000
000003FFFF000000
000003FFFF000000
000007FFFF000000
000007FDFF800000
000007FDFF800000
00000FFCFF800000
00000FF8FFC00000
00000FF8FFC00000
00001FF87FC00000
00001FF07FE00000
00001FF07FE00000
00003FF03FE00000
00003FE03FF00000
00003FE03FF00000
00007FE01FF00000
00007FC01FF80000
00007FC01FF80000
0000FFC00FF80000
0000FF800FFC0000
0000FF800FFC0000
0001FF8007FC0000
0001FF0007FE0000
0001FF0007FE0000
0003FF0003FE0000
0003FE0003FF0000
0003FE0003FF0000
0007FE0001FF0000
0007FC0001FF8000
0007FC0001FF8000
000FFC0000FF8000
000FF80000FFC000
000FF80000FFC000
001FF800007FC000
001FF000007FE000
001FF000007FE000
003FF000003FE000
003FE000003FF000
003FE000003FF000
007FE000001FF000
007FC000001FF800
007FC000001FF800
00FFFFFFFFFFF800
00FFFFFFFFFFFC00
00FFFFFFFFFFFC00
01FFFFFFFFFFFC00
01FFFFFFFFFFFE00
01FFFFFFFFFFFE00
03FFFFFFFFFFFE00
03FFFFFFFFFFFF00
03FE00000003FF00
07FE00000001FF00
07FC00000001FF80
07FC00000001FF80
0FFC00000000FF80
0FF800000000FFC0
0FF800000000FFC0
1FF8000000007FC0
1FF0000000007FE0
1FF0000000003FE0
3FF0000000003FE0
3FE0000000003FF0
3FE0000000001FF0
7FE0000000001FF0
7FC0000000001FF8
7FC0000000000FF8
FFC0000000000FF8
ENDCHAR
STARTCHAR 00C6
ENCODING 198
SWIDTH 927 0
DWIDTH 94 0
BBX 87 73 2 0
BITMAP
000000FFFFFFFFFFFFFFFE
000000FFFFFFFFFFFFFFFE
000000FFFFFFFFFFFFFFFE
000001FFFFFFFFFFFFFFFE
000001FFFFFFFFFFFFFFFE
000001FFFFFFFFFFFFFFFE
000003FFFFFFFFFFFFFFFE
000003FFFFFFFFFFFFFFFE
000003FFFFFFFFFFFFFFFE
000007FE007FC000000000
000007FC007FC000000000
000007FC007FC000000000
00000FFC007FC000000000
00000FF8007FC000000000
00000FF8007FC000000000
00001FF8007FC000000000
00001FF0007FC000000000
00001FF0007FC000000000
00003FF0007FC000000000
00003FE0007FC000000000
00003FE0007FC000000000
00007FE0007FC000000000
00007FC0007FC000000000
00007FC0007FC000000000
0000FFC0007FC000000000
0000FF80007FC000000000
0000FF80007FC000000000
0001FF80007FC000000000
0001FF00007FC000000000
0001FF00007FC000000000
0003FF00007FC000000000
0003FE00007FFFFFFFFF80
0003FE00007FFFFFFFFF80
0007FE00007FFFFFFFFF80
0007FC00007FFFFFFFFF80
0007FC00007FFFFFFFFF80
000FFC00007FFFFFFFFF80
000FF800007FFFFFFFFF80
000FF800007FFFFFFFFF80
001FF800007FFFFFFFFF80
001FF000007FC000000000
001FF000007FC000000000
003FF000007FC000000000
003FE000007FC000000000
003FE000007FC000000000
007FE000007FC000000000
007FC000007FC000000000
007FC000007FC000000000
00FFFFFFFFFFC000000000
00FFFFFFFFFFC000000000
00FFFFFFFFFFC000000000
01FFFFFFFFFFC000000000
01FFFFFFFFFFC000000000
01FFFFFFFFFFC000000000
03FFFFFFFFFFC000000000
03FFFFFFFFFFC000000000
03FE0000007FC000000000
07FE0000007FC000000000
07FC0000007FC000000000
07FC0000007FC000000000
0FFC0000007FC000000000
0FF80000007FC000000000
0FF80000007FC000000000
1FF80000007FC000000000
1FF00000007FFFFFFFFFFE
1FF00000007FFFFFFFFFFE
3FF00000007FFFFFFFFFFE
3FE00000007FFFFFFFFFFE
3FE00000007FFFFFFFFFFE
7FE00000007FFFFFFFFFFE
7FC00000007FFFFFFFFFFE
7FC00000007FFFFFFFFFFE
FFC00000007FFFFFFFFFFE
ENDCHAR
STARTCHAR 00C7
ENCODING 199
SWIDTH 720 0
DWIDTH 73 0
BBX 66 99 3 -24
BITMAP
0000000FFF80000000
000001FFFFF8000000
00000FFFFFFF000000
00003FFFFFFFC00000
0000FFFFFFFFF00000
0003FFFFFFFFFC0000
0007FFFFFFFFFE0000
000FFFFFFFFFFF0000
001FFFFFFFFFFF8000
003FFFE0007FFFC000
007FFF00000FFFE000
00FFFC000003FFF000
01FFF0000000FFF800
01FFE00000007FFC00
03FFC00000003FFC00
07FF800000001FFE00
07FF000000000FFE00
0FFE0000000007FF00
0FFE0000000003FF00
1FFC0000000003FF80
1FF80000000001FF80
1FF80000000001FF80
3FF00000000000FFC0
3FF00000000000FFC0
3FF000000000007F00
7FE000000000007000
7FE000000000000000
7FE000000000000000
7FE000000000000000
7FC000000000000000
FFC000000000000000
FFC000000000000000
FFC000000000000000
FFC000000000000000
FFC000000000000000
FFC000000000000000
FFC000000000000000
FFC000000000000000
FFC000000000000000
FFC000000000000000
FFC000000000000000
FFC000000000000000
FFC000000000000000
FFC000000000000000
FFC000000000000000
FFC000000000000000
7FC000000000000000
7FC000000000000000
7FE000000000000000
7FE000000000000000
7FE000000000007000
3FF000000000007E00
3FF00000000000FFC0
3FF00000000000FFC0
1FF80000000001FFC0
1FF80000000001FF80
1FFC0000000003FF80
0FFC0000000003FF00
0FFE0000000007FF00
07FF000000000FFE00
07FF800000001FFE00
03FFC00000003FFC00
01FFE00000007FFC00
01FFF0000000FFF800
00FFFC000003FFF000
007FFF00000FFFE000
003FFFE0007FFFC000
001FFFFFFFFFFF8000
000FFFFFFFFFFF0000
0007FFFFFFFFFE0000
0003FFFFFFFFFC0000
0000FFFFFFFFF00000
00003FFFFFFFC00000
00000FFFFFFF000000
000001FFFFF8000000
0000001FFF80000000
00000000FC00000000
00000000FC00000000
00000001FC00000000
00000001F800000000
00000001FC00000000
00000003FF00000000
00000003FF80000000
00000003FF80000000
00000000FFC0000000
000000003FE0000000
000000001FE0000000
000000000FE0000000
000000000FE0000000
000000000FE0000000
000000000FE0000000
000000001FE0000000
0000000FFFE0000000
0000000FFFC0000000
0000000FFFC0000000
0000001FFF80000000
0000001FFF00000000
0000001FFE00000000
00000003F000000000
ENDCHAR
STARTCHAR 00C8
ENCODING 200
SWIDTH 572 0
DWIDTH 58 0
BBX 46 98 7 0
BITMAP
0001FC000000
0001FC000000
0001FE000000
0000FE000000
0000FE000000
0000FF000000
00007F000000
00007F800000
00003F800000
00003F800000
00003FC00000
00001FC00000
00001FE00000
00000FE00000
00000FE00000
00000FF00000
000007F00000
000000000000
000000000000
000000000000
000000000000
000000000000
000000000000
000000000000
000000000000
FFFFFFFFFFFC
FFFFFFFFFFFC
FFFFFFFFFFFC
FFFFFFFFFFFC
FFFFFFFFFFFC
FFFFFFFFFFFC
FFFFFFFFFFFC
FFFFFFFFFFFC
FFFFFFFFFFFC
FF8000000000
FF8000000000
FF8000000000
FF8000000000
FF8000000000
FF8000000000
FF8000000000
FF8000000000
FF8000000000
FF8000000000
FF8000000000
FF8000000000
FF8000000000
FF8000000000
FF8000000000
FF8000000000
FF8000000000
FF8000000000
FF8000000000
FF8000000000
FF8000000000
FF8000000000
FFFFFFFFFF00
FFFFFFFFFF00
FFFFFFFFFF00
FFFFFFFFFF00
FFFFFFFFFF00
FFFFFFFFFF00
FFFFFFFFFF00
FFFFFFFFFF00
FFFFFFFFFF00
FF8000000000
FF8000000000
FF8000000000
FF8000000000
FF8000000000
FF8000000000
FF8000000000
FF8000000000
FF8000000000
FF8000000000
FF8000000000
FF8000000000
FF8000000000
FF8000000000
FF8000000000
FF8000000000
FF8000000000
FF8000000000
FF8000000000
FF8000000000
FF8000000000
FF8000000000
FF8000000000
FF8000000000
FFFFFFFFFFFC
FFFFFFFFFFFC
FFFFFFFFFFFC
FFFFFFFFFFFC
FFFFFFFFFFFC
FFFFFFFFFFFC
FFFFFFFFFFFC
FFFFFFFFFFFC
FFFFFFFFFFFC
ENDCHAR
STARTCHAR 00C9
ENCODING 201
SWIDTH 572 0
DWIDTH 58 0
BBX 46 98 7 0
BITMAP
0000001FC000
0000001FC000
0000003FC000
0000003F8000
0000003F8000
0000007F0000
0000007F0000
000000FF0000
000000FE0000
000000FE0000
000001FE0000
000001FC0000
000003FC0000
000003F80000
000003F80000
000007F80000
000007F00000
000000000000
000000000000
000000000000
000000000000
000000000000
000000000000
000000000000
000000000000
FFFFFFFFFFFC
FFFFFFFFFFFC
FFFFFFFFFFFC
FFFFFFFFFFFC
FFFFFFFFFFFC
FFFFFFFFFFFC
FFFFFFFFFFFC
FFFFFFFFFFFC
FFFFFFFFFFFC
FF8000000000
FF8000000000
FF8000000000
FF8000000000
FF8000000000
FF8000000000
FF8000000000
FF8000000000
FF8000000000
FF8000000000
FF8000000000
FF8000000000
FF8000000000
FF8000000000
FF8000000000
FF8000000000
FF8000000000
FF8000000000
FF8000000000
FF8000000000
FF8000000000
FF8000000000
FFFFFFFFFF00
FFFFFFFFFF00
FFFFFFFFFF00
FFFFFFFFFF00
FFFFFFFFFF00
FFFFFFFFFF00
FFFFFFFFFF00
FFFFFFFFFF00
FFFFFFFFFF00
FF8000000000
FF8000000000
FF8000000000
FF8000000000
FF8000000000
FF8000000000
FF8000000000
FF8000000000
FF8000000000
FF8000000000
FF8000000000
FF8000000000
FF8000000000
FF8000000000
FF8000000000
FF8000000000
FF8000000000
FF8000000000
FF8000000000
FF8000000000
FF8000000000
FF8000000000
FF8000000000
FF8000000000
FFFFFFFFFFFC
FFFFFFFFFFFC
FFFFFFFFFFFC
FFFFFFFFFFFC
FFFFFFFFFFFC
FFFFFFFFFFFC
FFFFFFFFFFFC
FFFFFFFFFFFC
FFFFFFFFFFFC
ENDCHAR
STARTCHAR 00CA
ENCODING 202
SWIDTH 572 0
DWIDTH 58 0
BBX 46 96 7 0
BITMAP
00003FE00000
00007FF00000
0000FFF80000
0000FFFC0000
0001FFFC0000
0003FFFE0000
0007FDFF0000
000FF8FF8000
001FF07FC000
003FE03FE000
003FC01FF000
007FC00FF000
00FF800FF800
01FF0007FC00
000000000000
000000000000
000000000000
000000000000
000000000000
000000000000
000000000000
000000000000
000000000000
FFFFFFFFFFFC
FFFFFFFFFFFC
FFFFFFFFFFFC
FFFFFFFFFFFC
FFFFFFFFFFFC
FFFFFFFFFFFC
FFFFFFFFFFFC
FFFFFFFFFFFC
FFFFFFFFFFFC
FF8000000000
FF8000000000
FF8000000000
FF8000000000
FF8000000000
FF8000000000
FF8000000000
FF8000000000
FF8000000000
FF8000000000
FF8000000000
FF8000000000
FF8000000000
FF8000000000
FF8000000000
FF8000000000
FF8000000000
FF8000000000
FF8000000000
FF8000000000
FF8000000000
FF8000000000
FFFFFFFFFF00
FFFFFFFFFF00
FFFFFFFFFF00
FFFFFFFFFF00
FFFFFFFFFF00
FFFFFFFFFF00
FFFFFFFFFF00
FFFFFFFFFF00
FFFFFFFFFF00
FF8000000000
FF8000000000
FF8000000000
FF8000000000
FF8000000000
FF8000000000
FF8000000000
FF8000000000
FF8000000000
FF8000000000
FF8000000000
FF8000000000
FF8000000000
FF8000000000
FF8000000000
FF8000000000
FF8000000000
FF8000000000
FF8000000000
FF8000000000
FF8000000000
FF8000000000
FF8000000000
FF8000000000
FFFFFFFFFFFC
FFFFFFFFFFFC
FFFFFFFFFFFC
FFFFFFFFFFFC
FFFFFFFFFFFC
FFFFFFFFFFFC
FFFFFFFFFFFC
FFFFFFFFFFFC
FFFFFFFFFFFC
ENDCHAR
STARTCHAR 00CB
ENCODING 203
SWIDTH 572 0
DWIDTH 58 0
BBX 46 92 7 0
BITMAP
00FF800FF800
00FF800FF800
00FF800FF800
00FF800FF800
00FF800FF800
00FF800FF800
00FF800FF800
00FF800FF800
00FF800FF800
000000000000
000000000000
000000000000
000000000000
000000000000
000000000000
000000000000
000000000000
000000000000
000000000000
FFFFFFFFFFFC
FFFFFFFFFFFC
FFFFFFFFFFFC
FFFFFFFFFFFC
FFFFFFFFFFFC
FFFFFFFFFFFC
FFFFFFFFFFFC
FFFFFFFFFFFC
FFFFFFFFFFFC
FF8000000000
FF8000000000
FF8000000000
FF8000000000
FF8000000000
FF8000000000
FF8000000000
FF8000000000
FF8000000000
FF8000000000
FF8000000000
FF8000000000
FF8000000000
FF8000000000
FF8000000000
FF8000000000
FF8000000000
FF8000000000
FF8000000000
FF8000000000
FF8000000000
FF8000000000
FFFFFFFFFF00
FFFFFFFFFF00
FFFFFFFFFF00
FFFFFFFFFF00
FFFFFFFFFF00
FFFFFFFFFF00
FFFFFFFFFF00
FFFFFFFFFF00
FFFFFFFFFF00
FF8000000000
FF8000000000
FF8000000000
FF8000000000
FF8000000000
FF8000000000
FF8000000000
FF8000000000
FF8000000000
FF8000000000
FF8000000000
FF8000000000
FF8000000000
FF8000000000
FF8000000000
FF8000000000
FF8000000000
FF8000000000
FF8000000000
FF8000000000
FF8000000000
FF8000000000
FF8000000000
FF8000000000
FFFFFFFFFFFC
FFFFFFFFFFFC
FFFFFFFFFFFC
FFFFFFFFFFFC
FFFFFFFFFFFC
FFFFFFFFFFFC
FFFFFFFFFFFC
FFFFFFFFFFFC
FFFFFFFFFFFC
ENDCHAR
STARTCHAR 00CC
ENCODING 204
SWIDTH 246 0
DWIDTH 25 0
BBX 15 98 2 0
BITMAP
FF00
7F00
7F80
3F80
3F80
3FC0
1FC0
1FE0
0FE0
0FE0
0FF0
07F0
07F0
03F8
03F8
03FC
01FC
0000
0000
0000
0000
0000
0000
0000
0000
03FE
03FE
03FE
03FE
03FE
03FE
03FE
03FE
03FE
03FE
03FE
03FE
03FE
03FE
03FE
03FE
03FE
03FE
03FE
03FE
03FE
03FE
03FE
03FE
03FE
03FE
03FE
03FE
03FE
03FE
03FE
03FE
03FE
03FE
03FE
03FE
03FE
03FE
03FE
03FE
03FE
03FE
03FE
03FE
03FE
03FE
03FE
03FE
03FE
03FE
03FE
03FE
03FE
03FE
03FE
03FE
03FE
03FE
03FE
03FE
03FE
03FE
03FE
03FE
03FE
03FE
03FE
03FE
03FE
03FE
03FE
03FE
03FE
ENDCHAR
STARTCHAR 00CD
ENCODING 205
SWIDTH 246 0
DWIDTH 25 0
BBX 15 98 8 0
BITMAP
01FE
01FC
01FC
03FC
03F8
03F8
07F0
07F0
0FF0
0FE0
0FE0
1FE0
1FC0
3FC0
3F80
3F80
7F80
0000
0000
0000
0000
0000
0000
0000
0000
FF80
FF80
FF80
FF80
FF80
FF80
FF80
FF80
FF80
FF80
FF80
FF80
FF80
FF80
FF80
FF80
FF80
FF80
FF80
FF80
FF80
FF80
FF80
FF80
FF80
FF80
FF80
FF80
FF80
FF80
FF80
FF80
FF80
FF80
FF80
FF80
FF80
FF80
FF80
FF80
FF80
FF80
FF80
FF80
FF80
FF80
FF80
FF80
FF80
FF80
FF80
FF80
FF80
FF80
FF80
FF80
FF80
FF80
FF80
FF80
FF80
FF80
FF80
FF80
FF80
FF80
FF80
FF80
FF80
FF80
FF80
FF80
FF80
ENDCHAR
STARTCHAR 00CE
ENCODING 206
SWIDTH 246 0
DWIDTH 25 0
BBX 31 96 -3 0
BITMAP
001FF000
003FF800
007FFC00
007FFE00
00FFFE00
01FFFF00
03FEFF80
07FC7FC0
0FF83FE0
1FF01FF0
1FE00FF8
3FE007F8
7FC007FC
FF8003FE
00000000
00000000
00000000
00000000
00000000
00000000
00000000
00000000
00000000
001FF000
001FF000
001FF000
001FF000
001FF000
001FF000
001FF000
001FF000
001FF000
001FF000
001FF000
001FF000
001FF000
001FF000
001FF000
001FF000
001FF000
001FF000
001FF000
001FF000
001FF000
001FF000
001FF000
001FF000
001FF000
001FF000
001FF000
001FF000
001FF000
001FF000
001FF000
001FF000
001FF000
001FF000
001FF000
001FF000
001FF000
001FF000
001FF000
001FF000
001FF000
001FF000
001FF000
001FF000
001FF000
001FF000
001FF000
001FF000
001FF000
001FF000
001FF000
001FF000
001FF000
001FF000
001FF000
001FF000
001FF000
001FF000
001FF000
001FF000
001FF000
001FF000
001FF000
001FF000
001FF000
001FF000
001FF000
001FF000
001FF000
001FF000
001FF000
001FF000
001FF000
ENDCHAR
STARTCHAR 00CF
ENCODING 207
SWIDTH 246 0
DWIDTH 25 0
BBX 29 92 -2 0
BITMAP
FF800FF8
FF800FF8
FF800FF8
FF800FF8
FF800FF8
FF800FF8
FF800FF8
FF800FF8
FF800FF8
00000000
00000000
00000000
00000000
00000000
00000000
00000000
00000000
00000000
00000000
003FE000
003FE000
003FE000
003FE000
003FE000
003FE000
003FE000
003FE000
003FE000
003FE000
003FE000
003FE000
003FE000
003FE000
003FE000
003FE000
003FE000
003FE000
003FE000
003FE000
003FE000
003FE000
003FE000
003FE000
003FE000
003FE000
003FE000
003FE000
003FE000
003FE000
003FE000
003FE000
003FE000
003FE000
003FE000
003FE000
003FE000
003FE000
003FE000
003FE000
003FE000
003FE000
003FE000
003FE000
003FE000
003FE000
003FE000
003FE000
003FE000
003FE000
003FE000
003FE000
003FE000
003FE000
003FE000
003FE000
003FE000
003FE000
003FE000
003FE000
003FE000
003FE000
003FE000
003FE000
003FE000
003FE000
003FE000
003FE000
003FE000
003FE000
003FE000
003FE000
003FE000
ENDCHAR
STARTCHAR 00D0
ENCODING 208
SWIDTH 680 0
DWIDTH 69 0
BBX 63 73 1 0
BITMAP
03FFFFFFFC000000
03FFFFFFFFC00000
03FFFFFFFFF80000
03FFFFFFFFFE0000
03FFFFFFFFFF8000
03FFFFFFFFFFC000
03FFFFFFFFFFE000
03FFFFFFFFFFF800
03FFFFFFFFFFFC00
03FE000003FFFC00
03FE0000007FFE00
03FE0000001FFF00
03FE0000000FFF80
03FE00000003FF80
03FE00000001FFC0
03FE00000000FFC0
03FE00000000FFE0
03FE000000007FE0
03FE000000003FF0
03FE000000003FF0
03FE000000001FF8
03FE000000001FF8
03FE000000001FF8
03FE000000000FFC
03FE000000000FFC
03FE000000000FFC
03FE0000000007FC
03FE0000000007FC
03FE0000000007FE
03FE0000000007FE
03FE0000000007FE
03FE0000000007FE
03FE0000000007FE
FFFFFFFF800007FE
FFFFFFFF800007FE
FFFFFFFF800007FE
FFFFFFFF800003FE
FFFFFFFF800007FE
FFFFFFFF800007FE
FFFFFFFF800007FE
03FE0000000007FE
03FE0000000007FE
03FE0000000007FE
03FE0000000007FE
03FE0000000007FC
03FE0000000007FC
03FE000000000FFC
03FE000000000FFC
03FE000000000FFC
03FE000000000FF8
03FE000000001FF8
03FE000000001FF8
03FE000000003FF8
03FE000000003FF0
03FE000000007FF0
03FE000000007FE0
03FE00000000FFE0
03FE00000001FFC0
03FE00000001FFC0
03FE00000003FF80
03FE0000000FFF80
03FE0000001FFF00
03FE0000007FFE00
03FE000003FFFC00
03FFFFFFFFFFFC00
03FFFFFFFFFFF800
03FFFFFFFFFFE000
03FFFFFFFFFFC000
03FFFFFFFFFF8000
03FFFFFFFFFE0000
03FFFFFFFFF80000
03FFFFFFFFC00000
03FFFFFFFC000000
ENDCHAR
STARTCHAR 00D1
ENCODING 209
SWIDTH 700 0
DWIDTH 71 0
BBX 56 95 7 0
BITMAP
00001F00000000
0000FFE0000000
0001FFF801F800
0001FFFC01FC00
0003FFFF01FC00
0003FFFF81FC00
0007FFFFE3FC00
0007F8FFFFFC00
0007F03FFFF800
0007F01FFFF800
0007F007FFF000
0003F003FFF000
00000000FFE000
000000001F0000
00000000000000
00000000000000
00000000000000
00000000000000
00000000000000
00000000000000
00000000000000
00000000000000
FFC000000001FF
FFC000000001FF
FFE000000001FF
FFF000000001FF
FFF000000001FF
FFF800000001FF
FFFC00000001FF
FFFC00000001FF
FFFE00000001FF
FFFF00000001FF
FFFF00000001FF
FFFF80000001FF
FFFFC0000001FF
FFFFC0000001FF
FFFFE0000001FF
FFFFF0000001FF
FFBFF0000001FF
FFBFF8000001FF
FF9FFC000001FF
FF8FFC000001FF
FF8FFE000001FF
FF87FF000001FF
FF83FF000001FF
FF83FF800001FF
FF81FFC00001FF
FF80FFC00001FF
FF80FFE00001FF
FF807FF00001FF
FF803FF00001FF
FF803FF80001FF
FF801FFC0001FF
FF800FFC0001FF
FF800FFE0001FF
FF8007FF0001FF
FF8003FF0001FF
FF8003FF8001FF
FF8001FFC001FF
FF8000FFC001FF
FF8000FFE001FF
FF80007FF001FF
FF80003FF001FF
FF80003FF801FF
FF80001FFC01FF
FF80000FFC01FF
FF80000FFE01FF
FF800007FF01FF
FF800003FF01FF
FF800003FF81FF
FF800001FFC1FF
FF800000FFC1FF
FF800000FFE1FF
FF8000007FF1FF
FF8000003FF1FF
FF8000003FF9FF
FF8000001FFDFF
FF8000000FFDFF
FF8000000FFFFF
FF80000007FFFF
FF80000003FFFF
FF80000003FFFF
FF80000001FFFF
FF80000000FFFF
FF80000000FFFF
FF800000007FFF
FF800000003FFF
FF800000003FFF
FF800000001FFF
FF800000000FFF
FF800000000FFF
FF8000000007FF
FF8000000003FF
FF8000000003FF
FF8000000001FF
ENDCHAR
STARTCHAR 00D2
ENCODING 210
SWIDTH 729 0
DWIDTH 74 0
BBX 68 101 3 -2
BITMAP
000001FE0000000000
000000FE0000000000
000000FE0000000000
0000007F0000000000
0000007F0000000000
0000007F8000000000
0000003F8000000000
0000003F8000000000
0000003FC000000000
0000001FC000000000
0000001FE000000000
0000000FE000000000
0000000FE000000000
0000000FF000000000
00000007F000000000
00000007F800000000
00000003F800000000
000000000000000000
000000000000000000
000000000000000000
000000000000000000
000000000000000000
000000000000000000
000000000000000000
0000000FFF00000000
000001FFFFF8000000
00000FFFFFFF000000
00003FFFFFFFC00000
0000FFFFFFFFF00000
0001FFFFFFFFFC0000
0007FFFFFFFFFE0000
000FFFFFFFFFFF0000
001FFFFFFFFFFF8000
003FFFE0007FFFC000
007FFF00000FFFE000
00FFFC000003FFF000
01FFF0000000FFF800
01FFE00000007FF800
03FFC00000003FFC00
07FF800000001FFE00
07FF000000000FFE00
0FFE0000000007FF00
0FFE0000000003FF00
1FFC0000000003FF80
1FF80000000001FF80
1FF80000000001FF80
3FF80000000000FFC0
3FF00000000000FFC0
3FF00000000000FFC0
7FE000000000007FE0
7FE000000000007FE0
7FE000000000007FE0
7FE000000000003FE0
7FC000000000003FE0
7FC000000000003FF0
FFC000000000003FF0
FFC000000000003FF0
FFC000000000003FF0
FFC000000000003FF0
FFC000000000003FF0
FFC000000000001FF0
FFC000000000001FF0
FFC000000000001FF0
FFC000000000001FF0
FFC000000000001FF0
FFC000000000003FF0
FFC000000000003FF0
FFC000000000003FF0
FFC000000000003FF0
FFC000000000003FF0
7FC000000000003FF0
7FC000000000003FE0
7FE000000000003FE0
7FE000000000007FE0
7FE000000000007FE0
7FE000000000007FE0
3FF00000000000FFC0
3FF00000000000FFC0
3FF00000000000FFC0
1FF80000000001FF80
1FF80000000001FF80
1FFC0000000003FF80
0FFE0000000003FF00
0FFE0000000007FF00
07FF000000000FFE00
07FF800000001FFE00
03FFC00000003FFC00
01FFE00000007FF800
01FFF0000000FFF800
00FFFC000003FFF000
007FFF00000FFFE000
003FFFE0007FFFC000
001FFFFFFFFFFF8000
000FFFFFFFFFFF0000
0007FFFFFFFFFE0000
0001FFFFFFFFFC0000
0000FFFFFFFFF00000
00003FFFFFFFC00000
00000FFFFFFF000000
000001FFFFF8000000
0000000FFF80000000
ENDCHAR
STARTCHAR 00D3
ENCODING 211
SWIDTH 729 0
DWIDTH 74 0
BBX 68 101 3 -2
BITMAP
0000000003F8000000
0000000007F8000000
0000000007F0000000
0000000007F0000000
000000000FF0000000
000000000FE0000000
000000001FE0000000
000000001FC0000000
000000001FC0000000
000000003FC0000000
000000003F80000000
000000007F80000000
000000007F00000000
000000007F00000000
00000000FF00000000
00000000FE00000000
00000001FE00000000
000000000000000000
000000000000000000
000000000000000000
000000000000000000
000000000000000000
000000000000000000
000000000000000000
0000000FFF00000000
000001FFFFF8000000
00000FFFFFFF000000
00003FFFFFFFC00000
0000FFFFFFFFF00000
0001FFFFFFFFFC0000
0007FFFFFFFFFE0000
000FFFFFFFFFFF0000
001FFFFFFFFFFF8000
003FFFE0007FFFC000
007FFF00000FFFE000
00FFFC000003FFF000
01FFF0000000FFF800
01FFE00000007FF800
03FFC00000003FFC00
07FF800000001FFE00
07FF000000000FFE00
0FFE0000000007FF00
0FFE0000000003FF00
1FFC0000000003FF80
1FF80000000001FF80
1FF80000000001FF80
3FF80000000000FFC0
3FF00000000000FFC0
3FF00000000000FFC0
7FE000000000007FE0
7FE000000000007FE0
7FE000000000007FE0
7FE000000000003FE0
7FC000000000003FE0
7FC000000000003FF0
FFC000000000003FF0
FFC000000000003FF0
FFC000000000003FF0
FFC000000000003FF0
FFC000000000003FF0
FFC000000000001FF0
FFC000000000001FF0
FFC000000000001FF0
FFC000000000001FF0
FFC000000000001FF0
FFC000000000003FF0
FFC000000000003FF0
FFC000000000003FF0
FFC000000000003FF0
FFC000000000003FF0
7FC000000000003FF0
7FC000000000003FE0
7FE000000000003FE0
7FE000000000007FE0
7FE000000000007FE0
7FE000000000007FE0
3FF00000000000FFC0
3FF00000000000FFC0
3FF00000000000FFC0
1FF80000000001FF80
1FF80000000001FF80
1FFC0000000003FF80
0FFE0000000003FF00
0FFE0000000007FF00
07FF000000000FFE00
07FF800000001FFE00
03FFC00000003FFC00
01FFE00000007FF800
01FFF0000000FFF800
00FFFC000003FFF000
007FFF00000FFFE000
003FFFE0007FFFC000
001FFFFFFFFFFF8000
000FFFFFFFFFFF0000
0007FFFFFFFFFE0000
0001FFFFFFFFFC0000
0000FFFFFFFFF00000
00003FFFFFFFC00000
00000FFFFFFF000000
000001FFFFF8000000
0000000FFF80000000
ENDCHAR
STARTCHAR 00D4
ENCODING 212
SWIDTH 729 0
DWIDTH 74 0
BBX 68 98 3 -2
BITMAP
00000007FE00000000
0000000FFF00000000
0000001FFF80000000
0000001FFF80000000
0000003FFFC0000000
0000007FFFE0000000
000000FF9FF0000000
000001FF0FF8000000
000003FE07FC000000
000007FC03FE000000
000007F801FE000000
00000FF801FF000000
00001FF000FF800000
00003FE0007FC00000
000000000000000000
000000000000000000
000000000000000000
000000000000000000
000000000000000000
000000000000000000
000000000000000000
0000000FFF00000000
000001FFFFF8000000
00000FFFFFFF000000
00003FFFFFFFC00000
0000FFFFFFFFF00000
0001FFFFFFFFFC0000
0007FFFFFFFFFE0000
000FFFFFFFFFFF0000
001FFFFFFFFFFF8000
003FFFE0007FFFC000
007FFF00000FFFE000
00FFFC000003FFF000
01FFF0000000FFF800
01FFE00000007FF800
03FFC00000003FFC00
07FF800000001FFE00
07FF000000000FFE00
0FFE0000000007FF00
0FFE0000000003FF00
1FFC0000000003FF80
1FF80000000001FF80
1FF80000000001FF80
3FF80000000000FFC0
3FF00000000000FFC0
3FF00000000000FFC0
7FE000000000007FE0
7FE000000000007FE0
7FE000000000007FE0
7FE000000000003FE0
7FC000000000003FE0
7FC000000000003FF0
FFC000000000003FF0
FFC000000000003FF0
FFC000000000003FF0
FFC000000000003FF0
FFC000000000003FF0
FFC000000000001FF0
FFC000000000001FF0
FFC000000000001FF0
FFC000000000001FF0
FFC000000000001FF0
FFC000000000003FF0
FFC000000000003FF0
FFC000000000003FF0
FFC000000000003FF0
FFC000000000003FF0
7FC000000000003FF0
7FC000000000003FE0
7FE000000000003FE0
7FE000000000007FE0
7FE000000000007FE0
7FE000000000007FE0
3FF00000000000FFC0
3FF00000000000FFC0
3FF00000000000FFC0
1FF80000000001FF80
1FF80000000001FF80
1FFC0000000003FF80
0FFE0000000003FF00
0FFE0000000007FF00
07FF000000000FFE00
07FF800000001FFE00
03FFC00000003FFC00
01FFE00000007FF800
01FFF0000000FFF800
00FFFC000003FFF000
007FFF00000FFFE000
003FFFE0007FFFC000
001FFFFFFFFFFF8000
000FFFFFFFFFFF0000
0007FFFFFFFFFE0000
0001FFFFFFFFFC0000
0000FFFFFFFFF00000
00003FFFFFFFC00000
00000FFFFFFF000000
000001FFFFF8000000
0000000FFF80000000
ENDCHAR
STARTCHAR 00D5
ENCODING 213
SWIDTH 729 0
DWIDTH 74 0
BBX 68 97 3 -2
BITMAP
000000FC0000000000
000003FF0007E00000
000007FFC007E00000
00000FFFF007E00000
00001FFFFC07E00000
00001FFFFF0FE00000
00001FFFFFFFE00000
00001FC3FFFFE00000
00001F80FFFFC00000
00001F803FFFC00000
00001F801FFF800000
00001F8007FF000000
0000000000FC000000
000000000000000000
000000000000000000
000000000000000000
000000000000000000
000000000000000000
000000000000000000
000000000000000000
0000000FFF00000000
000001FFFFF8000000
00000FFFFFFF000000
00003FFFFFFFC00000
0000FFFFFFFFF00000
0001FFFFFFFFFC0000
0007FFFFFFFFFE0000
000FFFFFFFFFFF0000
001FFFFFFFFFFF8000
003FFFE0007FFFC000
007FFF00000FFFE000
00FFFC000003FFF000
01FFF0000000FFF800
01FFE00000007FF800
03FFC00000003FFC00
07FF800000001FFE00
07FF000000000FFE00
0FFE0000000007FF00
0FFE0000000003FF00
1FFC0000000003FF80
1FF80000000001FF80
1FF80000000001FF80
3FF80000000000FFC0
3FF00000000000FFC0
3FF00000000000FFC0
7FE000000000007FE0
7FE000000000007FE0
7FE000000000007FE0
7FE000000000003FE0
7FC000000000003FE0
7FC000000000003FF0
FFC000000000003FF0
FFC000000000003FF0
FFC000000000003FF0
FFC000000000003FF0
FFC000000000003FF0
FFC000000000001FF0
FFC000000000001FF0
FFC000000000001FF0
FFC000000000001FF0
FFC000000000001FF0
FFC000000000003FF0
FFC000000000003FF0
FFC000000000003FF0
FFC000000000003FF0
FFC000000000003FF0
7FC000000000003FF0
7FC000000000003FE0
7FE000000000003FE0
7FE000000000007FE0
7FE000000000007FE0
7FE000000000007FE0
3FF00000000000FFC0
3FF00000000000FFC0
3FF00000000000FFC0
1FF80000000001FF80
1FF80000000001FF80
1FFC0000000003FF80
0FFE0000000003FF00
0FFE0000000007FF00
07FF000000000FFE00
07FF800000001FFE00
03FFC00000003FFC00
01FFE00000007FF800
01FFF0000000FFF800
00FFFC000003FFF000
007FFF00000FFFE000
003FFFE0007FFFC000
001FFFFFFFFFFF8000
000FFFFFFFFFFF0000
0007FFFFFFFFFE0000
0001FFFFFFFFFC0000
0000FFFFFFFFF00000
00003FFFFFFFC00000
00000FFFFFFF000000
000001FFFFF8000000
0000000FFF80000000
ENDCHAR
STARTCHAR 00D6
ENCODING 214
SWIDTH 729 0
DWIDTH 74 0
BBX 68 94 3 -2
BITMAP
00000FF801FF800000
00000FF801FF800000
00000FF801FF800000
00000FF801FF800000
00000FF801FF800000
00000FF801FF800000
00000FF801FF800000
00000FF801FF800000
00000FF801FF800000
000000000000000000
000000000000000000
000000000000000000
000000000000000000
000000000000000000
000000000000000000
000000000000000000
000000000000000000
0000000FFF00000000
000001FFFFF8000000
00000FFFFFFF000000
00003FFFFFFFC00000
0000FFFFFFFFF00000
0001FFFFFFFFFC0000
0007FFFFFFFFFE0000
000FFFFFFFFFFF0000
001FFFFFFFFFFF8000
003FFFE0007FFFC000
007FFF00000FFFE000
00FFFC000003FFF000
01FFF0000000FFF800
01FFE00000007FF800
03FFC00000003FFC00
07FF800000001FFE00
07FF000000000FFE00
0FFE0000000007FF00
0FFE0000000003FF00
1FFC0000000003FF80
1FF80000000001FF80
1FF80000000001FF80
3FF80000000000FFC0
3FF00000000000FFC0
3FF00000000000FFC0
7FE000000000007FE0
7FE000000000007FE0
7FE000000000007FE0
7FE000000000003FE0
7FC000000000003FE0
7FC000000000003FF0
FFC000000000003FF0
FFC000000000003FF0
FFC000000000003FF0
FFC000000000003FF0
FFC000000000003FF0
FFC000000000001FF0
FFC000000000001FF0
FFC000000000001FF0
FFC000000000001FF0
FFC000000000001FF0
FFC000000000003FF0
FFC000000000003FF0
FFC000000000003FF0
FFC000000000003FF0
FFC000000000003FF0
7FC000000000003FF0
7FC000000000003FE0
7FE000000000003FE0
7FE000000000007FE0
7FE000000000007FE0
7FE000000000007FE0
3FF00000000000FFC0
3FF00000000000FFC0
3FF00000000000FFC0
1FF80000000001FF80
1FF80000000001FF80
1FFC0000000003FF80
0FFE0000000003FF00
0FFE0000000007FF00
07FF000000000FFE00
07FF800000001FFE00
03FFC00000003FFC00
01FFE00000007FF800
01FFF0000000FFF800
00FFFC000003FFF000
007FFF00000FFFE000
003FFFE0007FFFC000
001FFFFFFFFFFF8000
000FFFFFFFFFFF0000
0007FFFFFFFFFE0000
0001FFFFFFFFFC0000
0000FFFFFFFFF00000
00003FFFFFFFC00000
00000FFFFFFF000000
000001FFFFF8000000
0000000FFF80000000
ENDCHAR
STARTCHAR 00D7
ENCODING 215
SWIDTH 493 0
DWIDTH 50 0
BBX 38 38 6 18
BITMAP
0400000080
0E000001C0
1F000003E0
3F800007F0
7FC0000FF8
FFE0001FFC
7FF0003FF8
3FF8007FF0
1FFC00FFE0
0FFE01FFC0
07FF03FF80
03FF87FF00
01FFCFFE00
00FFFFFC00
007FFFF800
003FFFF000
001FFFE000
000FFFC000
0007FF8000
0007FF8000
000FFFC000
001FFFE000
003FFFF000
007FFFF800
00FFFFFC00
01FFCFFE00
03FF87FF00
07FF03FF80
0FFE01FFC0
1FFC00FFE0
3FF8007FF0
7FF0003FF8
FFE0001FFC
7FC0000FF8
3F800007F0
1F000003E0
0E000001C0
0400000080
ENDCHAR
STARTCHAR 00D8
ENCODING 216
SWIDTH 729 0
DWIDTH 74 0
BBX 69 77 3 -2
BITMAP
0000000FFF00000000
000001FFFFF8000100
00000FFFFFFF000380
00003FFFFFFFC007C0
0000FFFFFFFFF00FE0
0001FFFFFFFFF81FF0
0007FFFFFFFFFC3FF8
000FFFFFFFFFFF7FF8
001FFFFFFFFFFFFFF0
003FFFE0007FFFFFE0
007FFF00000FFFFFC0
00FFFC000003FFFF80
01FFF0000000FFFF00
01FFE00000007FFF00
03FFC00000003FFE00
07FF800000003FFC00
07FF000000007FFE00
0FFE00000000FFFF00
0FFE00000001FFFF00
1FFC00000003FFFF00
1FF800000007FFFF80
1FF80000000FFFFF80
3FF80000001FFEFFC0
3FF00000003FFCFFC0
3FF00000003FF8FFC0
7FE00000007FF07FE0
7FE0000000FFE07FE0
7FE0000001FFC07FE0
7FE0000003FF803FE0
7FC0000007FF003FE0
7FC000000FFE003FF0
FFC000001FFE003FF0
FFC000003FFC003FF0
FFC000007FF8003FF0
FFC000007FF0003FF0
FFC00000FFE0003FF0
FFC00001FFC0001FF0
FFC00003FF80001FF0
FFC00007FF00001FF0
FFC0000FFE00001FF0
FFC0001FFE00001FF0
FFC0003FFC00003FF0
FFC0007FF800003FF0
FFC0007FF000003FF0
FFC000FFE000003FF0
FFC001FFC000003FF0
7FC003FF8000003FF0
7FC007FF0000003FE0
7FE00FFE0000003FE0
7FE01FFE0000007FE0
7FE03FFC0000007FE0
7FE07FF80000007FE0
3FF0FFF0000000FFC0
3FF0FFE0000000FFC0
3FF1FFC0000000FFC0
1FFBFF80000001FFC0
1FFFFF00000001FF80
1FFFFE00000003FF80
0FFFFC00000003FF00
0FFFFC00000007FF00
07FFF80000000FFE00
07FFF00000001FFE00
03FFE00000003FFC00
03FFE00000007FFC00
03FFF0000000FFF800
07FFFC000003FFF000
0FFFFF00000FFFE000
1FFFFFE0007FFFC000
3FFFFFFFFFFFFF8000
7FF7FFFFFFFFFF0000
FFE3FFFFFFFFFE0000
FFC1FFFFFFFFFC0000
3F807FFFFFFFF00000
1F001FFFFFFFC00000
0E0007FFFFFF000000
060001FFFFF8000000
0000000FFF80000000
ENDCHAR
STARTCHAR 00D9
ENCODING 217
SWIDTH 710 0
DWIDTH 72 0
BBX 58 100 7 -2
BITMAP
00000FE000000000
00000FF000000000
000007F000000000
000007F000000000
000007F800000000
000003F800000000
000003FC00000000
000001FC00000000
000001FC00000000
000001FE00000000
000000FE00000000
000000FF00000000
0000007F00000000
0000007F00000000
0000007F80000000
0000003F80000000
0000003FC0000000
0000000000000000
0000000000000000
0000000000000000
0000000000000000
0000000000000000
0000000000000000
0000000000000000
0000000000000000
FF80000000007FC0
FF80000000007FC0
FF80000000007FC0
FF80000000007FC0
FF80000000007FC0
FF80000000007FC0
FF80000000007FC0
FF80000000007FC0
FF80000000007FC0
FF80000000007FC0
FF80000000007FC0
FF80000000007FC0
FF80000000007FC0
FF80000000007FC0
FF80000000007FC0
FF80000000007FC0
FF80000000007FC0
FF80000000007FC0
FF80000000007FC0
FF80000000007FC0
FF80000000007FC0
FF80000000007FC0
FF80000000007FC0
FF80000000007FC0
FF80000000007FC0
FF80000000007FC0
FF80000000007FC0
FF80000000007FC0
FF80000000007FC0
FF80000000007FC0
FF80000000007FC0
FF80000000007FC0
FF80000000007FC0
FF80000000007FC0
FF80000000007FC0
FF80000000007FC0
FF80000000007FC0
FF80000000007FC0
FF80000000007FC0
FF80000000007FC0
FF80000000007FC0
FF80000000007FC0
FF80000000007FC0
FF80000000007FC0
FF80000000007FC0
FF80000000007FC0
FF80000000007FC0
FF8000000000FFC0
FF8000000000FFC0
FF8000000000FFC0
FFC000000000FF80
FFC000000000FF80
7FC000000000FF80
7FC000000001FF80
7FE000000001FF80
7FE000000001FF80
7FF000000003FF00
3FF000000007FF00
3FF800000007FE00
1FFC0000000FFE00
1FFE0000001FFE00
0FFF0000003FFC00
0FFF8000007FF800
07FFC00001FFF800
03FFF00003FFF000
03FFFE001FFFE000
01FFFFFFFFFFC000
00FFFFFFFFFF8000
007FFFFFFFFF0000
001FFFFFFFFE0000
000FFFFFFFFC0000
0003FFFFFFF00000
0000FFFFFFC00000
00001FFFFE000000
000001FFE0000000
ENDCHAR
STARTCHAR 00DA
ENCODING 218
SWIDTH 710 0
DWIDTH 72 0
BBX 58 100 7 -2
BITMAP
00000001FC000000
00000001FC000000
00000003FC000000
00000003F8000000
00000007F8000000
00000007F0000000
00000007F0000000
0000000FF0000000
0000000FE0000000
0000001FE0000000
0000001FC0000000
0000001FC0000000
0000003FC0000000
0000003F80000000
0000007F80000000
0000007F00000000
0000007F00000000
0000000000000000
0000000000000000
0000000000000000
0000000000000000
0000000000000000
0000000000000000
0000000000000000
0000000000000000
FF80000000007FC0
FF80000000007FC0
FF80000000007FC0
FF80000000007FC0
FF80000000007FC0
FF80000000007FC0
FF80000000007FC0
FF80000000007FC0
FF80000000007FC0
FF80000000007FC0
FF80000000007FC0
FF80000000007FC0
FF80000000007FC0
FF80000000007FC0
FF80000000007FC0
FF80000000007FC0
FF80000000007FC0
FF80000000007FC0
FF80000000007FC0
FF80000000007FC0
FF80000000007FC0
FF80000000007FC0
FF80000000007FC0
FF80000000007FC0
FF80000000007FC0
FF80000000007FC0
FF80000000007FC0
FF80000000007FC0
FF80000000007FC0
FF80000000007FC0
FF80000000007FC0
FF80000000007FC0
FF80000000007FC0
FF80000000007FC0
FF80000000007FC0
FF80000000007FC0
FF80000000007FC0
FF80000000007FC0
FF80000000007FC0
FF80000000007FC0
FF80000000007FC0
FF80000000007FC0
FF80000000007FC0
FF80000000007FC0
FF80000000007FC0
FF80000000007FC0
FF80000000007FC0
FF8000000000FFC0
FF8000000000FFC0
FF8000000000FFC0
FFC000000000FF80
FFC000000000FF80
7FC000000000FF80
7FC000000001FF80
7FE000000001FF80
7FE000000001FF80
7FF000000003FF00
3FF000000007FF00
3FF800000007FE00
1FFC0000000FFE00
1FFE0000001FFE00
0FFF0000003FFC00
0FFF8000007FF800
07FFC00001FFF800
03FFF00003FFF000
03FFFE001FFFE000
01FFFFFFFFFFC000
00FFFFFFFFFF8000
007FFFFFFFFF0000
001FFFFFFFFE0000
000FFFFFFFFC0000
0003FFFFFFF00000
0000FFFFFFC00000
00001FFFFE000000
000001FFE0000000
ENDCHAR
STARTCHAR 00DB
ENCODING 219
SWIDTH 710 0
DWIDTH 72 0
BBX 58 98 7 -2
BITMAP
000000FF80000000
000000FFC0000000
000001FFE0000000
000003FFF0000000
000007FFF8000000
00000FFFFC000000
00001FF3FC000000
00003FE3FE000000
00007FC1FF000000
00007F80FF800000
0000FF807FC00000
0001FF003FE00000
0003FE001FF00000
0007FC001FF00000
0000000000080000
0000000000000000
0000000000000000
0000000000000000
0000000000000000
0000000000000000
0000000000000000
0000000000000000
0000000000000000
FF80000000007FC0
FF80000000007FC0
FF80000000007FC0
FF80000000007FC0
FF80000000007FC0
FF80000000007FC0
FF80000000007FC0
FF80000000007FC0
FF80000000007FC0
FF80000000007FC0
FF80000000007FC0
FF80000000007FC0
FF80000000007FC0
FF80000000007FC0
FF80000000007FC0
FF80000000007FC0
FF80000000007FC0
FF80000000007FC0
FF80000000007FC0
FF80000000007FC0
FF80000000007FC0
FF80000000007FC0
FF80000000007FC0
FF80000000007FC0
FF80000000007FC0
FF80000000007FC0
FF80000000007FC0
FF80000000007FC0
FF80000000007FC0
FF80000000007FC0
FF80000000007FC0
FF80000000007FC0
FF80000000007FC0
FF80000000007FC0
FF80000000007FC0
FF80000000007FC0
FF80000000007FC0
FF80000000007FC0
FF80000000007FC0
FF80000000007FC0
FF80000000007FC0
FF80000000007FC0
FF80000000007FC0
FF80000000007FC0
FF80000000007FC0
FF80000000007FC0
FF80000000007FC0
FF8000000000FFC0
FF8000000000FFC0
FF8000000000FFC0
FFC000000000FF80
FFC000000000FF80
7FC000000000FF80
7FC000000001FF80
7FE000000001FF80
7FE000000001FF80
7FF000000003FF00
3FF000000007FF00
3FF800000007FE00
1FFC0000000FFE00
1FFE0000001FFE00
0FFF0000003FFC00
0FFF8000007FF800
07FFC00001FFF800
03FFF00003FFF000
03FFFE001FFFE000
01FFFFFFFFFFC000
00FFFFFFFFFF8000
007FFFFFFFFF0000
001FFFFFFFFE0000
000FFFFFFFFC0000
0003FFFFFFF00000
0000FFFFFFC00000
00001FFFFE000000
000001FFE0000000
ENDCHAR
STARTCHAR 00DC
ENCODING 220
SWIDTH 710 0
DWIDTH 72 0
BBX 58 94 7 -2
BITMAP
0003FF003FE00000
0003FF003FE00000
0003FF003FE00000
0003FF003FE00000
0003FF003FE00000
0003FF003FE00000
0003FF003FE00000
0003FF003FE00000
0003FF003FE00000
0000000000000000
0000000000000000
0000000000000000
0000000000000000
0000000000000000
0000000000000000
0000000000000000
0000000000000000
0000000000000000
0000000000000000
FF80000000007FC0
FF80000000007FC0
FF80000000007FC0
FF80000000007FC0
FF80000000007FC0
FF80000000007FC0
FF80000000007FC0
FF80000000007FC0
FF80000000007FC0
FF80000000007FC0
FF80000000007FC0
FF80000000007FC0
FF80000000007FC0
FF80000000007FC0
FF80000000007FC0
FF80000000007FC0
FF80000000007FC0
FF80000000007FC0
FF80000000007FC0
FF80000000007FC0
FF80000000007FC0
FF80000000007FC0
FF80000000007FC0
FF80000000007FC0
FF80000000007FC0
FF80000000007FC0
FF80000000007FC0
FF80000000007FC0
FF80000000007FC0
FF80000000007FC0
FF80000000007FC0
FF80000000007FC0
FF80000000007FC0
FF80000000007FC0
FF80000000007FC0
FF80000000007FC0
FF80000000007FC0
FF80000000007FC0
FF80000000007FC0
FF80000000007FC0
FF80000000007FC0
FF80000000007FC0
FF80000000007FC0
FF80000000007FC0
FF80000000007FC0
FF80000000007FC0
FF80000000007FC0
FF8000000000FFC0
FF8000000000FFC0
FF8000000000FFC0
FFC000000000FF80
FFC000000000FF80
7FC000000000FF80
7FC000000001FF80
7FE000000001FF80
7FE000000001FF80
7FF000000003FF00
3FF000000007FF00
3FF800000007FE00
1FFC0000000FFE00
1FFE0000001FFE00
0FFF0000003FFC00
0FFF8000007FF800
07FFC00001FFF800
03FFF00003FFF000
03FFFE001FFFE000
01FFFFFFFFFFC000
00FFFFFFFFFF8000
007FFFFFFFFF0000
001FFFFFFFFE0000
000FFFFFFFFC0000
0003FFFFFFF00000
0000FFFFFFC00000
00001FFFFE000000
000001FFE0000000
ENDCHAR
STARTCHAR 00DD
ENCODING 221
SWIDTH 572 0
DWIDTH 58 0
BBX 58 98 0 0
BITMAP
00000001FC000000
00000001FC000000
00000003FC000000
00000003F8000000
00000007F8000000
00000007F0000000
00000007F0000000
0000000FF0000000
0000000FE0000000
0000000FE0000000
0000001FC0000000
0000001FC0000000
0000003FC0000000
0000003F80000000
0000003F80000000
0000007F00000000
0000007F00000000
0000000000000000
0000000000000000
0000000000000000
0000000000000000
0000000000000000
0000000000000000
0000000000000000
0000000000000000
FFE000000001FFC0
7FE000000001FF80
7FF000000003FF80
3FF800000003FF00
1FF800000007FF00
1FFC00000007FE00
0FFC0000000FFE00
0FFE0000001FFC00
07FE0000001FF800
07FF0000003FF800
03FF8000003FF000
01FF8000007FF000
01FFC000007FE000
00FFC00000FFC000
00FFE00001FFC000
007FE00001FF8000
007FF00003FF8000
003FF80003FF0000
001FF80007FF0000
001FFC000FFE0000
000FFC000FFC0000
000FFE001FFC0000
0007FF001FF80000
0003FF003FF80000
0003FF803FF00000
0001FF807FF00000
0001FFC0FFE00000
0000FFC0FFC00000
0000FFE1FFC00000
00007FF1FF800000
00003FF3FF800000
00003FFBFF000000
00001FFFFF000000
00001FFFFE000000
00000FFFFC000000
00000FFFFC000000
000007FFF8000000
000003FFF8000000
000003FFF0000000
000001FFF0000000
000001FFE0000000
000000FFC0000000
000000FFC0000000
0000007FC0000000
0000007FC0000000
0000007FC0000000
0000007FC0000000
0000007FC0000000
0000007FC0000000
0000007FC0000000
0000007FC0000000
0000007FC0000000
0000007FC0000000
0000007FC0000000
0000007FC0000000
0000007FC0000000
0000007FC0000000
0000007FC0000000
0000007FC0000000
0000007FC0000000
0000007FC0000000
0000007FC0000000
0000007FC0000000
0000007FC0000000
0000007FC0000000
0000007FC0000000
0000007FC0000000
0000007FC0000000
0000007FC0000000
0000007FC0000000
0000007FC0000000
0000007FC0000000
0000007FC0000000
ENDCHAR
STARTCHAR 00DE
ENCODING 222
SWIDTH 611 0
DWIDTH 62 0
BBX 51 73 7 0
BITMAP
FF800000000000
FF800000000000
FF800000000000
FF800000000000
FF800000000000
FF800000000000
FF800000000000
FF800000000000
FF800000000000
FF800000000000
FF800000000000
FF800000000000
FF800000000000
FFFFFFFC000000
FFFFFFFFE00000
FFFFFFFFFC0000
FFFFFFFFFF0000
FFFFFFFFFF8000
FFFFFFFFFFE000
FFFFFFFFFFF000
FFFFFFFFFFF800
FFFFFFFFFFFC00
FF800001FFFE00
FF8000003FFE00
FF8000000FFF00
FF80000007FF80
FF80000003FF80
FF80000001FF80
FF80000000FFC0
FF80000000FFC0
FF800000007FE0
FF800000007FE0
FF800000003FE0
FF800000003FE0
FF800000003FE0
FF800000003FE0
FF800000003FE0
FF800000003FE0
FF800000003FE0
FF800000003FE0
FF800000003FE0
FF800000007FE0
FF800000007FE0
FF80000000FFC0
FF80000000FFC0
FF80000001FFC0
FF80000003FF80
FF80000007FF80
FF8000000FFF00
FF8000003FFE00
FF800000FFFE00
FFFFFFFFFFFC00
FFFFFFFFFFF800
FFFFFFFFFFF000
FFFFFFFFFFE000
FFFFFFFFFF8000
FFFFFFFFFF0000
FFFFFFFFFC0000
FFFFFFFFE00000
FFFFFFFE000000
FF800000000000
FF800000000000
FF800000000000
FF800000000000
FF800000000000
FF800000000000
FF800000000000
FF800000000000
FF800000000000
FF800000000000
FF800000000000
FF800000000000
FF800000000000
ENDCHAR
STARTCHAR 00DF
ENCODING 223
SWIDTH 611 0
DWIDTH 62 0
BBX 49 76 7 -1
BITMAP
0000FFC0000000
000FFFFC000000
003FFFFF000000
00FFFFFFC00000
01FFFFFFE00000
03FFFFFFF80000
07FFFFFFFC0000
0FFFFFFFFC0000
1FFFFFFFFE0000
1FFF003FFF0000
3FFC000FFF0000
3FF80003FF8000
7FF00001FF8000
7FE00001FFC000
7FE00000FFC000
FFC000007FC000
FFC000007FC000
FFC000007FC000
FFC000007FC000
FF8000007FE000
FF8000007FE000
FF8000007FC000
FF8000007FC000
FF8000007FC000
FF8000007FC000
FF800000FFC000
FF800000FFC000
FF800001FF8000
FF800003FF8000
FF800007FF0000
FF80001FFF0000
FF8000FFFE0000
FF8007FFFC0000
FF8007FFF00000
FF8007FFE00000
FF8007FFFC0000
FF8007FFFE0000
FF8007FFFF8000
FF8007FFFFC000
FF8007FFFFE000
FF80001FFFF000
FF800001FFF800
FF8000007FFC00
FF8000003FFC00
FF8000000FFE00
FF80000007FE00
FF80000007FF00
FF80000003FF00
FF80000001FF00
FF80000001FF00
FF80000001FF80
FF80000001FF80
FF80000000FF80
FF80000000FF80
FF80000000FF80
FF80000001FF80
FF80000001FF80
FF80000001FF80
FF80000001FF00
FF80000003FF00
FF80000003FF00
FF80000007FF00
FF80000007FE00
FF8000000FFE00
FF8000003FFE00
FF8000007FFC00
FF80E003FFFC00
FF80FFFFFFF800
FF80FFFFFFF000
FF80FFFFFFE000
FF80FFFFFFC000
FF80FFFFFF8000
FF80FFFFFF0000
FF80FFFFFC0000
FF80FFFFF00000
00001FFF000000
ENDCHAR
STARTCHAR 00E0
ENCODING 224
SWIDTH 562 0
DWIDTH 57 0
BBX 47 82 4 -2
BITMAP
0001FC000000
0001FE000000
0000FE000000
0000FF000000
00007F000000
00007F000000
00007F800000
00003F800000
00003FC00000
00001FC00000
00001FC00000
00001FE00000
00000FE00000
00000FF00000
000007F00000
000007F00000
000007F80000
000000000000
000000000000
000000000000
000000000000
000000000000
000000000000
000000000000
00001FFE0000
0001FFFFE000
000FFFFFF800
001FFFFFFE00
007FFFFFFF00
00FFFFFFFF80
01FFFFFFFFC0
03FFFFFFFFE0
07FFFE3FFFF0
07FFC001FFF8
0FFF00007FF8
1FFE00001FFC
1FFC00000FFC
1FF800000FFC
3FF0000007FC
3FF0000007FE
03E0000007FE
0060000003FE
0000000003FE
0000000003FE
0000000003FE
0000000007FE
00000007FFFE
000001FFFFFE
00007FFFFFFE
0007FFFFFFFE
003FFFFFFFFE
00FFFFFFFFFE
01FFFFFFFFFE
07FFFFFFC3FE
0FFFFFE003FE
1FFFFC0003FE
1FFF800003FE
3FFE000003FE
7FF8000003FE
7FF0000003FE
7FE0000007FE
FFC0000007FE
FFC0000007FE
FF80000007FE
FF8000000FFE
FF8000000FFE
FF8000001FFE
FF8000001FFE
FF8000003FFE
FFC000007FFE
7FE00000FFFE
7FE00003FFFE
7FF80007FFFE
3FFC003FFDFE
1FFFFFFFF9FE
1FFFFFFFF1FE
0FFFFFFFE1FE
07FFFFFFC1FE
03FFFFFF01FE
00FFFFFE01FE
003FFFF00000
0003FF000000
ENDCHAR
STARTCHAR 00E1
ENCODING 225
SWIDTH 562 0
DWIDTH 57 0
BBX 47 82 4 -2
BITMAP
0000000FE000
0000000FE000
0000001FE000
0000001FC000
0000001FC000
0000003F8000
0000003F8000
0000007F8000
0000007F0000
0000007F0000
000000FE0000
000000FE0000
000001FE0000
000001FC0000
000001FC0000
000003F80000
000003F80000
000000000000
000000000000
000000000000
000000000000
000000000000
000000000000
000000000000
00001FFE0000
0001FFFFE000
000FFFFFF800
001FFFFFFE00
007FFFFFFF00
00FFFFFFFF80
01FFFFFFFFC0
03FFFFFFFFE0
07FFFE3FFFF0
07FFC001FFF8
0FFF00007FF8
1FFE00001FFC
1FFC00000FFC
1FF800000FFC
3FF0000007FC
3FF0000007FE
03E0000007FE
0060000003FE
0000000003FE
0000000003FE
0000000003FE
0000000007FE
00000007FFFE
000001FFFFFE
00007FFFFFFE
0007FFFFFFFE
003FFFFFFFFE
00FFFFFFFFFE
01FFFFFFFFFE
07FFFFFFC3FE
0FFFFFE003FE
1FFFFC0003FE
1FFF800003FE
3FFE000003FE
7FF8000003FE
7FF0000003FE
7FE0000007FE
FFC0000007FE
FFC0000007FE
FF80000007FE
FF8000000FFE
FF8000000FFE
FF8000001FFE
FF8000001FFE
FF8000003FFE
FFC000007FFE
7FE00000FFFE
7FE00003FFFE
7FF80007FFFE
3FFC003FFDFE
1FFFFFFFF9FE
1FFFFFFFF1FE
0FFFFFFFE1FE
07FFFFFFC1FE
03FFFFFF01FE
00FFFFFE01FE
003FFFF00000
0003FF000000
ENDCHAR
STARTCHAR 00E2
ENCODING 226
SWIDTH 562 0
DWIDTH 57 0
BBX 47 79 4 -2
BITMAP
00000FFC0000
00000FFE0000
00001FFF0000
00003FFF8000
00007FFF8000
0000FFBFC000
0001FF3FE000
0003FE1FF000
0003FC0FF800
0007FC07FC00
000FF803FE00
001FF001FE00
003FE001FF00
007FC000FF80
000000000000
000000000000
000000000000
000000000000
000000000000
000000000000
000000000000
00001FFE0000
0001FFFFE000
000FFFFFF800
001FFFFFFE00
007FFFFFFF00
00FFFFFFFF80
01FFFFFFFFC0
03FFFFFFFFE0
07FFFE3FFFF0
07FFC001FFF8
0FFF00007FF8
1FFE00001FFC
1FFC00000FFC
1FF800000FFC
3FF0000007FC
3FF0000007FE
03E0000007FE
0060000003FE
0000000003FE
0000000003FE
0000000003FE
0000000007FE
00000007FFFE
000001FFFFFE
00007FFFFFFE
0007FFFFFFFE
003FFFFFFFFE
00FFFFFFFFFE
01FFFFFFFFFE
07FFFFFFC3FE
0FFFFFE003FE
1FFFFC0003FE
1FFF800003FE
3FFE000003FE
7FF8000003FE
7FF0000003FE
7FE0000007FE
FFC0000007FE
FFC0000007FE
FF80000007FE
FF8000000FFE
FF8000000FFE
FF8000001FFE
FF8000001FFE
FF8000003FFE
FFC000007FFE
7FE00000FFFE
7FE00003FFFE
7FF80007FFFE
3FFC003FFDFE
1FFFFFFFF9FE
1FFFFFFFF1FE
0FFFFFFFE1FE
07FFFFFFC1FE
03FFFFFF01FE
00FFFFFE01FE
003FFFF00000
0003FF000000
ENDCHAR
STARTCHAR 00E3
ENCODING 227
SWIDTH 562 0
DWIDTH 57 0
BBX 47 78 4 -2
BITMAP
0001F8000000
0007FF000FC0
000FFF800FC0
001FFFE00FC0
003FFFF80FC0
003FFFFE1FC0
003FFFFFFFC0
003F87FFFFC0
003F01FFFF80
003F007FFF80
003F003FFF00
003F000FFE00
00000001F800
000000000000
000000000000
000000000000
000000000000
000000000000
000000000000
000000000000
00001FFE0000
0001FFFFE000
000FFFFFF800
001FFFFFFE00
007FFFFFFF00
00FFFFFFFF80
01FFFFFFFFC0
03FFFFFFFFE0
07FFFE3FFFF0
07FFC001FFF8
0FFF00007FF8
1FFE00001FFC
1FFC00000FFC
1FF800000FFC
3FF0000007FC
3FF0000007FE
03E0000007FE
0060000003FE
0000000003FE
0000000003FE
0000000003FE
0000000007FE
00000007FFFE
000001FFFFFE
00007FFFFFFE
0007FFFFFFFE
003FFFFFFFFE
00FFFFFFFFFE
01FFFFFFFFFE
07FFFFFFC3FE
0FFFFFE003FE
1FFFFC0003FE
1FFF800003FE
3FFE000003FE
7FF8000003FE
7FF0000003FE
7FE0000007FE
FFC0000007FE
FFC0000007FE
FF80000007FE
FF8000000FFE
FF8000000FFE
FF8000001FFE
FF8000001FFE
FF8000003FFE
FFC000007FFE
7FE00000FFFE
7FE00003FFFE
7FF80007FFFE
3FFC003FFDFE
1FFFFFFFF9FE
1FFFFFFFF1FE
0FFFFFFFE1FE
07FFFFFFC1FE
03FFFFFF01FE
00FFFFFE01FE
003FFFF00000
0003FF000000
ENDCHAR
STARTCHAR 00E4
ENCODING 228
SWIDTH 562 0
DWIDTH 57 0
BBX 47 76 4 -2
BITMAP
001FF001FF00
001FF001FF00
001FF001FF00
001FF001FF00
001FF001FF00
001FF001FF00
001FF001FF00
001FF001FF00
001FF001FF00
000000000000
000000000000
000000000000
000000000000
000000000000
000000000000
000000000000
000000000000
000000000000
00001FFE0000
0001FFFFE000
000FFFFFF800
001FFFFFFE00
007FFFFFFF00
00FFFFFFFF80
01FFFFFFFFC0
03FFFFFFFFE0
07FFFE3FFFF0
07FFC001FFF8
0FFF00007FF8
1FFE00001FFC
1FFC00000FFC
1FF800000FFC
3FF0000007FC
3FF0000007FE
03E0000007FE
0060000003FE
0000000003FE
0000000003FE
0000000003FE
0000000007FE
00000007FFFE
000001FFFFFE
00007FFFFFFE
0007FFFFFFFE
003FFFFFFFFE
00FFFFFFFFFE
01FFFFFFFFFE
07FFFFFFC3FE
0FFFFFE003FE
1FFFFC0003FE
1FFF800003FE
3FFE000003FE
7FF8000003FE
7FF0000003FE
7FE0000007FE
FFC0000007FE
FFC0000007FE
FF80000007FE
FF8000000FFE
FF8000000FFE
FF8000001FFE
FF8000001FFE
FF8000003FFE
FFC000007FFE
7FE00000FFFE
7FE00003FFFE
7FF80007FFFE
3FFC003FFDFE
1FFFFFFFF9FE
1FFFFFFFF1FE
0FFFFFFFE1FE
07FFFFFFC1FE
03FFFFFF01FE
00FFFFFE01FE
003FFFF00000
0003FF000000
ENDCHAR
STARTCHAR 00E5
ENCODING 229
SWIDTH 562 0
DWIDTH 57 0
BBX 47 86 4 -2
BITMAP
000003F80000
00001FFE0000
00003FFF0000
00007FFFC000
0000FFFFC000
0001FFFFE000
0001FF1FF000
0003FC07F000
0003F803F000
0003F003F800
0003F001F800
0007F001F800
0007F001F800
0003F001F800
0003F003F800
0003F803F000
0003FC07F000
0001FF1FF000
0001FFFFE000
0000FFFFC000
00007FFFC000
00003FFF8000
00000FFE0000
000003F80000
000000000000
000000000000
000000000000
000000000000
00001FFE0000
0001FFFFE000
000FFFFFF800
001FFFFFFE00
007FFFFFFF00
00FFFFFFFF80
01FFFFFFFFC0
03FFFFFFFFE0
07FFFE3FFFF0
07FFC001FFF8
0FFF00007FF8
1FFE00001FFC
1FFC00000FFC
1FF800000FFC
3FF0000007FC
3FF0000007FE
03E0000007FE
0060000003FE
0000000003FE
0000000003FE
0000000003FE
0000000007FE
00000007FFFE
000001FFFFFE
00007FFFFFFE
0007FFFFFFFE
003FFFFFFFFE
00FFFFFFFFFE
01FFFFFFFFFE
07FFFFFFC3FE
0FFFFFE003FE
1FFFFC0003FE
1FFF800003FE
3FFE000003FE
7FF8000003FE
7FF0000003FE
7FE0000007FE
FFC0000007FE
FFC0000007FE
FF80000007FE
FF8000000FFE
FF8000000FFE
FF8000001FFE
FF8000001FFE
FF8000003FFE
FFC000007FFE
7FE00000FFFE
7FE00003FFFE
7FF80007FFFE
3FFC003FFDFE
1FFFFFFFF9FE
1FFFFFFFF1FE
0FFFFFFFE1FE
07FFFFFFC1FE
03FFFFFF01FE
00FFFFFE01FE
003FFFF00000
0003FF000000
ENDCHAR
STARTCHAR 00E6
ENCODING 230
SWIDTH 936 0
DWIDTH 95 0
BBX 87 58 4 -2
BITMAP
00001FFE0000003FF00000
0000FFFFC00003FFFF0000
0007FFFFF8000FFFFFC000
001FFFFFFC003FFFFFF000
003FFFFFFF007FFFFFFC00
00FFFFFFFF80FFFFFFFE00
01FFFFFFFFC3FFFFFFFF00
03FFFFFFFFE7FFFFFFFF80
07FFFE3FFFE7FFF01FFF80
07FFC001FFFFFF0003FFC0
0FFF00007FFFFE0000FFE0
0FFE00003FFFF800007FE0
1FF800001FFFF000003FF0
1FF800000FFFE000001FF0
3FF000000FFFE000000FF8
1FE0000007FFC000000FF8
01E0000007FFC000000FF8
0020000007FF80000007FC
0000000003FF80000007FC
0000000003FF80000007FC
0000000003FF00000003FC
0000000003FF00000003FE
0000000003FF00000003FE
0000000003FF00000003FE
00000007FFFFFFFFFFFFFE
00007FFFFFFFFFFFFFFFFE
0007FFFFFFFFFFFFFFFFFE
003FFFFFFFFFFFFFFFFFFE
00FFFFFFFFFFFFFFFFFFFE
03FFFFFFFFFFFFFFFFFFFE
07FFFFFFFFFFFFFFFFFFFE
0FFFFF0003FE0000000000
1FFF800003FF0000000000
3FFC000003FF0000000000
3FF8000003FF0000000000
7FE0000003FF0000000000
7FE0000007FF0000000000
FFC0000007FF0000000000
FF80000007FF8000000000
FF80000007FF8000000000
FF8000000FFF8000000300
FF8000000FFFC0000007E0
FF8000001FFFC000000FFC
FF8000001FFFE000000FFC
FF8000003FFFF000001FF8
FFC000007FFFF800003FF8
7FC00000FF9FFC00007FF0
7FE00003FF9FFE0001FFF0
7FF00007FF0FFFC007FFE0
3FFC003FFE07FFFFFFFFC0
3FFFFFFFFC03FFFFFFFF80
1FFFFFFFF803FFFFFFFF00
0FFFFFFFF000FFFFFFFE00
07FFFFFFE0007FFFFFFC00
03FFFFFFC0003FFFFFF000
00FFFFFF00000FFFFFE000
003FFFF8000001FFFF0000
0003FF800000003FF80000
ENDCHAR
STARTCHAR 00E7
ENCODING 231
SWIDTH 562 0
DWIDTH 57 0
BBX 49 80 4 -24
BITMAP
000007FF000000
00007FFFF00000
0003FFFFFC0000
000FFFFFFF0000
001FFFFFFF8000
003FFFFFFFE000
00FFFFFFFFF000
01FFFFFFFFF800
01FFFFFFFFFC00
03FFF000FFFC00
07FFC0003FFE00
0FFF00001FFF00
0FFE000007FF00
1FFC000003FF80
1FFC000003FF80
3FF8000001FF80
3FF0000000FE00
3FF0000000F000
7FE00000000000
7FE00000000000
7FE00000000000
7FC00000000000
7FC00000000000
FFC00000000000
FFC00000000000
FFC00000000000
FFC00000000000
FFC00000000000
FFC00000000000
FFC00000000000
FFC00000000000
FFC00000000000
FFC00000000000
FFC00000000000
FFC00000000000
7FC00000000000
7FE00000000000
7FE00000000000
7FE00000000000
3FF00000008000
3FF0000000F800
3FF8000001FF80
1FF8000001FF80
1FFC000003FF80
0FFE000007FF00
0FFF00000FFF00
07FFC0001FFE00
03FFF0007FFC00
03FFFF07FFFC00
01FFFFFFFFF800
00FFFFFFFFF000
007FFFFFFFE000
001FFFFFFFC000
000FFFFFFF0000
0003FFFFFC0000
0000FFFFF00000
00000FFF800000
000001F8000000
000001F8000000
000003F0000000
000003F0000000
000007F8000000
000007FC000000
000007FE000000
00000FFF000000
000003FF800000
0000007F800000
0000003FC00000
0000001FC00000
0000001FC00000
0000001FC00000
0000003FC00000
0000003FC00000
00001FFF800000
00001FFF800000
00003FFF000000
00003FFF000000
00003FFE000000
00003FF8000000
00000FE0000000
ENDCHAR
STARTCHAR 00E8
ENCODING 232
SWIDTH 591 0
DWIDTH 60 0
BBX 52 82 4 -2
BITMAP
00007F00000000
00007F00000000
00007F80000000
00003F80000000
00003FC0000000
00001FC0000000
00001FC0000000
00001FE0000000
00000FE0000000
00000FF0000000
000007F0000000
000007F0000000
000007F8000000
000003F8000000
000003FC000000
000001FC000000
000001FC000000
00000000000000
00000000000000
00000000000000
00000000000000
00000000000000
00000000000000
00000000000000
000007FF000000
00007FFFF00000
0003FFFFFC0000
0007FFFFFF0000
001FFFFFFF8000
003FFFFFFFE000
007FFFFFFFF000
00FFFFFFFFF800
01FFFE01FFFC00
03FFE0003FFC00
07FF80000FFE00
0FFF000007FF00
0FFE000003FF00
1FFC000001FF80
1FF8000001FF80
3FF8000000FFC0
3FF0000000FFC0
3FF00000007FC0
7FE00000007FC0
7FE00000007FE0
7FE00000003FE0
7FC00000003FE0
7FC00000003FE0
FFC00000003FE0
FFFFFFFFFFFFF0
FFFFFFFFFFFFF0
FFFFFFFFFFFFF0
FFFFFFFFFFFFF0
FFFFFFFFFFFFF0
FFFFFFFFFFFFF0
FFFFFFFFFFFFF0
FFC00000000000
FFC00000000000
FFC00000000000
FFC00000000000
7FC00000000000
7FC00000000000
7FE00000000000
7FE00000000000
7FE00000000000
3FF00000003800
3FF00000007F00
1FF8000000FFC0
1FFC000000FFC0
1FFC000001FFC0
0FFE000003FF80
07FF80000FFF80
07FFC0001FFF00
03FFF000FFFE00
01FFFFFFFFFC00
00FFFFFFFFFC00
007FFFFFFFF800
003FFFFFFFE000
001FFFFFFFC000
0007FFFFFF0000
0001FFFFFC0000
00007FFFF00000
000007FF000000
ENDCHAR
STARTCHAR 00E9
ENCODING 233
SWIDTH 591 0
DWIDTH 60 0
BBX 52 82 4 -2
BITMAP
00000003FC0000
00000003F80000
00000003F80000
00000007F80000
00000007F00000
0000000FF00000
0000000FE00000
0000000FE00000
0000001FE00000
0000001FC00000
0000003FC00000
0000003F800000
0000003F800000
0000007F800000
0000007F000000
000000FF000000
000000FE000000
00000000000000
00000000000000
00000000000000
00000000000000
00000000000000
00000000000000
00000000000000
000007FF000000
00007FFFF00000
0003FFFFFC0000
0007FFFFFF0000
001FFFFFFF8000
003FFFFFFFE000
007FFFFFFFF000
00FFFFFFFFF800
01FFFE01FFFC00
03FFE0003FFC00
07FF80000FFE00
0FFF000007FF00
0FFE000003FF00
1FFC000001FF80
1FF8000001FF80
3FF8000000FFC0
3FF0000000FFC0
3FF00000007FC0
7FE00000007FC0
7FE00000007FE0
7FE00000003FE0
7FC00000003FE0
7FC00000003FE0
FFC00000003FE0
FFFFFFFFFFFFF0
FFFFFFFFFFFFF0
FFFFFFFFFFFFF0
FFFFFFFFFFFFF0
FFFFFFFFFFFFF0
FFFFFFFFFFFFF0
FFFFFFFFFFFFF0
FFC00000000000
FFC00000000000
FFC00000000000
FFC00000000000
7FC00000000000
7FC00000000000
7FE00000000000
7FE00000000000
7FE00000000000
3FF00000003800
3FF00000007F00
1FF8000000FFC0
1FFC000000FFC0
1FFC000001FFC0
0FFE000003FF80
07FF80000FFF80
07FFC0001FFF00
03FFF000FFFE00
01FFFFFFFFFC00
00FFFFFFFFFC00
007FFFFFFFF800
003FFFFFFFE000
001FFFFFFFC000
0007FFFFFF0000
0001FFFFFC0000
00007FFFF00000
000007FF000000
ENDCHAR
STARTCHAR 00EA
ENCODING 234
SWIDTH 591 0
DWIDTH 60 0
BBX 52 79 4 -2
BITMAP
000007FE000000
000007FF000000
00000FFF800000
00001FFFC00000
00003FFFE00000
00007FDFE00000
0000FF9FF00000
0001FF0FF80000
0001FE07FC0000
0003FE03FE0000
0007FC01FF0000
000FF800FF8000
001FF0007F8000
003FE0007FC000
00000000000000
00000000000000
00000000000000
00000000000000
00000000000000
00000000000000
00000000000000
000007FF000000
00007FFFF00000
0003FFFFFC0000
0007FFFFFF0000
001FFFFFFF8000
003FFFFFFFE000
007FFFFFFFF000
00FFFFFFFFF800
01FFFE01FFFC00
03FFE0003FFC00
07FF80000FFE00
0FFF000007FF00
0FFE000003FF00
1FFC000001FF80
1FF8000001FF80
3FF8000000FFC0
3FF0000000FFC0
3FF00000007FC0
7FE00000007FC0
7FE00000007FE0
7FE00000003FE0
7FC00000003FE0
7FC00000003FE0
FFC00000003FE0
FFFFFFFFFFFFF0
FFFFFFFFFFFFF0
FFFFFFFFFFFFF0
FFFFFFFFFFFFF0
FFFFFFFFFFFFF0
FFFFFFFFFFFFF0
FFFFFFFFFFFFF0
FFC00000000000
FFC00000000000
FFC00000000000
FFC00000000000
7FC00000000000
7FC00000000000
7FE00000000000
7FE00000000000
7FE00000000000
3FF00000003800
3FF00000007F00
1FF8000000FFC0
1FFC000000FFC0
1FFC000001FFC0
0FFE000003FF80
07FF80000FFF80
07FFC0001FFF00
03FFF000FFFE00
01FFFFFFFFFC00
00FFFFFFFFFC00
007FFFFFFFF800
003FFFFFFFE000
001FFFFFFFC000
0007FFFFFF0000
0001FFFFFC0000
00007FFFF00000
000007FF000000
ENDCHAR
STARTCHAR 00EB
ENCODING 235
SWIDTH 591 0
DWIDTH 60 0
BBX 52 76 4 -2
BITMAP
000FF800FF8000
000FF800FF8000
000FF800FF8000
000FF800FF8000
000FF800FF8000
000FF800FF8000
000FF800FF8000
000FF800FF8000
000FF800FF8000
00000000000000
00000000000000
00000000000000
00000000000000
00000000000000
00000000000000
00000000000000
00000000000000
00000000000000
000007FF000000
00007FFFF00000
0003FFFFFC0000
0007FFFFFF0000
001FFFFFFF8000
003FFFFFFFE000
007FFFFFFFF000
00FFFFFFFFF800
01FFFE01FFFC00
03FFE0003FFC00
07FF80000FFE00
0FFF000007FF00
0FFE000003FF00
1FFC000001FF80
1FF8000001FF80
3FF8000000FFC0
3FF0000000FFC0
3FF00000007FC0
7FE00000007FC0
7FE00000007FE0
7FE00000003FE0
7FC00000003FE0
7FC00000003FE0
FFC00000003FE0
FFFFFFFFFFFFF0
FFFFFFFFFFFFF0
FFFFFFFFFFFFF0
FFFFFFFFFFFFF0
FFFFFFFFFFFFF0
FFFFFFFFFFFFF0
FFFFFFFFFFFFF0
FFC00000000000
FFC00000000000
FFC00000000000
FFC00000000000
7FC00000000000
7FC00000000000
7FE00000000000
7FE00000000000
7FE00000000000
3FF00000003800
3FF00000007F00
1FF8000000FFC0
1FFC000000FFC0
1FFC000001FFC0
0FFE000003FF80
07FF80000FFF80
07FFC0001FFF00
03FFF000FFFE00
01FFFFFFFFFC00
00FFFFFFFFFC00
007FFFFFFFF800
003FFFFFFFE000
001FFFFFFFC000
0007FFFFFF0000
0001FFFFFC0000
00007FFFF00000
000007FF000000
ENDCHAR
STARTCHAR 00EC
ENCODING 236
SWIDTH 246 0
DWIDTH 25 0
BBX 15 80 2 0
BITMAP
FF00
7F00
7F80
3F80
3F80
3FC0
1FC0
1FE0
0FE0
0FE0
0FF0
07F0
07F8
03F8
03F8
03FC
01FC
0000
0000
0000
0000
0000
0000
0000
0000
03FE
03FE
03FE
03FE
03FE
03FE
03FE
03FE
03FE
03FE
03FE
03FE
03FE
03FE
03FE
03FE
03FE
03FE
03FE
03FE
03FE
03FE
03FE
03FE
03FE
03FE
03FE
03FE
03FE
03FE
03FE
03FE
03FE
03FE
03FE
03FE
03FE
03FE
03FE
03FE
03FE
03FE
03FE
03FE
03FE
03FE
03FE
03FE
03FE
03FE
03FE
03FE
03FE
03FE
03FE
ENDCHAR
STARTCHAR 00ED
ENCODING 237
SWIDTH 246 0
DWIDTH 25 0
BBX 15 80 8 0
BITMAP
01FE
01FC
01FC
03FC
03F8
07F8
07F0
07F0
0FF0
0FE0
1FE0
1FC0
1FC0
3FC0
3F80
3F80
7F00
0000
0000
0000
0000
0000
0000
0000
0000
FF80
FF80
FF80
FF80
FF80
FF80
FF80
FF80
FF80
FF80
FF80
FF80
FF80
FF80
FF80
FF80
FF80
FF80
FF80
FF80
FF80
FF80
FF80
FF80
FF80
FF80
FF80
FF80
FF80
FF80
FF80
FF80
FF80
FF80
FF80
FF80
FF80
FF80
FF80
FF80
FF80
FF80
FF80
FF80
FF80
FF80
FF80
FF80
FF80
FF80
FF80
FF80
FF80
FF80
FF80
ENDCHAR
STARTCHAR 00EE
ENCODING 238
SWIDTH 246 0
DWIDTH 25 0
BBX 32 78 -3 0
BITMAP
000FF000
001FF800
003FFC00
007FFE00
00FFFF00
01FFFF80
03FE7FC0
03FC3FC0
07FC3FE0
0FF81FF0
1FF00FF8
3FE007FC
7FC003FE
FF8001FF
00000000
00000000
00000000
00000000
00000000
00000000
00000000
00000000
00000000
001FF000
001FF000
001FF000
001FF000
001FF000
001FF000
001FF000
001FF000
001FF000
001FF000
001FF000
001FF000
001FF000
001FF000
001FF000
001FF000
001FF000
001FF000
001FF000
001FF000
001FF000
001FF000
001FF000
001FF000
001FF000
001FF000
001FF000
001FF000
001FF000
001FF000
001FF000
001FF000
001FF000
001FF000
001FF000
001FF000
001FF000
001FF000
001FF000
001FF000
001FF000
001FF000
001FF000
001FF000
001FF000
001FF000
001FF000
001FF000
001FF000
001FF000
001FF000
001FF000
001FF000
001FF000
001FF000
ENDCHAR
STARTCHAR 00EF
ENCODING 239
SWIDTH 246 0
DWIDTH 25 0
BBX 29 74 -2 0
BITMAP
FF800FF8
FF800FF8
FF800FF8
FF800FF8
FF800FF8
FF800FF8
FF800FF8
FF800FF8
FF800FF8
00000000
00000000
00000000
00000000
00000000
00000000
00000000
00000000
00000000
00000000
003FE000
003FE000
003FE000
003FE000
003FE000
003FE000
003FE000
003FE000
003FE000
003FE000
003FE000
003FE000
003FE000
003FE000
003FE000
003FE000
003FE000
003FE000
003FE000
003FE000
003FE000
003FE000
003FE000
003FE000
003FE000
003FE000
003FE000
003FE000
003FE000
003FE000
003FE000
003FE000
003FE000
003FE000
003FE000
003FE000
003FE000
003FE000
003FE000
003FE000
003FE000
003FE000
003FE000
003FE000
003FE000
003FE000
003FE000
003FE000
003FE000
003FE000
003FE000
003FE000
003FE000
003FE000
003FE000
ENDCHAR
STARTCHAR 00F0
ENCODING 240
SWIDTH 591 0
DWIDTH 60 0
BBX 51 81 4 -2
BITMAP
00000000040000
000000000E0000
000000000F0000
000000001FC000
00001F803FE000
00001FF87FC000
00001FFFFFC000
00003FFFFF8000
00003FFFFF0000
00003FFFFE0000
00003FFFFC0000
000007FFFE0000
0000007FFF0000
0000003FFF8000
0000003FFFC000
0000007FFFE000
000000FFFFE000
000001FF3FF000
000003FF1FF800
000001FE0FF800
000000FC07FC00
0000007803FC00
0000001003FE00
0000000001FE00
0000000000FF00
0000000000FF00
00000000007F00
00000FFE007F80
0000FFFFC07F80
0003FFFFF83F80
000FFFFFFE3FC0
003FFFFFFF3FC0
007FFFFFFFBFC0
00FFFFFFFFDFC0
01FFFFFFFFFFC0
03FFFC07FFFFC0
07FFE0007FFFE0
07FF80001FFFE0
0FFE00000FFFE0
1FFC000007FFE0
1FF8000003FFE0
3FF0000001FFE0
3FF0000000FFE0
3FE0000000FFE0
7FE00000007FE0
7FC00000007FE0
7FC00000007FE0
7FC00000003FE0
FFC00000003FE0
FFC00000003FE0
FF800000003FE0
FF800000003FE0
FF800000003FE0
FF800000003FE0
FF800000003FE0
FF800000003FE0
FF800000003FE0
FF800000003FE0
FFC00000003FE0
FFC00000003FE0
7FC00000003FE0
7FC00000007FE0
7FC00000007FC0
7FE00000007FC0
3FE0000000FFC0
3FF0000000FF80
3FF0000001FF80
1FF8000003FF80
1FFC000007FF00
0FFE00000FFF00
07FF80001FFE00
07FFE0007FFC00
03FFFC07FFFC00
01FFFFFFFFF800
00FFFFFFFFF000
007FFFFFFFE000
003FFFFFFF8000
000FFFFFFF0000
0003FFFFFC0000
0000FFFFE00000
00000FFF000000
ENDCHAR
STARTCHAR 00F1
ENCODING 241
SWIDTH 601 0
DWIDTH 61 0
BBX 48 76 7 0
BITMAP
000FE0000000
001FF8003F00
007FFE003F00
007FFF803F00
00FFFFC07F00
00FFFFF87F00
00FFFFFFFF00
01FE1FFFFE00
01FC07FFFE00
01FC01FFFE00
00FC00FFFC00
00FC003FF800
00000007E000
000000000000
000000000000
000000000000
000000000000
000000000000
000000000000
000000000000
000007FE0000
FF007FFFE000
FF01FFFFF800
FF07FFFFFE00
FF0FFFFFFF00
FF1FFFFFFF80
FF3FFFFFFFC0
FF7FFFFFFFE0
FFFFFFFFFFF0
FFFFE003FFF0
FFFF0000FFF8
FFFE00007FF8
FFFC00003FFC
FFF800001FFC
FFF000000FFC
FFF000000FFE
FFE0000007FE
FFE0000007FE
FFC0000003FF
FFC0000003FF
FFC0000003FF
FFC0000003FF
FF80000001FF
FF80000001FF
FF80000001FF
FF80000001FF
FF80000001FF
FF80000001FF
FF80000001FF
FF80000001FF
FF80000001FF
FF80000001FF
FF80000001FF
FF80000001FF
FF80000001FF
FF80000001FF
FF80000001FF
FF80000001FF
FF80000001FF
FF80000001FF
FF80000001FF
FF80000001FF
FF80000001FF
FF80000001FF
FF80000001FF
FF80000001FF
FF80000001FF
FF80000001FF
FF80000001FF
FF80000001FF
FF80000001FF
FF80000001FF
FF80000001FF
FF80000001FF
FF80000001FF
FF80000001FF
ENDCHAR
STARTCHAR 00F2
ENCODING 242
SWIDTH 601 0
DWIDTH 61 0
BBX 53 82 4 -2
BITMAP
0000FE00000000
0000FE00000000
0000FF00000000
00007F00000000
00007F80000000
00003F80000000
00003F80000000
00003FC0000000
00001FC0000000
00001FE0000000
00000FE0000000
00000FE0000000
00000FF0000000
000007F0000000
000007F8000000
000003F8000000
000003F8000000
00000000000000
00000000000000
00000000000000
00000000000000
00000000000000
00000000000000
00000000000000
000007FF000000
00007FFFF00000
0001FFFFFC0000
0007FFFFFF0000
001FFFFFFFC000
003FFFFFFFE000
007FFFFFFFF000
00FFFFFFFFF800
01FFFFFFFFFC00
03FFF000FFFE00
07FFC0001FFF00
07FF80000FFF00
0FFE000003FF80
1FFC000003FF80
1FFC000001FFC0
3FF8000000FFC0
3FF00000007FE0
3FF00000007FE0
7FE00000007FE0
7FE00000003FF0
7FE00000003FF0
7FC00000003FF0
7FC00000001FF0
FFC00000001FF0
FFC00000001FF8
FFC00000001FF8
FFC00000001FF8
FFC00000001FF8
FFC00000001FF8
FFC00000001FF8
FFC00000001FF8
FFC00000001FF8
FFC00000001FF8
FFC00000001FF8
FFC00000001FF0
7FC00000001FF0
7FC00000003FF0
7FE00000003FF0
7FE00000003FF0
7FE00000007FE0
3FF00000007FE0
3FF0000000FFE0
3FF8000000FFC0
1FFC000001FFC0
1FFC000003FF80
0FFE000007FF80
07FF80000FFF00
07FFC0001FFF00
03FFF000FFFE00
01FFFFFFFFFC00
00FFFFFFFFF800
007FFFFFFFF000
003FFFFFFFE000
001FFFFFFFC000
0007FFFFFF0000
0003FFFFFC0000
00007FFFF00000
000007FF000000
ENDCHAR
STARTCHAR 00F3
ENCODING 243
SWIDTH 601 0
DWIDTH 61 0
BBX 53 82 4 -2
BITMAP
00000007F80000
00000007F00000
00000007F00000
0000000FF00000
0000000FE00000
0000001FE00000
0000001FC00000
0000001FC00000
0000003FC00000
0000003F800000
0000007F800000
0000007F000000
0000007F000000
000000FF000000
000000FE000000
000001FE000000
000001FC000000
00000000000000
00000000000000
00000000000000
00000000000000
00000000000000
00000000000000
00000000000000
000007FF000000
00007FFFF00000
0001FFFFFC0000
0007FFFFFF0000
001FFFFFFFC000
003FFFFFFFE000
007FFFFFFFF000
00FFFFFFFFF800
01FFFFFFFFFC00
03FFF000FFFE00
07FFC0001FFF00
07FF80000FFF00
0FFE000003FF80
1FFC000003FF80
1FFC000001FFC0
3FF8000000FFC0
3FF00000007FE0
3FF00000007FE0
7FE00000007FE0
7FE00000003FF0
7FE00000003FF0
7FC00000003FF0
7FC00000001FF0
FFC00000001FF0
FFC00000001FF8
FFC00000001FF8
FFC00000001FF8
FFC00000001FF8
FFC00000001FF8
FFC00000001FF8
FFC00000001FF8
FFC00000001FF8
FFC00000001FF8
FFC00000001FF8
FFC00000001FF0
7FC00000001FF0
7FC00000003FF0
7FE00000003FF0
7FE00000003FF0
7FE00000007FE0
3FF00000007FE0
3FF0000000FFE0
3FF8000000FFC0
1FFC000001FFC0
1FFC000003FF80
0FFE000007FF80
07FF80000FFF00
07FFC0001FFF00
03FFF000FFFE00
01FFFFFFFFFC00
00FFFFFFFFF800
007FFFFFFFF000
003FFFFFFFE000
001FFFFFFFC000
0007FFFFFF0000
0003FFFFFC0000
00007FFFF00000
000007FF000000
ENDCHAR
STARTCHAR 00F4
ENCODING 244
SWIDTH 601 0
DWIDTH 61 0
BBX 53 79 4 -2
BITMAP
000003FE000000
000007FF000000
00000FFF800000
00001FFFC00000
00003FFFE00000
00007FDFE00000
0000FF9FF00000
0000FF0FF80000
0001FF07FC0000
0003FE03FE0000
0007FC01FF0000
000FF800FF8000
001FF0007F8000
003FE0007FC000
00000000000000
00000000000000
00000000000000
00000000000000
00000000000000
00000000000000
00000000000000
000007FF000000
00007FFFF00000
0001FFFFFC0000
0007FFFFFF0000
001FFFFFFFC000
003FFFFFFFE000
007FFFFFFFF000
00FFFFFFFFF800
01FFFFFFFFFC00
03FFF000FFFE00
07FFC0001FFF00
07FF80000FFF00
0FFE000003FF80
1FFC000003FF80
1FFC000001FFC0
3FF8000000FFC0
3FF00000007FE0
3FF00000007FE0
7FE00000007FE0
7FE00000003FF0
7FE00000003FF0
7FC00000003FF0
7FC00000001FF0
FFC00000001FF0
FFC00000001FF8
FFC00000001FF8
FFC00000001FF8
FFC00000001FF8
FFC00000001FF8
FFC00000001FF8
FFC00000001FF8
FFC00000001FF8
FFC00000001FF8
FFC00000001FF8
FFC00000001FF0
7FC00000001FF0
7FC00000003FF0
7FE00000003FF0
7FE00000003FF0
7FE00000007FE0
3FF00000007FE0
3FF0000000FFE0
3FF8000000FFC0
1FFC000001FFC0
1FFC000003FF80
0FFE000007FF80
07FF80000FFF00
07FFC0001FFF00
03FFF000FFFE00
01FFFFFFFFFC00
00FFFFFFFFF800
007FFFFFFFF000
003FFFFFFFE000
001FFFFFFFC000
0007FFFFFF0000
0003FFFFFC0000
00007FFFF00000
000007FF000000
ENDCHAR
STARTCHAR 00F5
ENCODING 245
SWIDTH 601 0
DWIDTH 61 0
BBX 53 78 4 -2
BITMAP
0001FC00000000
0007FF000FC000
000FFFC00FE000
000FFFF00FE000
001FFFF80FE000
001FFFFE1FE000
003FFFFFFFE000
003FC3FFFFC000
003F80FFFFC000
003F007FFF8000
003F001FFF8000
001F8007FF0000
00000001FC0000
00000000000000
00000000000000
00000000000000
00000000000000
00000000000000
00000000000000
00000000000000
000007FF000000
00007FFFF00000
0001FFFFFC0000
0007FFFFFF0000
001FFFFFFFC000
003FFFFFFFE000
007FFFFFFFF000
00FFFFFFFFF800
01FFFFFFFFFC00
03FFF000FFFE00
07FFC0001FFF00
07FF80000FFF00
0FFE000003FF80
1FFC000003FF80
1FFC000001FFC0
3FF8000000FFC0
3FF00000007FE0
3FF00000007FE0
7FE00000007FE0
7FE00000003FF0
7FE00000003FF0
7FC00000003FF0
7FC00000001FF0
FFC00000001FF0
FFC00000001FF8
FFC00000001FF8
FFC00000001FF8
FFC00000001FF8
FFC00000001FF8
FFC00000001FF8
FFC00000001FF8
FFC00000001FF8
FFC00000001FF8
FFC00000001FF8
FFC00000001FF0
7FC00000001FF0
7FC00000003FF0
7FE00000003FF0
7FE00000003FF0
7FE00000007FE0
3FF00000007FE0
3FF0000000FFE0
3FF8000000FFC0
1FFC000001FFC0
1FFC000003FF80
0FFE000007FF80
07FF80000FFF00
07FFC0001FFF00
03FFF000FFFE00
01FFFFFFFFFC00
00FFFFFFFFF800
007FFFFFFFF000
003FFFFFFFE000
001FFFFFFFC000
0007FFFFFF0000
0003FFFFFC0000
00007FFFF00000
000007FF000000
ENDCHAR
STARTCHAR 00F6
ENCODING 246
SWIDTH 601 0
DWIDTH 61 0
BBX 53 76 4 -2
BITMAP
000FF800FF8000
000FF800FF8000
000FF800FF8000
000FF800FF8000
000FF800FF8000
000FF800FF8000
000FF800FF8000
000FF800FF8000
000FF800FF8000
00000000000000
00000000000000
00000000000000
00000000000000
00000000000000
00000000000000
00000000000000
00000000000000
00000000000000
000007FF000000
00007FFFF00000
0001FFFFFC0000
0007FFFFFF0000
001FFFFFFFC000
003FFFFFFFE000
007FFFFFFFF000
00FFFFFFFFF800
01FFFFFFFFFC00
03FFF000FFFE00
07FFC0001FFF00
07FF80000FFF00
0FFE000003FF80
1FFC000003FF80
1FFC000001FFC0
3FF8000000FFC0
3FF00000007FE0
3FF00000007FE0
7FE00000007FE0
7FE00000003FF0
7FE00000003FF0
7FC00000003FF0
7FC00000001FF0
FFC00000001FF0
FFC00000001FF8
FFC00000001FF8
FFC00000001FF8
FFC00000001FF8
FFC00000001FF8
FFC00000001FF8
FFC00000001FF8
FFC00000001FF8
FFC00000001FF8
FFC00000001FF8
FFC00000001FF0
7FC00000001FF0
7FC00000003FF0
7FE00000003FF0
7FE00000003FF0
7FE00000007FE0
3FF00000007FE0
3FF0000000FFE0
3FF8000000FFC0
1FFC000001FFC0
1FFC000003FF80
0FFE000007FF80
07FF80000FFF00
07FFC0001FFF00
03FFF000FFFE00
01FFFFFFFFFC00
00FFFFFFFFF800
007FFFFFFFF000
003FFFFFFFE000
001FFFFFFFC000
0007FFFFFF0000
0003FFFFFC0000
00007FFFF00000
000007FF000000
ENDCHAR
STARTCHAR 00F7
ENCODING 247
SWIDTH 542 0
DWIDTH 55 0
BBX 43 38 6 18
BITMAP
00007FC00000
00007FC00000
00007FC00000
00007FC00000
00007FC00000
00007FC00000
00007FC00000
00007FC00000
00007FC00000
000000000000
000000000000
000000000000
000000000000
000000000000
000000000000
000000000000
FFFFFFFFFFE0
FFFFFFFFFFE0
FFFFFFFFFFE0
FFFFFFFFFFE0
FFFFFFFFFFE0
FFFFFFFFFFE0
FFFFFFFFFFE0
000000000000
000000000000
000000000000
000000000000
000000000000
000000000000
00007FC00000
00007FC00000
00007FC00000
00007FC00000
00007FC00000
00007FC00000
00007FC00000
00007FC00000
00007FC00000
ENDCHAR
STARTCHAR 00F8
ENCODING 248
SWIDTH 601 0
DWIDTH 61 0
BBX 55 58 3 -2
BITMAP
000003FF800040
00003FFFF800E0
0000FFFFFF01F0
0003FFFFFFC3F8
000FFFFFFFE7FC
001FFFFFFFFFFE
003FFFFFFFFFFE
007FFFFFFFFFFC
00FFFFFFFFFFF8
01FFF8007FFFF0
03FFE0000FFFE0
03FFC00007FFC0
07FF000001FFC0
0FFE000003FFE0
0FFE000007FFE0
1FFC00000FFFF0
1FF800001FFFF0
1FF800003FFFF0
3FF000007FFFF0
3FF00000FFDFF8
3FF00001FF9FF8
3FE00003FF1FF8
3FE00007FE0FF8
7FE0000FFC0FF8
7FE0001FF80FFC
7FE0003FF00FFC
7FE0007FE00FFC
7FE000FFC00FFC
7FE001FF800FFC
7FE003FF000FFC
7FE007FE000FFC
7FE00FFC000FFC
7FE01FF8000FFC
7FE03FF0000FFC
7FE07FE0000FF8
3FE0FFC0000FF8
3FE1FF80001FF8
3FF3FF00001FF8
3FF7FE00001FF8
3FFFFC00003FF0
1FFFF800003FF0
1FFFF000007FF0
0FFFE000007FE0
0FFFC00000FFE0
0FFF800001FFC0
07FF000003FFC0
0FFFC00007FF80
1FFFE0000FFF80
3FFFF8007FFF00
7FFFFFFFFFFE00
FFFFFFFFFFFC00
FFFFFFFFFFF800
7FDFFFFFFFF000
3F8FFFFFFFE000
1F03FFFFFF8000
0E00FFFFFE0000
04003FFFF80000
000003FF800000
ENDCHAR
STARTCHAR 00F9
ENCODING 249
SWIDTH 601 0
DWIDTH 61 0
BBX 48 81 6 -1
BITMAP
0001FC000000
0001FC000000
0001FE000000
0000FE000000
0000FF000000
00007F000000
00007F000000
00007F800000
00003F800000
00003FC00000
00001FC00000
00001FC00000
00001FE00000
00000FE00000
00000FF00000
000007F00000
000007F00000
000000000000
000000000000
000000000000
000000000000
000000000000
000000000000
000000000000
000000000000
FF80000001FF
FF80000001FF
FF80000001FF
FF80000001FF
FF80000001FF
FF80000001FF
FF80000001FF
FF80000001FF
FF80000001FF
FF80000001FF
FF80000001FF
FF80000001FF
FF80000001FF
FF80000001FF
FF80000001FF
FF80000001FF
FF80000001FF
FF80000001FF
FF80000001FF
FF80000001FF
FF80000001FF
FF80000001FF
FF80000001FF
FF80000001FF
FF80000001FF
FF80000001FF
FF80000001FF
FF80000001FF
FF80000001FF
FF80000001FF
FF80000001FF
FF80000001FF
FFC0000001FF
FFC0000001FF
FFC0000001FF
FFC0000003FF
7FC0000003FF
7FE0000003FF
7FE0000007FF
7FE0000007FF
7FF0000007FF
3FF000000FFF
3FF800001FFF
1FFC00003FFF
1FFE00007FFF
1FFF0000FFFF
0FFFC003FFFF
07FFFFFFFFFF
07FFFFFFFEFF
03FFFFFFFCFF
01FFFFFFF8FF
00FFFFFFF0FF
003FFFFFE0FF
001FFFFF80FF
0007FFFE00FF
00007FE00000
ENDCHAR
STARTCHAR 00FA
ENCODING 250
SWIDTH 601 0
DWIDTH 61 0
BBX 48 81 6 -1
BITMAP
0000003FC000
0000003F8000
0000003F8000
0000007F8000
0000007F0000
000000FF0000
000000FE0000
000000FE0000
000001FE0000
000001FC0000
000003FC0000
000003F80000
000003F80000
000007F80000
000007F00000
00000FF00000
00000FE00000
000000000000
000000000000
000000000000
000000000000
000000000000
000000000000
000000000000
000000000000
FF80000001FF
FF80000001FF
FF80000001FF
FF80000001FF
FF80000001FF
FF80000001FF
FF80000001FF
FF80000001FF
FF80000001FF
FF80000001FF
FF80000001FF
FF80000001FF
FF80000001FF
FF80000001FF
FF80000001FF
FF80000001FF
FF80000001FF
FF80000001FF
FF80000001FF
FF80000001FF
FF80000001FF
FF80000001FF
FF80000001FF
FF80000001FF
FF80000001FF
FF80000001FF
FF80000001FF
FF80000001FF
FF80000001FF
FF80000001FF
FF80000001FF
FF80000001FF
FFC0000001FF
FFC0000001FF
FFC0000001FF
FFC0000003FF
7FC0000003FF
7FE0000003FF
7FE0000007FF
7FE0000007FF
7FF0000007FF
3FF000000FFF
3FF800001FFF
1FFC00003FFF
1FFE00007FFF
1FFF0000FFFF
0FFFC003FFFF
07FFFFFFFFFF
07FFFFFFFEFF
03FFFFFFFCFF
01FFFFFFF8FF
00FFFFFFF0FF
003FFFFFE0FF
001FFFFF80FF
0007FFFE00FF
00007FE00000
ENDCHAR
STARTCHAR 00FB
ENCODING 251
SWIDTH 601 0
DWIDTH 61 0
BBX 48 79 6 -1
BITMAP
00000FF00000
00001FF80000
00003FFC0000
00007FFE0000
0000FFFF0000
0001FFFF8000
0003FE7FC000
0003FE7FC000
0007FC3FE000
000FF81FF000
001FF00FF800
003FE007FC00
007FC003FE00
007F8001FF00
00FF80000000
000000000000
000000000000
000000000000
000000000000
000000000000
000000000000
000000000000
000000000000
FF80000001FF
FF80000001FF
FF80000001FF
FF80000001FF
FF80000001FF
FF80000001FF
FF80000001FF
FF80000001FF
FF80000001FF
FF80000001FF
FF80000001FF
FF80000001FF
FF80000001FF
FF80000001FF
FF80000001FF
FF80000001FF
FF80000001FF
FF80000001FF
FF80000001FF
FF80000001FF
FF80000001FF
FF80000001FF
FF80000001FF
FF80000001FF
FF80000001FF
FF80000001FF
FF80000001FF
FF80000001FF
FF80000001FF
FF80000001FF
FF80000001FF
FF80000001FF
FFC0000001FF
FFC0000001FF
FFC0000001FF
FFC0000003FF
7FC0000003FF
7FE0000003FF
7FE0000007FF
7FE0000007FF
7FF0000007FF
3FF000000FFF
3FF800001FFF
1FFC00003FFF
1FFE00007FFF
1FFF0000FFFF
0FFFC003FFFF
07FFFFFFFFFF
07FFFFFFFEFF
03FFFFFFFCFF
01FFFFFFF8FF
00FFFFFFF0FF
003FFFFFE0FF
001FFFFF80FF
0007FFFE00FF
00007FE00000
ENDCHAR
STARTCHAR 00FC
ENCODING 252
SWIDTH 601 0
DWIDTH 61 0
BBX 48 75 6 -1
BITMAP
003FE007FE00
003FE007FE00
003FE007FE00
003FE007FE00
003FE007FE00
003FE007FE00
003FE007FE00
003FE007FE00
003FE007FE00
000000000000
000000000000
000000000000
000000000000
000000000000
000000000000
000000000000
000000000000
000000000000
000000000000
FF80000001FF
FF80000001FF
FF80000001FF
FF80000001FF
FF80000001FF
FF80000001FF
FF80000001FF
FF80000001FF
FF80000001FF
FF80000001FF
FF80000001FF
FF80000001FF
FF80000001FF
FF80000001FF
FF80000001FF
FF80000001FF
FF80000001FF
FF80000001FF
FF80000001FF
FF80000001FF
FF80000001FF
FF80000001FF
FF80000001FF
FF80000001FF
FF80000001FF
FF80000001FF
FF80000001FF
FF80000001FF
FF80000001FF
FF80000001FF
FF80000001FF
FF80000001FF
FFC0000001FF
FFC0000001FF
FFC0000001FF
FFC0000003FF
7FC0000003FF
7FE0000003FF
7FE0000007FF
7FE0000007FF
7FF0000007FF
3FF000000FFF
3FF800001FFF
1FFC00003FFF
1FFE00007FFF
1FFF0000FFFF
0FFFC003FFFF
07FFFFFFFFFF
07FFFFFFFEFF
03FFFFFFFCFF
01FFFFFFF8FF
00FFFFFFF0FF
003FFFFFE0FF
001FFFFF80FF
0007FFFE00FF
00007FE00000
ENDCHAR
STARTCHAR 00FD
ENCODING 253
SWIDTH 542 0
DWIDTH 55 0
BBX 51 104 2 -24
BITMAP
0000000FF00000
0000000FE00000
0000001FE00000
0000001FC00000
0000001FC00000
0000003FC00000
0000003F800000
0000007F800000
0000007F000000
0000007F000000
000000FF000000
000000FE000000
000001FE000000
000001FC000000
000001FC000000
000003FC000000
000003F8000000
00000000000000
00000000000000
00000000000000
00000000000000
00000000000000
00000000000000
00000000000000
00000000000000
FF800000003FE0
FFC00000003FE0
7FC00000007FC0
7FC00000007FC0
7FE0000000FFC0
3FE0000000FF80
3FF0000000FF80
1FF0000001FF00
1FF0000001FF00
1FF8000001FF00
0FF8000003FE00
0FFC000003FE00
07FC000007FE00
07FC000007FC00
07FE000007FC00
03FE00000FF800
03FF00000FF800
01FF00000FF800
01FF00001FF000
01FF80001FF000
00FF80003FF000
00FFC0003FE000
007FC0003FE000
007FC0007FC000
007FE0007FC000
003FE0007FC000
003FF000FF8000
001FF000FF8000
001FF001FF8000
000FF801FF0000
000FF801FF0000
000FF803FE0000
0007FC03FE0000
0007FC03FE0000
0003FE07FC0000
0003FE07FC0000
0003FE07FC0000
0001FF0FF80000
0001FF0FF80000
0000FF9FF00000
0000FF9FF00000
0000FF9FF00000
00007FFFE00000
00007FFFE00000
00003FFFE00000
00003FFFC00000
00003FFFC00000
00001FFF800000
00001FFF800000
00000FFF800000
00000FFF000000
00000FFF000000
000007FE000000
000007FE000000
000003FE000000
000007FC000000
000007FC000000
000007FC000000
00000FF8000000
00000FF8000000
00000FF0000000
00001FF0000000
00001FF0000000
00003FE0000000
00003FE0000000
00003FE0000000
00007FC0000000
00007FC0000000
00007F80000000
0000FF80000000
0000FF80000000
0001FF00000000
0001FF00000000
0001FF00000000
0003FE00000000
0003FE00000000
0003FC00000000
0007FC00000000
0007FC00000000
ENDCHAR
ENDFONT
